{"glyphs":{"0":{"ha":768,"x_min":69,"x_max":763,"o":"m 354 -15 q 144 56 219 -15 q 69 251 69 126 q 72 303 69 285 l 117 669 q 231 899 135 814 q 476 983 328 983 q 687 913 611 983 q 763 721 763 843 q 760 669 763 688 l 715 303 q 600 70 697 156 q 354 -15 503 -15 m 375 153 q 475 190 435 153 q 524 293 515 228 l 571 675 q 572 697 572 683 q 542 784 572 753 q 456 815 511 815 q 356 777 396 815 q 308 675 315 739 l 261 293 q 260 268 260 285 q 290 183 260 214 q 375 153 321 153 z "},"1":{"ha":476,"x_min":117,"x_max":493,"o":"m 294 968 q 315 972 301 972 l 478 972 q 489 967 485 972 q 492 956 493 963 l 376 17 q 370 5 375 10 q 358 0 365 0 l 201 0 q 186 17 186 0 l 281 778 q 278 783 281 781 q 272 785 275 786 l 135 747 l 129 746 q 119 761 117 746 l 129 881 q 144 900 132 893 l 294 968 z "},"2":{"ha":754,"x_min":35,"x_max":743,"o":"m 308 176 q 306 171 306 174 q 311 168 307 168 l 676 168 q 688 163 683 168 q 690 151 692 158 l 675 17 q 668 5 674 10 q 656 0 663 0 l 50 0 q 39 5 43 0 q 36 17 35 10 l 51 144 q 63 165 54 158 q 308 404 163 257 q 400 496 400 496 q 549 704 539 635 l 550 719 q 520 789 550 763 q 440 815 490 815 q 349 784 386 815 q 306 701 313 753 l 301 667 q 295 655 300 660 q 283 650 290 650 l 124 650 q 113 655 117 650 q 110 667 108 660 l 118 732 q 235 915 139 846 q 461 983 331 983 q 613 952 549 983 q 710 866 676 921 q 743 742 743 811 q 707 606 743 675 q 597 457 671 536 q 482 339 551 406 q 342 207 413 272 l 308 176 z "},"3":{"ha":726,"x_min":53,"x_max":749,"o":"m 672 464 q 685 369 685 422 q 682 317 685 335 q 640 178 672 243 q 515 39 596 89 q 329 -11 433 -11 q 156 42 226 -11 q 61 185 85 94 q 53 267 53 225 q 54 301 53 290 q 60 314 56 310 q 72 318 65 318 l 232 318 q 246 301 249 318 q 253 233 246 258 q 285 177 260 197 q 349 157 310 157 q 460 225 424 157 q 490 322 483 267 q 493 367 493 353 q 483 429 493 404 q 388 494 460 494 q 314 460 365 494 q 303 456 308 456 q 292 464 296 456 l 226 579 q 224 588 224 585 q 232 603 224 597 l 469 796 q 472 801 472 799 q 468 804 472 804 l 151 804 q 140 809 144 804 q 138 821 136 814 l 154 956 q 160 967 156 963 q 172 972 165 972 l 733 972 q 744 967 740 972 q 747 956 749 963 l 729 803 q 717 782 728 790 l 519 615 q 517 610 517 613 q 522 607 518 607 q 672 464 636 583 z "},"4":{"ha":815,"x_min":49,"x_max":776,"o":"m 761 424 q 772 419 768 424 q 775 407 776 414 l 757 267 q 751 255 757 260 q 739 250 746 250 l 682 250 q 674 243 676 250 l 646 17 q 640 5 644 10 q 628 0 635 0 l 471 0 q 456 17 456 0 l 483 243 q 478 250 486 250 l 64 250 q 53 255 57 250 q 50 267 49 260 l 64 378 q 71 399 67 389 l 382 960 q 403 972 389 972 l 571 972 q 583 967 581 972 q 581 953 586 963 l 292 432 q 294 424 289 424 l 499 424 q 507 431 507 424 l 528 603 q 534 615 529 610 q 546 619 539 619 l 704 619 q 715 615 711 619 q 718 603 719 610 l 697 431 q 703 424 694 424 l 761 424 z "},"5":{"ha":725,"x_min":63,"x_max":740,"o":"m 689 443 q 696 363 696 408 q 693 311 696 328 q 656 183 685 242 q 530 43 615 96 q 340 -10 444 -10 q 167 41 238 -10 q 74 179 96 92 q 63 256 65 210 q 81 274 63 274 l 244 274 q 260 258 257 274 q 265 235 263 244 q 299 179 274 199 q 360 160 324 160 q 428 181 397 160 q 476 239 458 201 q 499 311 493 265 q 500 340 500 321 q 496 383 500 361 q 465 439 490 419 q 401 458 440 458 q 328 440 363 458 q 281 393 293 422 q 261 379 274 379 l 94 379 q 83 384 88 379 q 81 396 79 389 l 150 956 q 156 967 151 963 q 168 972 161 972 l 724 972 q 735 967 731 972 q 739 956 740 963 l 722 821 q 716 809 721 814 q 704 804 711 804 l 328 804 q 321 797 321 804 l 293 592 q 301 588 293 582 q 446 628 365 628 q 604 578 539 628 q 689 443 669 529 z "},"6":{"ha":724,"x_min":65,"x_max":721,"o":"m 678 471 q 694 369 694 428 q 690 311 694 343 q 647 167 681 231 q 522 38 601 85 q 342 -10 442 -10 q 168 40 238 -10 q 75 176 99 89 q 65 260 65 211 q 68 313 65 276 l 119 731 q 174 863 128 806 q 292 952 219 921 q 454 983 365 983 q 649 924 576 983 q 721 767 721 865 q 719 735 721 746 l 715 696 q 708 684 714 689 q 696 679 703 679 l 539 679 q 528 684 532 679 q 525 696 524 689 l 526 708 q 506 785 532 754 q 433 815 479 815 q 347 784 383 815 q 306 704 311 753 l 290 574 q 292 569 289 569 q 297 571 294 568 q 450 619 360 619 q 590 581 531 619 q 678 471 650 543 m 469 221 q 501 336 501 271 q 490 400 501 376 q 399 456 463 456 q 290 399 326 456 q 258 306 267 364 q 257 276 257 296 q 265 221 257 246 q 361 160 288 160 q 469 221 431 160 z "},"7":{"ha":668,"x_min":89,"x_max":740,"o":"m 140 0 q 129 19 121 0 l 517 796 q 513 804 519 804 l 260 804 q 255 802 257 804 q 253 797 253 800 l 244 733 q 239 722 244 726 q 226 717 233 717 l 104 717 q 93 722 97 717 q 90 733 89 726 l 118 956 q 125 967 119 963 q 138 972 131 972 l 725 972 q 740 956 740 972 l 722 815 q 715 794 722 808 l 329 13 q 308 0 324 0 l 140 0 z "},"8":{"ha":729,"x_min":56,"x_max":729,"o":"m 672 428 q 689 325 689 382 q 686 285 689 313 q 635 142 674 199 q 513 30 590 71 q 336 -11 436 -11 q 171 28 242 -11 q 72 143 100 68 q 56 243 56 189 q 58 286 56 258 q 107 429 68 364 q 183 508 133 476 q 185 518 190 513 q 138 585 157 544 q 119 675 119 628 q 140 784 119 732 q 196 876 160 836 q 310 960 242 931 q 460 990 379 990 q 602 960 542 990 q 693 876 663 929 q 729 747 729 819 q 676 581 729 656 q 614 519 649 543 q 613 510 607 514 q 672 428 654 479 m 331 761 q 310 703 314 736 q 308 681 308 694 q 318 631 308 656 q 408 581 343 581 q 513 631 474 581 q 539 704 535 661 q 540 722 540 710 q 533 763 540 739 q 498 806 522 790 q 436 822 474 822 q 376 806 404 822 q 331 761 347 790 m 460 206 q 499 331 499 257 q 489 389 499 360 q 392 447 465 447 q 285 390 322 447 q 251 272 251 343 q 265 210 251 238 q 357 157 290 157 q 460 206 422 157 z "},"9":{"ha":715,"x_min":58,"x_max":715,"o":"m 706 796 q 715 718 715 763 q 711 660 715 689 l 660 242 q 606 109 651 167 q 489 20 561 51 q 328 -11 417 -11 q 132 48 206 -11 q 58 206 58 107 q 60 238 58 226 l 65 276 q 72 288 67 283 q 83 293 76 293 l 240 293 q 256 276 256 293 l 253 264 q 274 188 247 218 q 349 157 301 157 q 432 188 397 157 q 474 268 467 219 l 489 397 q 488 403 490 401 q 482 401 485 404 q 331 353 421 353 q 190 391 250 353 q 103 501 131 429 q 86 607 86 547 q 89 661 86 643 q 133 806 99 743 q 258 935 178 888 q 440 982 339 982 q 613 933 543 982 q 706 796 682 883 m 383 517 q 490 574 453 517 q 522 667 514 608 q 524 696 524 676 q 515 751 524 726 q 421 813 493 813 q 311 751 350 813 q 278 640 278 701 q 292 572 278 600 q 383 517 317 517 z "},"\u0000":{"ha":0,"x_min":0,"x_max":0,"o":""},"\r":{"ha":269,"x_min":0,"x_max":0,"o":""}," ":{"ha":269,"x_min":0,"x_max":0,"o":""},"A":{"ha":904,"x_min":8,"x_max":842,"o":"m 654 0 q 639 14 642 0 l 615 150 q 614 153 615 151 q 610 156 613 156 l 278 156 q 271 150 274 156 l 214 14 q 196 0 210 0 l 24 0 q 12 6 15 0 q 13 19 8 11 l 419 958 q 439 972 426 972 l 650 972 q 667 958 663 972 l 842 19 l 842 15 q 838 4 842 8 q 826 0 833 0 l 654 0 m 339 315 q 343 307 338 307 l 581 307 q 588 315 588 307 l 517 728 q 513 733 515 733 q 508 728 510 732 l 339 315 z "},"Á":{"ha":904,"x_min":8,"x_max":842,"o":"m 654 0 q 639 14 642 0 l 615 150 q 614 153 615 151 q 610 156 613 156 l 278 156 q 271 150 274 156 l 214 14 q 196 0 210 0 l 24 0 q 12 6 15 0 q 13 19 8 11 l 419 958 q 439 972 426 972 l 650 972 q 667 958 663 972 l 842 19 l 842 15 q 838 4 842 8 q 826 0 833 0 l 654 0 m 339 315 q 343 307 338 307 l 581 307 q 588 315 588 307 l 517 728 q 513 733 515 733 q 508 728 510 732 l 339 315 m 478 1058 q 465 1067 465 1058 q 469 1078 465 1072 l 558 1218 q 579 1231 564 1231 l 715 1231 q 728 1221 728 1231 q 724 1210 728 1217 l 611 1069 q 590 1058 603 1058 l 478 1058 z "},"Ă":{"ha":904,"x_min":8,"x_max":842,"o":"m 654 0 q 639 14 642 0 l 615 150 q 614 153 615 151 q 610 156 613 156 l 278 156 q 271 150 274 156 l 214 14 q 196 0 210 0 l 24 0 q 12 6 15 0 q 13 19 8 11 l 419 958 q 439 972 426 972 l 650 972 q 667 958 663 972 l 842 19 l 842 15 q 838 4 842 8 q 826 0 833 0 l 654 0 m 339 315 q 343 307 338 307 l 581 307 q 588 315 588 307 l 517 728 q 513 733 515 733 q 508 728 510 732 l 339 315 m 549 1032 q 408 1078 461 1032 q 357 1197 354 1124 q 374 1214 357 1214 l 464 1214 q 479 1199 476 1214 q 504 1151 482 1169 q 561 1133 526 1133 q 623 1151 596 1133 q 660 1199 650 1169 q 678 1214 664 1214 l 768 1214 q 778 1210 775 1214 q 781 1200 782 1206 q 701 1079 765 1126 q 549 1032 636 1032 z "},"Ắ":{"ha":904,"x_min":8,"x_max":842,"o":"m 654 0 q 639 14 642 0 l 615 150 q 614 153 615 151 q 610 156 613 156 l 278 156 q 271 150 274 156 l 214 14 q 196 0 210 0 l 24 0 q 12 6 15 0 q 13 19 8 11 l 419 958 q 439 972 426 972 l 650 972 q 667 958 663 972 l 842 19 l 842 15 q 838 4 842 8 q 826 0 833 0 l 654 0 m 339 315 q 343 307 338 307 l 581 307 q 588 315 588 307 l 517 728 q 513 733 515 733 q 508 728 510 732 l 339 315 z "},"Ặ":{"ha":904,"x_min":8,"x_max":842,"o":"m 654 0 q 639 14 642 0 l 615 150 q 614 153 615 151 q 610 156 613 156 l 278 156 q 271 150 274 156 l 214 14 q 196 0 210 0 l 24 0 q 12 6 15 0 q 13 19 8 11 l 419 958 q 439 972 426 972 l 650 972 q 667 958 663 972 l 842 19 l 842 15 q 838 4 842 8 q 826 0 833 0 l 654 0 m 339 315 q 343 307 338 307 l 581 307 q 588 315 588 307 l 517 728 q 513 733 515 733 q 508 728 510 732 l 339 315 m 388 -300 q 324 -276 349 -300 q 299 -212 299 -251 q 331 -125 299 -158 q 414 -92 364 -92 q 478 -116 454 -92 q 503 -179 503 -140 q 469 -265 503 -231 q 388 -300 436 -300 m 550 1043 q 412 1087 465 1043 q 358 1199 358 1131 q 375 1218 358 1218 l 456 1217 q 471 1201 468 1217 q 498 1154 472 1172 q 563 1136 524 1136 q 632 1154 601 1136 q 672 1203 663 1172 q 690 1218 676 1218 l 768 1218 q 781 1215 776 1218 q 782 1204 785 1211 q 703 1089 768 1135 q 550 1043 638 1043 z "},"Ằ":{"ha":904,"x_min":8,"x_max":842,"o":"m 654 0 q 639 14 642 0 l 615 150 q 614 153 615 151 q 610 156 613 156 l 278 156 q 271 150 274 156 l 214 14 q 196 0 210 0 l 24 0 q 12 6 15 0 q 13 19 8 11 l 419 958 q 439 972 426 972 l 650 972 q 667 958 663 972 l 842 19 l 842 15 q 838 4 842 8 q 826 0 833 0 l 654 0 m 339 315 q 343 307 338 307 l 581 307 q 588 315 588 307 l 517 728 q 513 733 515 733 q 508 728 510 732 l 339 315 z "},"Ẳ":{"ha":904,"x_min":8,"x_max":842,"o":"m 654 0 q 639 14 642 0 l 615 150 q 614 153 615 151 q 610 156 613 156 l 278 156 q 271 150 274 156 l 214 14 q 196 0 210 0 l 24 0 q 12 6 15 0 q 13 19 8 11 l 419 958 q 439 972 426 972 l 650 972 q 667 958 663 972 l 842 19 l 842 15 q 838 4 842 8 q 826 0 833 0 l 654 0 m 339 315 q 343 307 338 307 l 581 307 q 588 315 588 307 l 517 728 q 513 733 515 733 q 508 728 510 732 l 339 315 z "},"Ẵ":{"ha":904,"x_min":8,"x_max":842,"o":"m 654 0 q 639 14 642 0 l 615 150 q 614 153 615 151 q 610 156 613 156 l 278 156 q 271 150 274 156 l 214 14 q 196 0 210 0 l 24 0 q 12 6 15 0 q 13 19 8 11 l 419 958 q 439 972 426 972 l 650 972 q 667 958 663 972 l 842 19 l 842 15 q 838 4 842 8 q 826 0 833 0 l 654 0 m 339 315 q 343 307 338 307 l 581 307 q 588 315 588 307 l 517 728 q 513 733 515 733 q 508 728 510 732 l 339 315 m 654 1249 q 615 1254 631 1249 q 578 1271 599 1260 q 546 1286 558 1282 q 521 1290 533 1290 q 457 1267 485 1290 q 433 1265 442 1253 l 394 1315 q 389 1326 389 1321 q 394 1339 389 1333 q 453 1392 418 1372 q 526 1413 488 1413 q 565 1407 549 1413 q 594 1394 581 1401 q 613 1385 607 1388 q 642 1369 631 1374 q 668 1364 654 1364 q 728 1390 701 1364 q 742 1397 738 1397 q 751 1392 747 1397 l 786 1340 q 788 1321 793 1329 q 733 1269 768 1289 q 654 1249 697 1249 m 550 1043 q 412 1087 465 1043 q 358 1199 358 1131 q 375 1218 358 1218 l 456 1217 q 471 1201 468 1217 q 498 1154 472 1172 q 563 1136 524 1136 q 632 1154 601 1136 q 672 1203 663 1172 q 690 1218 676 1218 l 768 1218 q 780 1215 776 1218 q 782 1204 783 1211 q 703 1089 768 1135 q 550 1043 638 1043 z "},"Ǎ":{"ha":904,"x_min":8,"x_max":842,"o":"m 654 0 q 639 14 642 0 l 615 150 q 614 153 615 151 q 610 156 613 156 l 278 156 q 271 150 274 156 l 214 14 q 196 0 210 0 l 24 0 q 12 6 15 0 q 13 19 8 11 l 419 958 q 439 972 426 972 l 650 972 q 667 958 663 972 l 842 19 l 842 15 q 838 4 842 8 q 826 0 833 0 l 654 0 m 339 315 q 343 307 338 307 l 581 307 q 588 315 588 307 l 517 728 q 513 733 515 733 q 508 728 510 732 l 339 315 z "},"Â":{"ha":904,"x_min":8,"x_max":842,"o":"m 654 0 q 639 14 642 0 l 615 150 q 614 153 615 151 q 610 156 613 156 l 278 156 q 271 150 274 156 l 214 14 q 196 0 210 0 l 24 0 q 12 6 15 0 q 13 19 8 11 l 419 958 q 439 972 426 972 l 650 972 q 667 958 663 972 l 842 19 l 842 15 q 838 4 842 8 q 826 0 833 0 l 654 0 m 339 315 q 343 307 338 307 l 581 307 q 588 315 588 307 l 517 728 q 513 733 515 733 q 508 728 510 732 l 339 315 m 354 1053 q 342 1063 342 1053 q 346 1074 342 1068 l 463 1219 q 482 1231 469 1231 l 661 1231 q 679 1219 674 1231 l 764 1074 q 767 1065 767 1068 q 762 1056 767 1060 q 750 1053 757 1053 l 629 1053 q 611 1064 615 1053 l 568 1149 q 560 1149 564 1157 l 496 1064 q 475 1053 488 1053 l 354 1053 z "},"Ấ":{"ha":904,"x_min":8,"x_max":1031,"o":"m 654 0 q 639 14 642 0 l 615 150 q 614 153 615 151 q 610 156 613 156 l 278 156 q 271 150 274 156 l 214 14 q 196 0 210 0 l 24 0 q 12 6 15 0 q 13 19 8 11 l 419 958 q 439 972 426 972 l 650 972 q 667 958 663 972 l 842 19 l 842 15 q 838 4 842 8 q 826 0 833 0 l 654 0 m 339 315 q 343 307 338 307 l 581 307 q 588 315 588 307 l 517 728 q 513 733 515 733 q 508 728 510 732 l 339 315 z "},"Ậ":{"ha":904,"x_min":8,"x_max":842,"o":"m 654 0 q 639 14 642 0 l 615 150 q 614 153 615 151 q 610 156 613 156 l 278 156 q 271 150 274 156 l 214 14 q 196 0 210 0 l 24 0 q 12 6 15 0 q 13 19 8 11 l 419 958 q 439 972 426 972 l 650 972 q 667 958 663 972 l 842 19 l 842 15 q 838 4 842 8 q 826 0 833 0 l 654 0 m 339 315 q 343 307 338 307 l 581 307 q 588 315 588 307 l 517 728 q 513 733 515 733 q 508 728 510 732 l 339 315 m 388 -300 q 324 -276 349 -300 q 299 -212 299 -251 q 331 -125 299 -158 q 414 -92 364 -92 q 478 -116 454 -92 q 503 -179 503 -140 q 469 -265 503 -231 q 388 -300 436 -300 m 354 1053 q 342 1063 342 1053 q 346 1074 342 1068 l 463 1219 q 482 1231 469 1231 l 661 1231 q 679 1219 674 1231 l 764 1074 q 767 1065 767 1068 q 762 1056 767 1060 q 750 1053 757 1053 l 629 1053 q 611 1064 615 1053 l 568 1149 q 560 1149 564 1157 l 496 1064 q 475 1053 488 1053 l 354 1053 z "},"Ầ":{"ha":904,"x_min":8,"x_max":893,"o":"m 654 0 q 639 14 642 0 l 615 150 q 614 153 615 151 q 610 156 613 156 l 278 156 q 271 150 274 156 l 214 14 q 196 0 210 0 l 24 0 q 12 6 15 0 q 13 19 8 11 l 419 958 q 439 972 426 972 l 650 972 q 667 958 663 972 l 842 19 l 842 15 q 838 4 842 8 q 826 0 833 0 l 654 0 m 339 315 q 343 307 338 307 l 581 307 q 588 315 588 307 l 517 728 q 513 733 515 733 q 508 728 510 732 l 339 315 z "},"Ẩ":{"ha":904,"x_min":8,"x_max":936,"o":"m 654 0 q 639 14 642 0 l 615 150 q 614 153 615 151 q 610 156 613 156 l 278 156 q 271 150 274 156 l 214 14 q 196 0 210 0 l 24 0 q 12 6 15 0 q 13 19 8 11 l 419 958 q 439 972 426 972 l 650 972 q 667 958 663 972 l 842 19 l 842 15 q 838 4 842 8 q 826 0 833 0 l 654 0 m 339 315 q 343 307 338 307 l 581 307 q 588 315 588 307 l 517 728 q 513 733 515 733 q 508 728 510 732 l 339 315 z "},"Ẫ":{"ha":904,"x_min":8,"x_max":842,"o":"m 654 0 q 639 14 642 0 l 615 150 q 614 153 615 151 q 610 156 613 156 l 278 156 q 271 150 274 156 l 214 14 q 196 0 210 0 l 24 0 q 12 6 15 0 q 13 19 8 11 l 419 958 q 439 972 426 972 l 650 972 q 667 958 663 972 l 842 19 l 842 15 q 838 4 842 8 q 826 0 833 0 l 654 0 m 339 315 q 343 307 338 307 l 581 307 q 588 315 588 307 l 517 728 q 513 733 515 733 q 508 728 510 732 l 339 315 z "},"Ä":{"ha":904,"x_min":8,"x_max":842,"o":"m 654 0 q 639 14 642 0 l 615 150 q 614 153 615 151 q 610 156 613 156 l 278 156 q 271 150 274 156 l 214 14 q 196 0 210 0 l 24 0 q 12 6 15 0 q 13 19 8 11 l 419 958 q 439 972 426 972 l 650 972 q 667 958 663 972 l 842 19 l 842 15 q 838 4 842 8 q 826 0 833 0 l 654 0 m 339 315 q 343 307 338 307 l 581 307 q 588 315 588 307 l 517 728 q 513 733 515 733 q 508 728 510 732 l 339 315 z "},"Ạ":{"ha":904,"x_min":8,"x_max":842,"o":"m 654 0 q 639 14 642 0 l 615 150 q 614 153 615 151 q 610 156 613 156 l 278 156 q 271 150 274 156 l 214 14 q 196 0 210 0 l 24 0 q 12 6 15 0 q 13 19 8 11 l 419 958 q 439 972 426 972 l 650 972 q 667 958 663 972 l 842 19 l 842 15 q 838 4 842 8 q 826 0 833 0 l 654 0 m 339 315 q 343 307 338 307 l 581 307 q 588 315 588 307 l 517 728 q 513 733 515 733 q 508 728 510 732 l 339 315 m 388 -300 q 324 -276 349 -300 q 299 -212 299 -251 q 331 -125 299 -158 q 414 -92 364 -92 q 478 -116 454 -92 q 503 -179 503 -140 q 469 -265 503 -231 q 388 -300 436 -300 z "},"À":{"ha":904,"x_min":8,"x_max":842,"o":"m 654 0 q 639 14 642 0 l 615 150 q 614 153 615 151 q 610 156 613 156 l 278 156 q 271 150 274 156 l 214 14 q 196 0 210 0 l 24 0 q 12 6 15 0 q 13 19 8 11 l 419 958 q 439 972 426 972 l 650 972 q 667 958 663 972 l 842 19 l 842 15 q 838 4 842 8 q 826 0 833 0 l 654 0 m 339 315 q 343 307 338 307 l 581 307 q 588 315 588 307 l 517 728 q 513 733 515 733 q 508 728 510 732 l 339 315 m 624 1078 q 625 1071 625 1075 q 621 1062 625 1065 q 611 1058 617 1058 l 497 1058 q 481 1069 485 1058 l 401 1210 q 399 1218 399 1215 q 403 1227 399 1224 q 415 1231 408 1231 l 551 1231 q 569 1218 565 1231 l 624 1078 z "},"Ả":{"ha":904,"x_min":8,"x_max":842,"o":"m 654 0 q 639 14 642 0 l 615 150 q 614 153 615 151 q 610 156 613 156 l 278 156 q 271 150 274 156 l 214 14 q 196 0 210 0 l 24 0 q 12 6 15 0 q 13 19 8 11 l 419 958 q 439 972 426 972 l 650 972 q 667 958 663 972 l 842 19 l 842 15 q 838 4 842 8 q 826 0 833 0 l 654 0 m 339 315 q 343 307 338 307 l 581 307 q 588 315 588 307 l 517 728 q 513 733 515 733 q 508 728 510 732 l 339 315 m 532 1038 q 522 1058 514 1042 q 575 1126 542 1096 q 599 1155 592 1144 q 607 1183 606 1165 q 599 1207 608 1197 q 574 1217 589 1217 q 542 1208 556 1217 q 508 1175 529 1200 q 496 1167 503 1168 q 483 1171 489 1165 l 442 1206 q 436 1217 436 1210 q 442 1229 436 1224 q 508 1292 475 1274 q 590 1311 542 1311 q 678 1283 646 1311 q 710 1203 710 1254 q 694 1137 710 1163 q 646 1082 678 1111 q 604 1038 615 1054 q 582 1026 594 1024 l 532 1038 z "},"Ā":{"ha":904,"x_min":8,"x_max":842,"o":"m 654 0 q 639 14 642 0 l 615 150 q 614 153 615 151 q 610 156 613 156 l 278 156 q 271 150 274 156 l 214 14 q 196 0 210 0 l 24 0 q 12 6 15 0 q 13 19 8 11 l 419 958 q 439 972 426 972 l 650 972 q 667 958 663 972 l 842 19 l 842 15 q 838 4 842 8 q 826 0 833 0 l 654 0 m 339 315 q 343 307 338 307 l 581 307 q 588 315 588 307 l 517 728 q 513 733 515 733 q 508 728 510 732 l 339 315 m 371 1061 q 360 1066 364 1061 q 357 1078 356 1071 l 369 1176 q 376 1188 371 1183 q 388 1193 381 1193 l 751 1193 q 763 1188 758 1193 q 765 1176 767 1183 l 753 1078 q 747 1066 751 1071 q 735 1061 742 1061 l 371 1061 z "},"Ą":{"ha":904,"x_min":8,"x_max":842,"o":"m 654 0 q 639 14 642 0 l 615 150 q 614 153 615 151 q 610 156 613 156 l 278 156 q 271 150 274 156 l 214 14 q 196 0 210 0 l 24 0 q 12 6 15 0 q 13 19 8 11 l 419 958 q 439 972 426 972 l 650 972 q 667 958 663 972 l 842 19 l 842 15 q 838 4 842 8 q 826 0 833 0 l 654 0 m 339 315 q 343 307 338 307 l 581 307 q 588 315 588 307 l 517 728 q 513 733 515 733 q 508 728 510 732 l 339 315 m 826 -233 q 813 -253 826 -249 q 726 -268 769 -268 q 650 -247 682 -268 q 611 -179 618 -226 l 610 -162 q 704 -7 610 -79 q 725 0 715 0 l 813 0 q 824 -7 824 0 q 815 -21 824 -12 q 740 -119 740 -74 q 752 -147 740 -137 q 782 -157 764 -157 q 807 -153 794 -157 q 815 -151 810 -151 q 825 -164 825 -151 l 826 -233 z "},"Å":{"ha":904,"x_min":8,"x_max":842,"o":"m 654 0 q 639 14 642 0 l 615 150 q 614 153 615 151 q 610 156 613 156 l 278 156 q 271 150 274 156 l 214 14 q 196 0 210 0 l 24 0 q 12 6 15 0 q 13 19 8 11 l 419 958 q 439 972 426 972 l 650 972 q 667 958 663 972 l 842 19 l 842 15 q 838 4 842 8 q 826 0 833 0 l 654 0 m 339 315 q 343 307 338 307 l 581 307 q 588 315 588 307 l 517 728 q 513 733 515 733 q 508 728 510 732 l 339 315 m 550 1040 q 443 1083 485 1040 q 401 1190 401 1125 q 428 1288 401 1243 q 498 1358 454 1332 q 593 1385 542 1385 q 699 1343 657 1385 q 740 1236 740 1301 q 715 1138 740 1183 q 644 1067 689 1093 q 550 1040 600 1040 m 564 1143 q 617 1167 593 1143 q 640 1222 640 1190 q 623 1266 640 1249 q 581 1283 606 1283 q 526 1260 550 1283 q 503 1204 503 1238 q 520 1160 503 1178 q 564 1143 538 1143 z "},"Ã":{"ha":904,"x_min":8,"x_max":842,"o":"m 654 0 q 639 14 642 0 l 615 150 q 614 153 615 151 q 610 156 613 156 l 278 156 q 271 150 274 156 l 214 14 q 196 0 210 0 l 24 0 q 12 6 15 0 q 13 19 8 11 l 419 958 q 439 972 426 972 l 650 972 q 667 958 663 972 l 842 19 l 842 15 q 838 4 842 8 q 826 0 833 0 l 654 0 m 339 315 q 343 307 338 307 l 581 307 q 588 315 588 307 l 517 728 q 513 733 515 733 q 508 728 510 732 l 339 315 m 639 1054 q 592 1060 611 1054 q 551 1079 574 1067 q 513 1098 525 1093 q 486 1103 500 1103 q 410 1072 443 1103 q 397 1065 403 1065 q 388 1071 392 1065 l 340 1132 q 335 1144 335 1140 q 339 1156 335 1150 q 407 1218 367 1194 q 493 1242 447 1242 q 537 1235 518 1242 q 571 1220 556 1228 q 590 1210 586 1213 q 626 1190 614 1196 q 654 1185 639 1185 q 724 1218 694 1185 q 736 1225 729 1225 q 746 1219 742 1225 l 789 1157 q 790 1138 796 1146 q 728 1077 768 1100 q 639 1054 688 1054 z "},"Æ":{"ha":1293,"x_min":11,"x_max":1333,"o":"m 1317 821 q 1310 809 1315 814 q 1297 804 1304 804 l 869 804 q 861 797 864 804 l 835 582 q 842 575 835 575 l 1118 575 q 1130 570 1125 575 q 1133 558 1135 565 l 1117 424 q 1110 412 1115 417 q 1099 407 1106 407 l 821 407 q 813 400 815 407 l 785 175 q 792 168 785 168 l 1219 168 q 1231 163 1226 168 q 1233 151 1235 158 l 1217 17 q 1211 5 1217 10 q 1199 0 1206 0 l 590 0 q 579 5 583 0 q 576 17 575 10 l 592 149 q 586 156 594 156 l 313 156 q 304 150 307 156 l 221 13 q 201 0 215 0 l 26 0 q 15 5 18 0 q 17 19 11 10 l 594 960 q 615 972 603 972 l 1318 972 q 1329 967 1325 972 q 1332 956 1333 963 l 1317 821 m 404 315 q 403 309 401 311 q 408 307 404 307 l 606 307 q 610 309 608 307 q 613 314 613 311 l 664 732 q 662 738 665 738 q 656 733 658 738 l 404 315 z "},"B":{"ha":835,"x_min":56,"x_max":818,"o":"m 676 507 q 675 499 668 503 q 779 315 779 442 q 776 272 779 303 q 662 69 760 138 q 421 0 564 0 l 71 0 q 60 5 64 0 q 57 17 56 10 l 172 956 q 178 967 174 963 q 190 972 183 972 l 529 972 q 818 754 818 972 q 815 706 818 722 q 676 507 800 568 m 350 804 q 345 802 347 804 q 343 797 343 800 l 317 581 q 322 574 314 574 l 481 574 q 582 603 543 574 q 628 688 621 633 l 629 704 q 598 778 629 751 q 508 804 567 804 l 350 804 m 442 169 q 549 208 510 169 q 589 313 589 246 q 558 388 589 361 q 469 414 526 414 l 303 414 q 296 407 296 414 l 267 176 q 272 169 267 169 l 442 169 z "},"C":{"ha":819,"x_min":74,"x_max":819,"o":"m 385 -11 q 157 67 240 -11 q 74 275 74 144 q 76 326 74 308 l 115 647 q 181 824 128 747 q 318 942 233 900 q 507 983 403 983 q 735 908 651 983 q 819 708 819 833 q 817 663 819 693 q 799 647 814 649 l 640 638 l 638 638 q 626 653 624 638 q 628 676 628 661 q 590 778 628 740 q 486 815 551 815 q 365 770 414 815 q 307 653 315 725 l 265 318 q 264 294 264 310 q 301 194 264 232 q 406 157 339 157 q 526 201 478 157 q 585 318 575 246 q 603 333 588 333 l 760 326 q 771 323 767 326 q 774 313 775 319 q 710 143 763 217 q 573 29 657 69 q 385 -11 489 -11 z "},"Ć":{"ha":819,"x_min":74,"x_max":819,"o":"m 385 -11 q 157 67 240 -11 q 74 275 74 144 q 76 326 74 308 l 115 647 q 181 824 128 747 q 318 942 233 900 q 507 983 403 983 q 735 908 651 983 q 819 708 819 833 q 817 663 819 693 q 799 647 814 649 l 640 638 l 638 638 q 626 653 624 638 q 628 676 628 661 q 590 778 628 740 q 486 815 551 815 q 365 770 414 815 q 307 653 315 725 l 265 318 q 264 294 264 310 q 301 194 264 232 q 406 157 339 157 q 526 201 478 157 q 585 318 575 246 q 603 333 588 333 l 760 326 q 771 323 767 326 q 774 313 775 319 q 710 143 763 217 q 573 29 657 69 q 385 -11 489 -11 m 442 1058 q 429 1067 429 1058 q 433 1078 429 1072 l 522 1218 q 543 1231 528 1231 l 679 1231 q 692 1221 692 1231 q 688 1210 692 1217 l 575 1069 q 554 1058 567 1058 l 442 1058 z "},"Č":{"ha":819,"x_min":74,"x_max":819,"o":"m 385 -11 q 157 67 240 -11 q 74 275 74 144 q 76 326 74 308 l 115 647 q 181 824 128 747 q 318 942 233 900 q 507 983 403 983 q 735 908 651 983 q 819 708 819 833 q 817 663 819 693 q 799 647 814 649 l 640 638 l 638 638 q 626 653 624 638 q 628 676 628 661 q 590 778 628 740 q 486 815 551 815 q 365 770 414 815 q 307 653 315 725 l 265 318 q 264 294 264 310 q 301 194 264 232 q 406 157 339 157 q 526 201 478 157 q 585 318 575 246 q 603 333 588 333 l 760 326 q 771 323 767 326 q 774 313 775 319 q 710 143 763 217 q 573 29 657 69 q 385 -11 489 -11 m 335 1210 q 332 1218 332 1215 q 336 1227 332 1224 q 347 1231 340 1231 l 469 1231 q 486 1219 482 1231 l 531 1135 q 538 1135 533 1125 l 603 1219 q 622 1231 610 1231 l 744 1231 q 757 1221 757 1231 q 753 1210 757 1217 l 632 1063 q 611 1053 624 1053 l 432 1053 q 415 1064 419 1053 l 335 1210 z "},"Ç":{"ha":819,"x_min":74,"x_max":819,"o":"m 817 656 q 799 647 814 649 l 640 638 l 638 638 q 626 653 624 638 q 628 676 628 661 q 590 778 628 740 q 486 815 551 815 q 365 770 414 815 q 307 653 315 725 l 265 318 q 264 294 264 310 q 301 194 264 232 q 406 157 339 157 q 526 201 478 157 q 585 318 575 246 q 603 333 588 333 l 760 326 q 771 323 767 326 q 774 313 775 319 q 665 92 757 179 q 435 -8 572 6 q 431 -18 425 -11 q 472 -119 472 -64 q 463 -169 472 -146 q 407 -237 444 -217 q 324 -258 369 -258 q 243 -243 282 -258 q 233 -224 231 -239 l 251 -154 q 274 -143 256 -136 q 299 -147 286 -147 q 335 -135 319 -147 q 350 -97 350 -122 q 289 -3 350 -53 q 282 1 289 -1 q 128 98 183 26 q 74 275 74 169 q 76 326 74 308 l 115 647 q 181 824 128 747 q 318 942 233 900 q 507 983 403 983 q 735 908 651 983 q 819 708 819 833 q 817 663 819 693 l 817 656 z "},"Ĉ":{"ha":819,"x_min":74,"x_max":819,"o":"m 385 -11 q 157 67 240 -11 q 74 275 74 144 q 76 326 74 308 l 115 647 q 181 824 128 747 q 318 942 233 900 q 507 983 403 983 q 735 908 651 983 q 819 708 819 833 q 817 663 819 693 q 799 647 814 649 l 640 638 l 638 638 q 626 653 624 638 q 628 676 628 661 q 590 778 628 740 q 486 815 551 815 q 365 770 414 815 q 307 653 315 725 l 265 318 q 264 294 264 310 q 301 194 264 232 q 406 157 339 157 q 526 201 478 157 q 585 318 575 246 q 603 333 588 333 l 760 326 q 771 323 767 326 q 774 313 775 319 q 710 143 763 217 q 573 29 657 69 q 385 -11 489 -11 m 318 1053 q 306 1063 306 1053 q 310 1074 306 1068 l 426 1219 q 446 1231 433 1231 l 625 1231 q 643 1219 638 1231 l 728 1074 q 731 1065 731 1068 q 726 1056 731 1060 q 714 1053 721 1053 l 593 1053 q 575 1064 579 1053 l 532 1149 q 524 1149 528 1157 l 460 1064 q 439 1053 451 1053 l 318 1053 z "},"Ċ":{"ha":819,"x_min":74,"x_max":819,"o":"m 385 -11 q 157 67 240 -11 q 74 275 74 144 q 76 326 74 308 l 115 647 q 181 824 128 747 q 318 942 233 900 q 507 983 403 983 q 735 908 651 983 q 819 708 819 833 q 817 663 819 693 q 799 647 814 649 l 640 638 l 638 638 q 626 653 624 638 q 628 676 628 661 q 590 778 628 740 q 486 815 551 815 q 365 770 414 815 q 307 653 315 725 l 265 318 q 264 294 264 310 q 301 194 264 232 q 406 157 339 157 q 526 201 478 157 q 585 318 575 246 q 603 333 588 333 l 760 326 q 771 323 767 326 q 774 313 775 319 q 710 143 763 217 q 573 29 657 69 q 385 -11 489 -11 m 514 1053 q 446 1080 472 1053 q 419 1149 419 1107 q 455 1237 419 1201 q 542 1272 490 1272 q 610 1247 585 1272 q 636 1178 636 1221 q 600 1089 636 1125 q 514 1053 564 1053 z "},"D":{"ha":832,"x_min":56,"x_max":831,"o":"m 71 0 q 60 5 64 0 q 57 17 56 10 l 172 956 q 178 967 174 963 q 190 972 183 972 l 528 972 q 749 903 667 972 q 831 719 831 835 q 828 678 831 706 l 781 294 q 721 140 771 207 q 590 37 671 74 q 408 0 508 0 l 71 0 m 267 175 q 272 168 267 168 l 436 168 q 542 211 499 168 q 594 326 585 254 l 635 646 q 636 672 636 656 q 603 769 636 733 q 513 804 571 804 l 350 804 q 345 802 347 804 q 343 797 343 800 l 267 175 z "},"Ð":{"ha":901,"x_min":110,"x_max":901,"o":"m 596 972 q 819 903 738 972 q 901 717 901 833 q 899 678 901 706 l 851 294 q 790 140 840 207 q 659 37 740 74 q 476 0 578 0 l 140 0 q 129 5 133 0 q 126 17 125 10 l 176 428 q 171 435 176 435 l 125 435 q 114 440 118 435 q 111 451 110 444 l 124 551 q 129 563 124 558 q 142 568 135 568 l 188 568 q 194 575 194 568 l 242 956 q 248 967 243 963 q 260 972 253 972 l 596 972 m 704 646 q 706 675 706 656 q 673 769 706 735 q 582 804 640 804 l 419 804 q 411 797 414 804 l 385 575 q 390 568 382 568 l 499 568 q 510 563 506 568 q 513 551 514 558 l 500 451 q 494 440 499 444 q 482 435 489 435 l 374 435 q 367 428 367 435 l 335 175 q 342 168 335 168 l 506 168 q 611 211 567 168 q 665 326 656 254 l 704 646 z "},"Ď":{"ha":832,"x_min":56,"x_max":831,"o":"m 71 0 q 60 5 64 0 q 57 17 56 10 l 172 956 q 178 967 174 963 q 190 972 183 972 l 528 972 q 749 903 667 972 q 831 719 831 835 q 828 678 831 706 l 781 294 q 721 140 771 207 q 590 37 671 74 q 408 0 508 0 l 71 0 m 267 175 q 272 168 267 168 l 436 168 q 542 211 499 168 q 594 326 585 254 l 635 646 q 636 672 636 656 q 603 769 636 733 q 513 804 571 804 l 350 804 q 345 802 347 804 q 343 797 343 800 l 267 175 z "},"Đ":{"ha":901,"x_min":110,"x_max":901,"o":"m 596 972 q 819 903 738 972 q 901 717 901 833 q 899 678 901 706 l 851 294 q 790 140 840 207 q 659 37 740 74 q 476 0 578 0 l 140 0 q 129 5 133 0 q 126 17 125 10 l 176 428 q 171 435 176 435 l 125 435 q 114 440 118 435 q 111 451 110 444 l 124 551 q 129 563 124 558 q 142 568 135 568 l 188 568 q 194 575 194 568 l 242 956 q 248 967 243 963 q 260 972 253 972 l 596 972 m 704 646 q 706 675 706 656 q 673 769 706 735 q 582 804 640 804 l 419 804 q 411 797 414 804 l 385 575 q 390 568 382 568 l 499 568 q 510 563 506 568 q 513 551 514 558 l 500 451 q 494 440 499 444 q 482 435 489 435 l 374 435 q 367 428 367 435 l 335 175 q 342 168 335 168 l 506 168 q 611 211 567 168 q 665 326 656 254 l 704 646 z "},"E":{"ha":788,"x_min":56,"x_max":829,"o":"m 811 821 q 805 809 810 814 q 793 804 800 804 l 350 804 q 345 802 347 804 q 343 797 343 800 l 317 582 q 322 575 317 575 l 613 575 q 624 570 619 575 q 626 558 628 565 l 610 424 q 603 412 608 417 q 592 407 599 407 l 301 407 q 294 400 294 407 l 267 175 q 272 168 267 168 l 714 168 q 729 151 729 168 l 713 17 q 706 5 711 10 q 694 0 701 0 l 71 0 q 60 5 64 0 q 57 17 56 10 l 172 956 q 178 967 174 963 q 190 972 183 972 l 813 972 q 824 967 819 972 q 828 956 829 963 l 811 821 z "},"É":{"ha":788,"x_min":56,"x_max":829,"o":"m 811 821 q 805 809 810 814 q 793 804 800 804 l 350 804 q 345 802 347 804 q 343 797 343 800 l 317 582 q 322 575 317 575 l 613 575 q 624 570 619 575 q 626 558 628 565 l 610 424 q 603 412 608 417 q 592 407 599 407 l 301 407 q 294 400 294 407 l 267 175 q 272 168 267 168 l 714 168 q 729 151 729 168 l 713 17 q 706 5 711 10 q 694 0 701 0 l 71 0 q 60 5 64 0 q 57 17 56 10 l 172 956 q 178 967 174 963 q 190 972 183 972 l 813 972 q 824 967 819 972 q 828 956 829 963 l 811 821 m 433 1058 q 421 1067 421 1058 q 425 1078 421 1072 l 514 1218 q 535 1231 519 1231 l 671 1231 q 683 1221 683 1231 q 679 1210 683 1217 l 567 1069 q 546 1058 558 1058 l 433 1058 z "},"Ě":{"ha":788,"x_min":56,"x_max":829,"o":"m 811 821 q 805 809 810 814 q 793 804 800 804 l 350 804 q 345 802 347 804 q 343 797 343 800 l 317 582 q 322 575 317 575 l 613 575 q 624 570 619 575 q 626 558 628 565 l 610 424 q 603 412 608 417 q 592 407 599 407 l 301 407 q 294 400 294 407 l 267 175 q 272 168 267 168 l 714 168 q 729 151 729 168 l 713 17 q 706 5 711 10 q 694 0 701 0 l 71 0 q 60 5 64 0 q 57 17 56 10 l 172 956 q 178 967 174 963 q 190 972 183 972 l 813 972 q 824 967 819 972 q 828 956 829 963 l 811 821 m 328 1210 q 325 1218 325 1215 q 329 1227 325 1224 q 340 1231 333 1231 l 463 1231 q 479 1219 475 1231 l 524 1135 q 531 1135 526 1125 l 596 1219 q 615 1231 603 1231 l 738 1231 q 750 1221 750 1231 q 746 1210 750 1217 l 625 1063 q 604 1053 617 1053 l 425 1053 q 408 1064 413 1053 l 328 1210 z "},"Ȩ":{"ha":788,"x_min":56,"x_max":829,"o":"m 811 821 q 805 809 810 814 q 793 804 800 804 l 350 804 q 345 802 347 804 q 343 797 343 800 l 317 582 q 322 575 317 575 l 613 575 q 624 570 619 575 q 626 558 628 565 l 610 424 q 603 412 608 417 q 592 407 599 407 l 301 407 q 294 400 294 407 l 267 175 q 272 168 267 168 l 714 168 q 729 151 729 168 l 713 17 q 706 5 711 10 q 694 0 701 0 l 474 0 q 469 -3 471 0 q 469 -8 467 -6 q 510 -107 510 -57 q 499 -158 510 -132 q 443 -226 481 -206 q 361 -247 406 -247 q 281 -232 319 -247 q 271 -211 267 -228 l 289 -143 q 310 -131 293 -126 q 336 -135 322 -135 q 383 -104 371 -135 q 388 -85 388 -94 q 339 -3 388 -47 q 332 0 333 0 l 71 0 q 60 5 64 0 q 57 17 56 10 l 172 956 q 178 967 174 963 q 190 972 183 972 l 813 972 q 824 967 819 972 q 828 956 829 963 l 811 821 z "},"Ê":{"ha":788,"x_min":56,"x_max":829,"o":"m 811 821 q 805 809 810 814 q 793 804 800 804 l 350 804 q 345 802 347 804 q 343 797 343 800 l 317 582 q 322 575 317 575 l 613 575 q 624 570 619 575 q 626 558 628 565 l 610 424 q 603 412 608 417 q 592 407 599 407 l 301 407 q 294 400 294 407 l 267 175 q 272 168 267 168 l 714 168 q 729 151 729 168 l 713 17 q 706 5 711 10 q 694 0 701 0 l 71 0 q 60 5 64 0 q 57 17 56 10 l 172 956 q 178 967 174 963 q 190 972 183 972 l 813 972 q 824 967 819 972 q 828 956 829 963 l 811 821 m 311 1053 q 299 1063 299 1053 q 303 1074 299 1068 l 419 1219 q 439 1231 426 1231 l 618 1231 q 636 1219 631 1231 l 721 1074 q 724 1065 724 1068 q 719 1056 724 1060 q 707 1053 714 1053 l 586 1053 q 568 1064 572 1053 l 525 1149 q 517 1149 521 1157 l 453 1064 q 432 1053 444 1053 l 311 1053 z "},"Ế":{"ha":788,"x_min":56,"x_max":988,"o":"m 811 821 q 805 809 810 814 q 793 804 800 804 l 350 804 q 345 802 347 804 q 343 797 343 800 l 317 582 q 322 575 317 575 l 613 575 q 624 570 619 575 q 626 558 628 565 l 610 424 q 603 412 608 417 q 592 407 599 407 l 301 407 q 294 400 294 407 l 267 175 q 272 168 267 168 l 714 168 q 729 151 729 168 l 713 17 q 706 5 711 10 q 694 0 701 0 l 71 0 q 60 5 64 0 q 57 17 56 10 l 172 956 q 178 967 174 963 q 190 972 183 972 l 813 972 q 824 967 819 972 q 828 956 829 963 l 811 821 z "},"Ệ":{"ha":788,"x_min":56,"x_max":829,"o":"m 811 821 q 805 809 810 814 q 793 804 800 804 l 350 804 q 345 802 347 804 q 343 797 343 800 l 317 582 q 322 575 317 575 l 613 575 q 624 570 619 575 q 626 558 628 565 l 610 424 q 603 412 608 417 q 592 407 599 407 l 301 407 q 294 400 294 407 l 267 175 q 272 168 267 168 l 714 168 q 729 151 729 168 l 713 17 q 706 5 711 10 q 694 0 701 0 l 71 0 q 60 5 64 0 q 57 17 56 10 l 172 956 q 178 967 174 963 q 190 972 183 972 l 813 972 q 824 967 819 972 q 828 956 829 963 l 811 821 m 351 -300 q 288 -276 313 -300 q 263 -212 263 -251 q 295 -125 263 -158 q 378 -92 328 -92 q 442 -116 418 -92 q 467 -179 467 -140 q 433 -265 467 -231 q 351 -300 400 -300 m 311 1053 q 299 1063 299 1053 q 303 1074 299 1068 l 419 1219 q 439 1231 426 1231 l 618 1231 q 636 1219 631 1231 l 721 1074 q 724 1065 724 1068 q 719 1056 724 1060 q 707 1053 714 1053 l 586 1053 q 568 1064 572 1053 l 525 1149 q 517 1149 521 1157 l 453 1064 q 432 1053 444 1053 l 311 1053 z "},"Ề":{"ha":788,"x_min":56,"x_max":850,"o":"m 811 821 q 805 809 810 814 q 793 804 800 804 l 350 804 q 345 802 347 804 q 343 797 343 800 l 317 582 q 322 575 317 575 l 613 575 q 624 570 619 575 q 626 558 628 565 l 610 424 q 603 412 608 417 q 592 407 599 407 l 301 407 q 294 400 294 407 l 267 175 q 272 168 267 168 l 714 168 q 729 151 729 168 l 713 17 q 706 5 711 10 q 694 0 701 0 l 71 0 q 60 5 64 0 q 57 17 56 10 l 172 956 q 178 967 174 963 q 190 972 183 972 l 813 972 q 824 967 819 972 q 828 956 829 963 l 811 821 z "},"Ể":{"ha":788,"x_min":56,"x_max":893,"o":"m 811 821 q 805 809 810 814 q 793 804 800 804 l 350 804 q 345 802 347 804 q 343 797 343 800 l 317 582 q 322 575 317 575 l 613 575 q 624 570 619 575 q 626 558 628 565 l 610 424 q 603 412 608 417 q 592 407 599 407 l 301 407 q 294 400 294 407 l 267 175 q 272 168 267 168 l 714 168 q 729 151 729 168 l 713 17 q 706 5 711 10 q 694 0 701 0 l 71 0 q 60 5 64 0 q 57 17 56 10 l 172 956 q 178 967 174 963 q 190 972 183 972 l 813 972 q 824 967 819 972 q 828 956 829 963 l 811 821 z "},"Ễ":{"ha":788,"x_min":56,"x_max":829,"o":"m 811 821 q 805 809 810 814 q 793 804 800 804 l 350 804 q 345 802 347 804 q 343 797 343 800 l 317 582 q 322 575 317 575 l 613 575 q 624 570 619 575 q 626 558 628 565 l 610 424 q 603 412 608 417 q 592 407 599 407 l 301 407 q 294 400 294 407 l 267 175 q 272 168 267 168 l 714 168 q 729 151 729 168 l 713 17 q 706 5 711 10 q 694 0 701 0 l 71 0 q 60 5 64 0 q 57 17 56 10 l 172 956 q 178 967 174 963 q 190 972 183 972 l 813 972 q 824 967 819 972 q 828 956 829 963 l 811 821 z "},"Ë":{"ha":788,"x_min":56,"x_max":829,"o":"m 811 821 q 805 809 810 814 q 793 804 800 804 l 350 804 q 345 802 347 804 q 343 797 343 800 l 317 582 q 322 575 317 575 l 613 575 q 624 570 619 575 q 626 558 628 565 l 610 424 q 603 412 608 417 q 592 407 599 407 l 301 407 q 294 400 294 407 l 267 175 q 272 168 267 168 l 714 168 q 729 151 729 168 l 713 17 q 706 5 711 10 q 694 0 701 0 l 71 0 q 60 5 64 0 q 57 17 56 10 l 172 956 q 178 967 174 963 q 190 972 183 972 l 813 972 q 824 967 819 972 q 828 956 829 963 l 811 821 z "},"Ė":{"ha":788,"x_min":56,"x_max":829,"o":"m 811 821 q 805 809 810 814 q 793 804 800 804 l 350 804 q 345 802 347 804 q 343 797 343 800 l 317 582 q 322 575 317 575 l 613 575 q 624 570 619 575 q 626 558 628 565 l 610 424 q 603 412 608 417 q 592 407 599 407 l 301 407 q 294 400 294 407 l 267 175 q 272 168 267 168 l 714 168 q 729 151 729 168 l 713 17 q 706 5 711 10 q 694 0 701 0 l 71 0 q 60 5 64 0 q 57 17 56 10 l 172 956 q 178 967 174 963 q 190 972 183 972 l 813 972 q 824 967 819 972 q 828 956 829 963 l 811 821 m 507 1053 q 439 1080 465 1053 q 413 1149 413 1107 q 448 1237 413 1201 q 535 1272 483 1272 q 603 1247 578 1272 q 629 1178 629 1221 q 593 1089 629 1125 q 507 1053 557 1053 z "},"Ẹ":{"ha":788,"x_min":56,"x_max":829,"o":"m 811 821 q 805 809 810 814 q 793 804 800 804 l 350 804 q 345 802 347 804 q 343 797 343 800 l 317 582 q 322 575 317 575 l 613 575 q 624 570 619 575 q 626 558 628 565 l 610 424 q 603 412 608 417 q 592 407 599 407 l 301 407 q 294 400 294 407 l 267 175 q 272 168 267 168 l 714 168 q 729 151 729 168 l 713 17 q 706 5 711 10 q 694 0 701 0 l 71 0 q 60 5 64 0 q 57 17 56 10 l 172 956 q 178 967 174 963 q 190 972 183 972 l 813 972 q 824 967 819 972 q 828 956 829 963 l 811 821 m 351 -300 q 288 -276 313 -300 q 263 -212 263 -251 q 295 -125 263 -158 q 378 -92 328 -92 q 442 -116 418 -92 q 467 -179 467 -140 q 433 -265 467 -231 q 351 -300 400 -300 z "},"È":{"ha":788,"x_min":56,"x_max":829,"o":"m 811 821 q 805 809 810 814 q 793 804 800 804 l 350 804 q 345 802 347 804 q 343 797 343 800 l 317 582 q 322 575 317 575 l 613 575 q 624 570 619 575 q 626 558 628 565 l 610 424 q 603 412 608 417 q 592 407 599 407 l 301 407 q 294 400 294 407 l 267 175 q 272 168 267 168 l 714 168 q 729 151 729 168 l 713 17 q 706 5 711 10 q 694 0 701 0 l 71 0 q 60 5 64 0 q 57 17 56 10 l 172 956 q 178 967 174 963 q 190 972 183 972 l 813 972 q 824 967 819 972 q 828 956 829 963 l 811 821 m 581 1078 q 582 1071 582 1075 q 578 1062 582 1065 q 568 1058 574 1058 l 454 1058 q 438 1069 442 1058 l 358 1210 q 356 1218 356 1215 q 360 1227 356 1224 q 372 1231 365 1231 l 508 1231 q 526 1218 522 1231 l 581 1078 z "},"Ẻ":{"ha":788,"x_min":56,"x_max":829,"o":"m 811 821 q 805 809 810 814 q 793 804 800 804 l 350 804 q 345 802 347 804 q 343 797 343 800 l 317 582 q 322 575 317 575 l 613 575 q 624 570 619 575 q 626 558 628 565 l 610 424 q 603 412 608 417 q 592 407 599 407 l 301 407 q 294 400 294 407 l 267 175 q 272 168 267 168 l 714 168 q 729 151 729 168 l 713 17 q 706 5 711 10 q 694 0 701 0 l 71 0 q 60 5 64 0 q 57 17 56 10 l 172 956 q 178 967 174 963 q 190 972 183 972 l 813 972 q 824 967 819 972 q 828 956 829 963 l 811 821 m 489 1038 q 479 1058 471 1042 q 532 1126 499 1096 q 556 1155 549 1144 q 564 1183 563 1165 q 556 1207 565 1197 q 531 1217 546 1217 q 499 1208 513 1217 q 465 1175 486 1200 q 453 1167 460 1168 q 440 1171 446 1165 l 399 1206 q 393 1217 393 1210 q 399 1229 393 1224 q 465 1292 432 1274 q 547 1311 499 1311 q 635 1283 603 1311 q 667 1203 667 1254 q 651 1137 667 1163 q 603 1082 635 1111 q 561 1038 572 1054 q 539 1026 551 1024 l 489 1038 z "},"Ē":{"ha":788,"x_min":56,"x_max":829,"o":"m 811 821 q 805 809 810 814 q 793 804 800 804 l 350 804 q 345 802 347 804 q 343 797 343 800 l 317 582 q 322 575 317 575 l 613 575 q 624 570 619 575 q 626 558 628 565 l 610 424 q 603 412 608 417 q 592 407 599 407 l 301 407 q 294 400 294 407 l 267 175 q 272 168 267 168 l 714 168 q 729 151 729 168 l 713 17 q 706 5 711 10 q 694 0 701 0 l 71 0 q 60 5 64 0 q 57 17 56 10 l 172 956 q 178 967 174 963 q 190 972 183 972 l 813 972 q 824 967 819 972 q 828 956 829 963 l 811 821 m 328 1061 q 317 1066 321 1061 q 314 1078 313 1071 l 326 1176 q 333 1188 328 1183 q 344 1193 338 1193 l 708 1193 q 719 1188 715 1193 q 722 1176 724 1183 l 710 1078 q 703 1066 708 1071 q 692 1061 699 1061 l 328 1061 z "},"Ę":{"ha":788,"x_min":56,"x_max":829,"o":"m 811 821 q 805 809 810 814 q 793 804 800 804 l 350 804 q 345 802 347 804 q 343 797 343 800 l 317 582 q 322 575 317 575 l 613 575 q 624 570 619 575 q 626 558 628 565 l 610 424 q 603 412 608 417 q 592 407 599 407 l 301 407 q 294 400 294 407 l 267 175 q 272 168 267 168 l 714 168 q 729 151 729 168 l 713 17 q 706 5 711 10 q 694 0 701 0 l 450 0 q 442 -3 447 0 q 389 -52 408 -26 q 369 -100 369 -78 q 381 -128 369 -118 q 411 -137 393 -137 q 436 -133 424 -137 q 444 -132 439 -132 q 456 -144 456 -132 l 456 -214 q 442 -233 456 -229 q 357 -249 401 -249 q 273 -224 307 -249 q 239 -142 239 -199 q 308 -8 239 -74 q 313 -3 314 -6 q 307 0 311 0 l 71 0 q 60 5 64 0 q 57 17 56 10 l 172 956 q 178 967 174 963 q 190 972 183 972 l 813 972 q 824 967 819 972 q 828 956 829 963 l 811 821 z "},"Ẽ":{"ha":788,"x_min":56,"x_max":829,"o":"m 811 821 q 805 809 810 814 q 793 804 800 804 l 350 804 q 345 802 347 804 q 343 797 343 800 l 317 582 q 322 575 317 575 l 613 575 q 624 570 619 575 q 626 558 628 565 l 610 424 q 603 412 608 417 q 592 407 599 407 l 301 407 q 294 400 294 407 l 267 175 q 272 168 267 168 l 714 168 q 729 151 729 168 l 713 17 q 706 5 711 10 q 694 0 701 0 l 71 0 q 60 5 64 0 q 57 17 56 10 l 172 956 q 178 967 174 963 q 190 972 183 972 l 813 972 q 824 967 819 972 q 828 956 829 963 l 811 821 m 594 1054 q 548 1060 567 1054 q 507 1079 529 1067 q 468 1098 481 1093 q 442 1103 456 1103 q 365 1072 399 1103 q 353 1065 358 1065 q 343 1071 347 1065 l 296 1132 q 290 1144 290 1140 q 294 1156 290 1150 q 363 1218 322 1194 q 449 1242 403 1242 q 492 1235 474 1242 q 526 1220 511 1228 q 546 1210 542 1213 q 582 1190 569 1196 q 610 1185 594 1185 q 679 1218 650 1185 q 692 1225 685 1225 q 701 1219 697 1225 l 744 1157 q 746 1138 751 1146 q 683 1077 724 1100 q 594 1054 643 1054 z "},"F":{"ha":754,"x_min":56,"x_max":828,"o":"m 810 821 q 803 809 808 814 q 792 804 799 804 l 350 804 q 345 802 347 804 q 343 797 343 800 l 317 582 q 322 575 317 575 l 613 575 q 624 570 619 575 q 626 558 628 565 l 610 424 q 603 412 608 417 q 592 407 599 407 l 301 407 q 294 400 294 407 l 247 17 q 241 5 246 10 q 229 0 236 0 l 71 0 q 60 5 64 0 q 57 17 56 10 l 172 956 q 178 967 174 963 q 190 972 183 972 l 813 972 q 824 967 819 972 q 826 956 828 963 l 810 821 z "},"G":{"ha":825,"x_min":74,"x_max":819,"o":"m 385 -11 q 158 68 242 -11 q 74 279 74 147 q 76 331 74 313 l 115 642 q 181 821 128 743 q 318 941 233 899 q 507 983 403 983 q 672 948 601 983 q 781 850 743 913 q 819 708 819 788 q 817 669 819 694 l 815 660 q 809 648 814 653 q 797 643 804 643 l 639 643 q 628 648 632 643 q 625 660 624 653 l 626 664 q 628 683 628 671 q 590 778 628 742 q 486 815 553 815 q 365 769 414 815 q 306 647 315 722 l 267 325 q 265 300 265 317 q 306 197 265 236 q 413 157 347 157 q 529 195 483 157 q 583 301 575 233 l 592 364 q 586 371 592 371 l 435 371 q 424 376 428 371 q 421 388 419 381 l 436 515 q 442 527 438 522 q 454 532 447 532 l 783 532 q 794 527 790 532 q 797 515 799 522 l 775 332 q 649 81 756 172 q 385 -11 543 -11 z "},"Ğ":{"ha":824,"x_min":74,"x_max":819,"o":"m 385 -11 q 158 68 242 -11 q 74 279 74 147 q 76 331 74 313 l 115 642 q 181 821 128 743 q 318 941 233 899 q 507 983 403 983 q 672 948 601 983 q 781 850 743 913 q 819 708 819 788 q 817 669 819 694 l 815 660 q 809 648 814 653 q 797 643 804 643 l 639 643 q 628 648 632 643 q 625 660 624 653 l 626 664 q 628 683 628 671 q 590 778 628 742 q 486 815 553 815 q 365 769 414 815 q 306 647 315 722 l 267 325 q 265 300 265 317 q 306 197 265 236 q 413 157 347 157 q 529 195 483 157 q 583 301 575 233 l 592 364 q 586 371 592 371 l 435 371 q 424 376 428 371 q 421 388 419 381 l 436 515 q 442 527 438 522 q 454 532 447 532 l 783 532 q 794 527 790 532 q 797 515 799 522 l 775 332 q 649 81 756 172 q 385 -11 543 -11 m 513 1040 q 372 1086 425 1040 q 321 1206 318 1132 q 338 1222 321 1222 l 428 1222 q 443 1207 440 1222 q 468 1160 446 1178 q 525 1142 490 1142 q 587 1160 560 1142 q 624 1207 614 1178 q 642 1222 628 1222 l 732 1222 q 742 1218 739 1222 q 744 1208 746 1214 q 665 1088 729 1135 q 513 1040 600 1040 z "},"Ĝ":{"ha":824,"x_min":74,"x_max":819,"o":"m 385 -11 q 158 68 242 -11 q 74 279 74 147 q 76 331 74 313 l 115 642 q 181 821 128 743 q 318 941 233 899 q 507 983 403 983 q 672 948 601 983 q 781 850 743 913 q 819 708 819 788 q 817 669 819 694 l 815 660 q 809 648 814 653 q 797 643 804 643 l 639 643 q 628 648 632 643 q 625 660 624 653 l 626 664 q 628 683 628 671 q 590 778 628 742 q 486 815 553 815 q 365 769 414 815 q 306 647 315 722 l 267 325 q 265 300 265 317 q 306 197 265 236 q 413 157 347 157 q 529 195 483 157 q 583 301 575 233 l 592 364 q 586 371 592 371 l 435 371 q 424 376 428 371 q 421 388 419 381 l 436 515 q 442 527 438 522 q 454 532 447 532 l 783 532 q 794 527 790 532 q 797 515 799 522 l 775 332 q 649 81 756 172 q 385 -11 543 -11 m 318 1060 q 306 1069 306 1060 q 310 1081 306 1075 l 426 1226 q 446 1238 433 1238 l 625 1238 q 643 1226 638 1238 l 728 1081 q 731 1072 731 1075 q 726 1063 731 1067 q 714 1060 721 1060 l 593 1060 q 575 1071 579 1060 l 532 1156 q 524 1156 528 1164 l 460 1071 q 439 1060 451 1060 l 318 1060 z "},"Ġ":{"ha":824,"x_min":74,"x_max":819,"o":"m 385 -11 q 158 68 242 -11 q 74 279 74 147 q 76 331 74 313 l 115 642 q 181 821 128 743 q 318 941 233 899 q 507 983 403 983 q 672 948 601 983 q 781 850 743 913 q 819 708 819 788 q 817 669 819 694 l 815 660 q 809 648 814 653 q 797 643 804 643 l 639 643 q 628 648 632 643 q 625 660 624 653 l 626 664 q 628 683 628 671 q 590 778 628 742 q 486 815 553 815 q 365 769 414 815 q 306 647 315 722 l 267 325 q 265 300 265 317 q 306 197 265 236 q 413 157 347 157 q 529 195 483 157 q 583 301 575 233 l 592 364 q 586 371 592 371 l 435 371 q 424 376 428 371 q 421 388 419 381 l 436 515 q 442 527 438 522 q 454 532 447 532 l 783 532 q 794 527 790 532 q 797 515 799 522 l 775 332 q 649 81 756 172 q 385 -11 543 -11 m 514 1060 q 446 1087 472 1060 q 419 1156 419 1114 q 455 1244 419 1208 q 542 1279 490 1279 q 610 1253 585 1279 q 636 1185 636 1228 q 600 1096 636 1132 q 514 1060 564 1060 z "},"H":{"ha":846,"x_min":56,"x_max":865,"o":"m 674 956 q 680 967 675 963 q 692 972 685 972 l 850 972 q 861 967 857 972 q 864 956 865 963 l 749 17 q 742 5 747 10 q 731 0 738 0 l 572 0 q 561 5 565 0 q 558 17 557 10 l 606 400 q 600 407 606 407 l 301 407 q 294 400 294 407 l 247 17 q 241 5 246 10 q 229 0 236 0 l 71 0 q 60 5 64 0 q 57 17 56 10 l 172 956 q 178 967 174 963 q 190 972 183 972 l 349 972 q 360 967 356 972 q 363 956 364 963 l 317 582 q 322 575 317 575 l 621 575 q 628 582 628 575 l 674 956 z "},"Ħ":{"ha":846,"x_min":56,"x_max":926,"o":"m 911 836 q 922 831 918 836 q 925 819 926 826 l 913 721 q 907 709 913 714 q 894 704 901 704 l 839 704 q 834 702 836 704 q 832 697 832 700 l 749 17 q 742 5 747 10 q 731 0 738 0 l 572 0 q 561 5 565 0 q 558 17 557 10 l 606 400 q 600 407 606 407 l 301 407 q 294 400 294 407 l 247 17 q 241 5 246 10 q 229 0 236 0 l 71 0 q 60 5 64 0 q 57 17 56 10 l 140 697 q 135 704 143 704 l 79 704 q 68 709 72 704 q 65 721 64 714 l 78 819 q 84 831 79 826 q 96 836 89 836 l 151 836 q 158 843 158 836 l 172 956 q 178 967 174 963 q 190 972 183 972 l 349 972 q 360 967 356 972 q 363 956 364 963 l 349 843 q 354 836 349 836 l 653 836 q 660 843 660 836 l 674 956 q 680 967 675 963 q 692 972 685 972 l 850 972 q 861 967 857 972 q 864 956 865 963 l 850 843 q 856 836 850 836 l 911 836 m 621 575 q 628 582 628 575 l 642 697 q 636 704 644 704 l 339 704 q 331 697 333 704 l 317 582 q 322 575 317 575 l 621 575 z "},"Ĥ":{"ha":846,"x_min":56,"x_max":865,"o":"m 674 956 q 680 967 675 963 q 692 972 685 972 l 850 972 q 861 967 857 972 q 864 956 865 963 l 749 17 q 742 5 747 10 q 731 0 738 0 l 572 0 q 561 5 565 0 q 558 17 557 10 l 606 400 q 600 407 606 407 l 301 407 q 294 400 294 407 l 247 17 q 241 5 246 10 q 229 0 236 0 l 71 0 q 60 5 64 0 q 57 17 56 10 l 172 956 q 178 967 174 963 q 190 972 183 972 l 349 972 q 360 967 356 972 q 363 956 364 963 l 317 582 q 322 575 317 575 l 621 575 q 628 582 628 575 l 674 956 m 335 1054 q 322 1064 322 1054 q 326 1075 322 1069 l 443 1221 q 463 1232 450 1232 l 642 1232 q 660 1221 654 1232 l 744 1075 q 747 1067 747 1069 q 742 1058 747 1061 q 731 1054 738 1054 l 610 1054 q 592 1065 596 1054 l 549 1150 q 540 1150 544 1158 l 476 1065 q 456 1054 468 1054 l 335 1054 z "},"I":{"ha":354,"x_min":56,"x_max":364,"o":"m 71 0 q 60 5 64 0 q 57 17 56 10 l 172 956 q 178 967 174 963 q 190 972 183 972 l 349 972 q 360 967 356 972 q 363 956 364 963 l 247 17 q 241 5 246 10 q 229 0 236 0 l 71 0 z "},"Í":{"ha":354,"x_min":56,"x_max":456,"o":"m 71 0 q 60 5 64 0 q 57 17 56 10 l 172 956 q 178 967 174 963 q 190 972 183 972 l 349 972 q 360 967 356 972 q 363 956 364 963 l 247 17 q 241 5 246 10 q 229 0 236 0 l 71 0 m 206 1058 q 193 1067 193 1058 q 197 1078 193 1072 l 286 1218 q 307 1231 292 1231 l 443 1231 q 456 1221 456 1231 q 451 1210 456 1217 l 339 1069 q 318 1058 331 1058 l 206 1058 z "},"Î":{"ha":354,"x_min":56,"x_max":494,"o":"m 71 0 q 60 5 64 0 q 57 17 56 10 l 172 956 q 178 967 174 963 q 190 972 183 972 l 349 972 q 360 967 356 972 q 363 956 364 963 l 247 17 q 241 5 246 10 q 229 0 236 0 l 71 0 m 82 1053 q 69 1063 69 1053 q 74 1074 69 1068 l 190 1219 q 210 1231 197 1231 l 389 1231 q 407 1219 401 1231 l 492 1074 q 494 1065 494 1068 q 490 1056 494 1060 q 478 1053 485 1053 l 357 1053 q 339 1064 343 1053 l 296 1149 q 288 1149 292 1157 l 224 1064 q 203 1053 215 1053 l 82 1053 z "},"Ï":{"ha":354,"x_min":51,"x_max":536,"o":"m 71 0 q 60 5 64 0 q 57 17 56 10 l 172 956 q 178 967 174 963 q 190 972 183 972 l 349 972 q 360 967 356 972 q 363 956 364 963 l 247 17 q 241 5 246 10 q 229 0 236 0 l 71 0 z "},"İ":{"ha":354,"x_min":56,"x_max":401,"o":"m 71 0 q 60 5 64 0 q 57 17 56 10 l 172 956 q 178 967 174 963 q 190 972 183 972 l 349 972 q 360 967 356 972 q 363 956 364 963 l 247 17 q 241 5 246 10 q 229 0 236 0 l 71 0 m 279 1053 q 211 1080 238 1053 q 185 1149 185 1107 q 220 1237 185 1201 q 307 1272 256 1272 q 376 1247 350 1272 q 401 1178 401 1221 q 365 1089 401 1125 q 279 1053 329 1053 z "},"Ị":{"ha":354,"x_min":24,"x_max":364,"o":"m 71 0 q 60 5 64 0 q 57 17 56 10 l 172 956 q 178 967 174 963 q 190 972 183 972 l 349 972 q 360 967 356 972 q 363 956 364 963 l 247 17 q 241 5 246 10 q 229 0 236 0 l 71 0 m 113 -300 q 49 -276 74 -300 q 24 -212 24 -251 q 56 -125 24 -158 q 139 -92 89 -92 q 203 -116 179 -92 q 228 -179 228 -140 q 194 -265 228 -231 q 113 -300 161 -300 z "},"Ì":{"ha":354,"x_min":56,"x_max":364,"o":"m 71 0 q 60 5 64 0 q 57 17 56 10 l 172 956 q 178 967 174 963 q 190 972 183 972 l 349 972 q 360 967 356 972 q 363 956 364 963 l 247 17 q 241 5 246 10 q 229 0 236 0 l 71 0 m 351 1078 q 353 1071 353 1075 q 349 1062 353 1065 q 339 1058 344 1058 l 225 1058 q 208 1069 213 1058 l 129 1210 q 126 1218 126 1215 q 131 1227 126 1224 q 143 1231 136 1231 l 279 1231 q 297 1218 293 1231 l 351 1078 z "},"Ỉ":{"ha":354,"x_min":56,"x_max":438,"o":"m 71 0 q 60 5 64 0 q 57 17 56 10 l 172 956 q 178 967 174 963 q 190 972 183 972 l 349 972 q 360 967 356 972 q 363 956 364 963 l 247 17 q 241 5 246 10 q 229 0 236 0 l 71 0 m 260 1038 q 250 1058 242 1042 q 303 1126 269 1096 q 326 1155 319 1144 q 335 1183 333 1165 q 326 1207 336 1197 q 301 1217 317 1217 q 270 1208 283 1217 q 236 1175 257 1200 q 224 1167 231 1168 q 211 1171 217 1165 l 169 1206 q 164 1217 164 1210 q 169 1229 164 1224 q 236 1292 203 1274 q 318 1311 269 1311 q 406 1283 374 1311 q 438 1203 438 1254 q 422 1137 438 1163 q 374 1082 406 1111 q 332 1038 343 1054 q 310 1026 322 1024 l 260 1038 z "},"Ī":{"ha":354,"x_min":56,"x_max":494,"o":"m 71 0 q 60 5 64 0 q 57 17 56 10 l 172 956 q 178 967 174 963 q 190 972 183 972 l 349 972 q 360 967 356 972 q 363 956 364 963 l 247 17 q 241 5 246 10 q 229 0 236 0 l 71 0 m 99 1061 q 88 1066 92 1061 q 85 1078 83 1071 l 97 1176 q 103 1188 99 1183 q 115 1193 108 1193 l 479 1193 q 490 1188 486 1193 q 493 1176 494 1183 l 481 1078 q 474 1066 479 1071 q 463 1061 469 1061 l 99 1061 z "},"Į":{"ha":343,"x_min":3,"x_max":358,"o":"m 65 0 q 54 5 58 0 q 51 17 50 10 l 167 956 q 173 967 168 963 q 185 972 178 972 l 343 972 q 354 967 350 972 q 357 956 358 963 l 242 17 q 235 5 240 10 q 224 0 231 0 l 65 0 m 219 -233 q 206 -253 219 -249 q 119 -268 163 -268 q 43 -247 75 -268 q 4 -179 11 -226 l 3 -162 q 97 -7 3 -79 q 118 0 107 0 l 206 0 q 217 -7 217 0 q 208 -21 217 -12 q 133 -119 133 -74 q 145 -147 133 -137 q 175 -157 157 -157 q 200 -153 188 -157 q 208 -151 203 -151 q 218 -164 218 -151 l 219 -233 z "},"Ĩ":{"ha":354,"x_min":56,"x_max":524,"o":"m 71 0 q 60 5 64 0 q 57 17 56 10 l 172 956 q 178 967 174 963 q 190 972 183 972 l 349 972 q 360 967 356 972 q 363 956 364 963 l 247 17 q 241 5 246 10 q 229 0 236 0 l 71 0 m 367 1054 q 320 1060 339 1054 q 279 1079 301 1067 q 240 1098 253 1093 q 214 1103 228 1103 q 138 1072 171 1103 q 125 1065 131 1065 q 115 1071 119 1065 l 68 1132 q 63 1144 63 1140 q 67 1156 63 1150 q 135 1218 94 1194 q 221 1242 175 1242 q 265 1235 246 1242 q 299 1220 283 1228 q 318 1210 314 1213 q 354 1190 342 1196 q 382 1185 367 1185 q 451 1218 422 1185 q 464 1225 457 1225 q 474 1219 469 1225 l 517 1157 q 518 1138 524 1146 q 456 1077 496 1100 q 367 1054 415 1054 z "},"J":{"ha":786,"x_min":33,"x_max":794,"o":"m 336 -11 q 115 62 196 -11 q 33 258 33 135 q 36 306 33 272 l 47 393 q 53 405 49 400 q 65 410 58 410 l 222 410 q 238 393 238 410 l 226 306 q 225 281 225 297 q 260 190 225 224 q 356 157 294 157 q 469 198 422 157 q 525 306 517 239 l 606 956 q 611 967 606 963 q 624 972 617 972 l 779 972 q 790 967 786 972 q 793 956 794 963 l 714 306 q 651 140 703 211 q 517 28 599 68 q 336 -11 435 -11 z "},"Ĵ":{"ha":786,"x_min":33,"x_max":928,"o":"m 336 -11 q 115 62 196 -11 q 33 258 33 135 q 36 306 33 272 l 47 393 q 53 405 49 400 q 65 410 58 410 l 222 410 q 238 393 238 410 l 226 306 q 225 281 225 297 q 260 190 225 224 q 356 157 294 157 q 469 198 422 157 q 525 306 517 239 l 606 956 q 611 967 606 963 q 624 972 617 972 l 779 972 q 790 967 786 972 q 793 956 794 963 l 714 306 q 651 140 703 211 q 517 28 599 68 q 336 -11 435 -11 m 515 1054 q 503 1064 503 1054 q 507 1075 503 1069 l 624 1221 q 643 1232 631 1232 l 822 1232 q 840 1221 835 1232 l 925 1075 q 928 1067 928 1069 q 923 1058 928 1061 q 911 1054 918 1054 l 790 1054 q 772 1065 776 1054 l 729 1150 q 721 1150 725 1158 l 657 1065 q 636 1054 649 1054 l 515 1054 z "},"K":{"ha":843,"x_min":56,"x_max":896,"o":"m 71 0 q 60 5 64 0 q 57 17 56 10 l 172 956 q 178 967 174 963 q 190 972 183 972 l 349 972 q 360 967 356 972 q 363 956 364 963 l 315 567 q 317 562 314 563 q 322 564 319 561 l 683 963 q 704 972 692 972 l 882 972 q 896 963 896 972 q 890 951 896 957 l 542 556 q 539 546 536 550 l 792 19 q 793 11 793 17 q 779 0 793 0 l 601 0 q 583 11 588 0 l 393 411 q 389 414 392 414 q 383 411 386 414 l 285 301 l 281 293 l 247 17 q 241 5 246 10 q 229 0 236 0 l 71 0 z "},"L":{"ha":771,"x_min":56,"x_max":728,"o":"m 71 0 q 60 5 64 0 q 57 17 56 10 l 172 956 q 178 967 174 963 q 190 972 183 972 l 349 972 q 360 967 356 972 q 363 956 364 963 l 267 175 q 272 168 267 168 l 713 168 q 728 151 728 168 l 711 17 q 705 5 710 10 q 693 0 700 0 l 71 0 z "},"Ĺ":{"ha":771,"x_min":56,"x_max":728,"o":"m 71 0 q 60 5 64 0 q 57 17 56 10 l 172 956 q 178 967 174 963 q 190 972 183 972 l 349 972 q 360 967 356 972 q 363 956 364 963 l 267 175 q 272 168 267 168 l 713 168 q 728 151 728 168 l 711 17 q 705 5 710 10 q 693 0 700 0 l 71 0 m 204 1058 q 192 1067 192 1058 q 196 1078 192 1072 l 285 1218 q 306 1231 290 1231 l 442 1231 q 454 1221 454 1231 q 450 1210 454 1217 l 338 1069 q 317 1058 329 1058 l 204 1058 z "},"Ľ":{"ha":771,"x_min":56,"x_max":728,"o":"m 71 0 q 60 5 64 0 q 57 17 56 10 l 172 956 q 178 967 174 963 q 190 972 183 972 l 349 972 q 360 967 356 972 q 363 956 364 963 l 267 175 q 272 168 267 168 l 713 168 q 728 151 728 168 l 711 17 q 705 5 710 10 q 693 0 700 0 l 71 0 z "},"Ļ":{"ha":771,"x_min":56,"x_max":728,"o":"m 71 0 q 60 5 64 0 q 57 17 56 10 l 172 956 q 178 967 174 963 q 190 972 183 972 l 349 972 q 360 967 356 972 q 363 956 364 963 l 267 175 q 272 168 267 168 l 713 168 q 728 151 728 168 l 711 17 q 705 5 710 10 q 693 0 700 0 l 71 0 z "},"Ł":{"ha":871,"x_min":-17,"x_max":829,"o":"m 368 175 q 374 168 365 168 l 814 168 q 825 163 821 168 q 828 151 829 158 l 811 17 q 806 5 811 10 q 793 0 800 0 l 172 0 q 161 5 165 0 q 158 17 157 10 l 189 268 q 188 274 190 272 q 182 272 185 275 l 69 186 q 58 181 61 181 q 47 188 51 181 l -14 275 q -17 285 -17 278 q -10 299 -17 293 l 210 469 q 215 478 215 472 l 274 956 q 280 967 275 963 q 292 972 285 972 l 450 972 q 461 967 457 972 q 464 956 465 963 l 426 647 q 428 642 425 643 q 433 643 431 640 l 706 854 q 718 860 714 860 q 728 853 724 860 l 789 765 q 793 754 793 760 q 785 742 793 749 l 406 446 q 400 438 400 443 l 368 175 z "},"M":{"ha":963,"x_min":56,"x_max":972,"o":"m 779 961 q 800 972 788 972 l 957 972 q 968 967 964 972 q 971 956 972 963 l 856 17 q 850 5 856 10 q 838 0 844 0 l 681 0 q 669 5 674 0 q 667 17 665 10 l 742 629 q 739 635 742 635 q 733 631 736 635 l 563 400 q 542 389 554 389 l 463 389 q 446 400 450 389 l 331 631 q 326 634 329 635 q 322 628 324 633 l 247 17 q 241 5 246 10 q 229 0 236 0 l 71 0 q 60 5 64 0 q 57 17 56 10 l 172 956 q 178 967 174 963 q 190 972 183 972 l 349 972 q 365 961 361 972 l 528 638 q 536 638 532 629 l 779 961 z "},"N":{"ha":897,"x_min":56,"x_max":906,"o":"m 714 956 q 720 967 715 963 q 732 972 725 972 l 890 972 q 901 967 897 972 q 904 956 906 963 l 789 17 q 783 5 788 10 q 771 0 778 0 l 618 0 q 601 11 606 0 l 325 606 q 321 609 324 610 q 317 603 318 608 l 247 17 q 241 5 246 10 q 229 0 236 0 l 71 0 q 60 5 64 0 q 57 17 56 10 l 172 956 q 178 967 174 963 q 190 972 183 972 l 343 972 q 361 961 356 972 l 636 369 q 640 366 638 365 q 644 372 643 367 l 714 956 z "},"Ń":{"ha":896,"x_min":56,"x_max":906,"o":"m 714 956 q 720 967 715 963 q 732 972 725 972 l 890 972 q 901 967 897 972 q 904 956 906 963 l 789 17 q 783 5 788 10 q 771 0 778 0 l 618 0 q 601 11 606 0 l 325 606 q 321 609 324 610 q 317 603 318 608 l 247 17 q 241 5 246 10 q 229 0 236 0 l 71 0 q 60 5 64 0 q 57 17 56 10 l 172 956 q 178 967 174 963 q 190 972 183 972 l 343 972 q 361 961 356 972 l 636 369 q 640 366 638 365 q 644 372 643 367 l 714 956 m 467 1058 q 454 1067 454 1058 q 458 1078 454 1072 l 547 1218 q 568 1231 553 1231 l 704 1231 q 717 1221 717 1231 q 713 1210 717 1217 l 600 1069 q 579 1058 592 1058 l 467 1058 z "},"Ň":{"ha":896,"x_min":56,"x_max":906,"o":"m 714 956 q 720 967 715 963 q 732 972 725 972 l 890 972 q 901 967 897 972 q 904 956 906 963 l 789 17 q 783 5 788 10 q 771 0 778 0 l 618 0 q 601 11 606 0 l 325 606 q 321 609 324 610 q 317 603 318 608 l 247 17 q 241 5 246 10 q 229 0 236 0 l 71 0 q 60 5 64 0 q 57 17 56 10 l 172 956 q 178 967 174 963 q 190 972 183 972 l 343 972 q 361 961 356 972 l 636 369 q 640 366 638 365 q 644 372 643 367 l 714 956 m 360 1210 q 357 1218 357 1215 q 361 1227 357 1224 q 372 1231 365 1231 l 494 1231 q 511 1219 507 1231 l 556 1135 q 563 1135 558 1125 l 628 1219 q 647 1231 635 1231 l 769 1231 q 782 1221 782 1231 q 778 1210 782 1217 l 657 1063 q 636 1053 649 1053 l 457 1053 q 440 1064 444 1053 l 360 1210 z "},"Ŋ":{"ha":896,"x_min":56,"x_max":906,"o":"m 714 956 q 720 967 715 963 q 732 972 725 972 l 890 972 q 901 967 897 972 q 904 956 906 963 l 786 0 q 734 -156 771 -101 q 626 -234 697 -211 q 431 -254 554 -257 q 417 -237 414 -254 l 433 -107 q 451 -92 436 -89 q 556 -71 525 -94 q 599 13 588 -47 l 597 21 l 325 606 q 321 609 324 610 q 317 603 318 608 l 247 17 q 241 5 246 10 q 229 0 236 0 l 71 0 q 60 5 64 0 q 57 17 56 10 l 172 956 q 178 967 174 963 q 190 972 183 972 l 343 972 q 361 961 356 972 l 635 371 q 639 367 636 367 q 643 374 642 368 l 714 956 z "},"Ñ":{"ha":896,"x_min":56,"x_max":906,"o":"m 714 956 q 720 967 715 963 q 732 972 725 972 l 890 972 q 901 967 897 972 q 904 956 906 963 l 789 17 q 783 5 788 10 q 771 0 778 0 l 618 0 q 601 11 606 0 l 325 606 q 321 609 324 610 q 317 603 318 608 l 247 17 q 241 5 246 10 q 229 0 236 0 l 71 0 q 60 5 64 0 q 57 17 56 10 l 172 956 q 178 967 174 963 q 190 972 183 972 l 343 972 q 361 961 356 972 l 636 369 q 640 366 638 365 q 644 372 643 367 l 714 956 m 628 1054 q 581 1060 600 1054 q 540 1079 563 1067 q 501 1098 514 1093 q 475 1103 489 1103 q 399 1072 432 1103 q 386 1065 392 1065 q 376 1071 381 1065 l 329 1132 q 324 1144 324 1140 q 328 1156 324 1150 q 396 1218 356 1194 q 482 1242 436 1242 q 526 1235 507 1242 q 560 1220 544 1228 q 579 1210 575 1213 q 615 1190 603 1196 q 643 1185 628 1185 q 713 1218 683 1185 q 725 1225 718 1225 q 735 1219 731 1225 l 778 1157 q 779 1138 785 1146 q 717 1077 757 1100 q 628 1054 676 1054 z "},"O":{"ha":838,"x_min":74,"x_max":828,"o":"m 389 -15 q 159 66 244 -15 q 74 283 74 147 q 78 338 74 308 l 114 635 q 181 817 126 738 q 320 940 235 896 q 511 983 406 983 q 742 903 657 983 q 828 689 828 822 q 824 635 828 663 l 788 338 q 721 153 775 233 q 581 29 667 74 q 389 -15 494 -15 m 410 153 q 535 201 485 153 q 597 331 586 250 l 635 636 q 636 665 636 646 q 597 775 636 735 q 490 815 558 815 q 365 766 417 815 q 304 636 314 717 l 267 331 q 265 301 265 321 q 304 193 265 233 q 410 153 343 153 z "},"Ó":{"ha":838,"x_min":74,"x_max":828,"o":"m 389 -15 q 159 66 244 -15 q 74 283 74 147 q 78 338 74 308 l 114 635 q 181 817 126 738 q 320 940 235 896 q 511 983 406 983 q 742 903 657 983 q 828 689 828 822 q 824 635 828 663 l 788 338 q 721 153 775 233 q 581 29 667 74 q 389 -15 494 -15 m 410 153 q 535 201 485 153 q 597 331 586 250 l 635 636 q 636 665 636 646 q 597 775 636 735 q 490 815 558 815 q 365 766 417 815 q 304 636 314 717 l 267 331 q 265 301 265 321 q 304 193 265 233 q 410 153 343 153 m 446 1058 q 433 1067 433 1058 q 438 1078 433 1072 l 526 1218 q 547 1231 532 1231 l 683 1231 q 696 1221 696 1231 q 692 1210 696 1217 l 579 1069 q 558 1058 571 1058 l 446 1058 z "},"Ô":{"ha":838,"x_min":74,"x_max":828,"o":"m 389 -15 q 159 66 244 -15 q 74 283 74 147 q 78 338 74 308 l 114 635 q 181 817 126 738 q 320 940 235 896 q 511 983 406 983 q 742 903 657 983 q 828 689 828 822 q 824 635 828 663 l 788 338 q 721 153 775 233 q 581 29 667 74 q 389 -15 494 -15 m 410 153 q 535 201 485 153 q 597 331 586 250 l 635 636 q 636 665 636 646 q 597 775 636 735 q 490 815 558 815 q 365 766 417 815 q 304 636 314 717 l 267 331 q 265 301 265 321 q 304 193 265 233 q 410 153 343 153 m 322 1053 q 310 1063 310 1053 q 314 1074 310 1068 l 431 1219 q 450 1231 438 1231 l 629 1231 q 647 1219 642 1231 l 732 1074 q 735 1065 735 1068 q 730 1056 735 1060 q 718 1053 725 1053 l 597 1053 q 579 1064 583 1053 l 536 1149 q 528 1149 532 1157 l 464 1064 q 443 1053 456 1053 l 322 1053 z "},"Ố":{"ha":838,"x_min":74,"x_max":999,"o":"m 389 -15 q 159 66 244 -15 q 74 283 74 147 q 78 338 74 308 l 114 635 q 181 817 126 738 q 320 940 235 896 q 511 983 406 983 q 742 903 657 983 q 828 689 828 822 q 824 635 828 663 l 788 338 q 721 153 775 233 q 581 29 667 74 q 389 -15 494 -15 m 410 153 q 535 201 485 153 q 597 331 586 250 l 635 636 q 636 665 636 646 q 597 775 636 735 q 490 815 558 815 q 365 766 417 815 q 304 636 314 717 l 267 331 q 265 301 265 321 q 304 193 265 233 q 410 153 343 153 z "},"Ộ":{"ha":838,"x_min":74,"x_max":828,"o":"m 389 -15 q 159 66 244 -15 q 74 283 74 147 q 78 338 74 308 l 114 635 q 181 817 126 738 q 320 940 235 896 q 511 983 406 983 q 742 903 657 983 q 828 689 828 822 q 824 635 828 663 l 788 338 q 721 153 775 233 q 581 29 667 74 q 389 -15 494 -15 m 410 153 q 535 201 485 153 q 597 331 586 250 l 635 636 q 636 665 636 646 q 597 775 636 735 q 490 815 558 815 q 365 766 417 815 q 304 636 314 717 l 267 331 q 265 301 265 321 q 304 193 265 233 q 410 153 343 153 m 354 -300 q 290 -276 315 -300 q 265 -212 265 -251 q 298 -125 265 -158 q 381 -92 331 -92 q 445 -116 421 -92 q 469 -179 469 -140 q 436 -265 469 -231 q 354 -300 403 -300 m 322 1053 q 310 1063 310 1053 q 314 1074 310 1068 l 431 1219 q 450 1231 438 1231 l 629 1231 q 647 1219 642 1231 l 732 1074 q 735 1065 735 1068 q 730 1056 735 1060 q 718 1053 725 1053 l 597 1053 q 579 1064 583 1053 l 536 1149 q 528 1149 532 1157 l 464 1064 q 443 1053 456 1053 l 322 1053 z "},"Ồ":{"ha":838,"x_min":74,"x_max":861,"o":"m 389 -15 q 159 66 244 -15 q 74 283 74 147 q 78 338 74 308 l 114 635 q 181 817 126 738 q 320 940 235 896 q 511 983 406 983 q 742 903 657 983 q 828 689 828 822 q 824 635 828 663 l 788 338 q 721 153 775 233 q 581 29 667 74 q 389 -15 494 -15 m 410 153 q 535 201 485 153 q 597 331 586 250 l 635 636 q 636 665 636 646 q 597 775 636 735 q 490 815 558 815 q 365 766 417 815 q 304 636 314 717 l 267 331 q 265 301 265 321 q 304 193 265 233 q 410 153 343 153 z "},"Ổ":{"ha":838,"x_min":74,"x_max":904,"o":"m 389 -15 q 159 66 244 -15 q 74 283 74 147 q 78 338 74 308 l 114 635 q 181 817 126 738 q 320 940 235 896 q 511 983 406 983 q 742 903 657 983 q 828 689 828 822 q 824 635 828 663 l 788 338 q 721 153 775 233 q 581 29 667 74 q 389 -15 494 -15 m 410 153 q 535 201 485 153 q 597 331 586 250 l 635 636 q 636 665 636 646 q 597 775 636 735 q 490 815 558 815 q 365 766 417 815 q 304 636 314 717 l 267 331 q 265 301 265 321 q 304 193 265 233 q 410 153 343 153 z "},"Ỗ":{"ha":838,"x_min":74,"x_max":828,"o":"m 389 -15 q 159 66 244 -15 q 74 283 74 147 q 78 338 74 308 l 114 635 q 181 817 126 738 q 320 940 235 896 q 511 983 406 983 q 742 903 657 983 q 828 689 828 822 q 824 635 828 663 l 788 338 q 721 153 775 233 q 581 29 667 74 q 389 -15 494 -15 m 410 153 q 535 201 485 153 q 597 331 586 250 l 635 636 q 636 665 636 646 q 597 775 636 735 q 490 815 558 815 q 365 766 417 815 q 304 636 314 717 l 267 331 q 265 301 265 321 q 304 193 265 233 q 410 153 343 153 z "},"Ö":{"ha":838,"x_min":74,"x_max":828,"o":"m 389 -15 q 159 66 244 -15 q 74 283 74 147 q 78 338 74 308 l 114 635 q 181 817 126 738 q 320 940 235 896 q 511 983 406 983 q 742 903 657 983 q 828 689 828 822 q 824 635 828 663 l 788 338 q 721 153 775 233 q 581 29 667 74 q 389 -15 494 -15 m 410 153 q 535 201 485 153 q 597 331 586 250 l 635 636 q 636 665 636 646 q 597 775 636 735 q 490 815 558 815 q 365 766 417 815 q 304 636 314 717 l 267 331 q 265 301 265 321 q 304 193 265 233 q 410 153 343 153 z "},"Ọ":{"ha":838,"x_min":74,"x_max":828,"o":"m 389 -15 q 159 66 244 -15 q 74 283 74 147 q 78 338 74 308 l 114 635 q 181 817 126 738 q 320 940 235 896 q 511 983 406 983 q 742 903 657 983 q 828 689 828 822 q 824 635 828 663 l 788 338 q 721 153 775 233 q 581 29 667 74 q 389 -15 494 -15 m 410 153 q 535 201 485 153 q 597 331 586 250 l 635 636 q 636 665 636 646 q 597 775 636 735 q 490 815 558 815 q 365 766 417 815 q 304 636 314 717 l 267 331 q 265 301 265 321 q 304 193 265 233 q 410 153 343 153 m 354 -300 q 290 -276 315 -300 q 265 -212 265 -251 q 298 -125 265 -158 q 381 -92 331 -92 q 445 -116 421 -92 q 469 -179 469 -140 q 436 -265 469 -231 q 354 -300 403 -300 z "},"Ò":{"ha":838,"x_min":74,"x_max":828,"o":"m 389 -15 q 159 66 244 -15 q 74 283 74 147 q 78 338 74 308 l 114 635 q 181 817 126 738 q 320 940 235 896 q 511 983 406 983 q 742 903 657 983 q 828 689 828 822 q 824 635 828 663 l 788 338 q 721 153 775 233 q 581 29 667 74 q 389 -15 494 -15 m 410 153 q 535 201 485 153 q 597 331 586 250 l 635 636 q 636 665 636 646 q 597 775 636 735 q 490 815 558 815 q 365 766 417 815 q 304 636 314 717 l 267 331 q 265 301 265 321 q 304 193 265 233 q 410 153 343 153 m 592 1078 q 593 1071 593 1075 q 589 1062 593 1065 q 579 1058 585 1058 l 465 1058 q 449 1069 453 1058 l 369 1210 q 367 1218 367 1215 q 372 1227 367 1224 q 383 1231 376 1231 l 519 1231 q 538 1218 533 1231 l 592 1078 z "},"Ỏ":{"ha":838,"x_min":74,"x_max":828,"o":"m 389 -15 q 159 66 244 -15 q 74 283 74 147 q 78 338 74 308 l 114 635 q 181 817 126 738 q 320 940 235 896 q 511 983 406 983 q 742 903 657 983 q 828 689 828 822 q 824 635 828 663 l 788 338 q 721 153 775 233 q 581 29 667 74 q 389 -15 494 -15 m 410 153 q 535 201 485 153 q 597 331 586 250 l 635 636 q 636 665 636 646 q 597 775 636 735 q 490 815 558 815 q 365 766 417 815 q 304 636 314 717 l 267 331 q 265 301 265 321 q 304 193 265 233 q 410 153 343 153 m 500 1038 q 490 1058 482 1042 q 543 1126 510 1096 q 567 1155 560 1144 q 575 1183 574 1165 q 567 1207 576 1197 q 542 1217 557 1217 q 510 1208 524 1217 q 476 1175 497 1200 q 464 1167 471 1168 q 451 1171 457 1165 l 410 1206 q 404 1217 404 1210 q 410 1229 404 1224 q 476 1292 443 1274 q 558 1311 510 1311 q 646 1283 614 1311 q 678 1203 678 1254 q 662 1137 678 1163 q 614 1082 646 1111 q 572 1038 583 1054 q 550 1026 563 1024 l 500 1038 z "},"Ơ":{"ha":838,"x_min":74,"x_max":911,"o":"m 763 893 q 758 890 758 892 q 760 885 757 888 q 828 690 828 808 q 824 635 828 664 l 788 338 q 721 153 775 233 q 581 29 667 74 q 389 -15 494 -15 q 159 66 244 -15 q 74 283 74 147 q 78 338 74 308 l 114 635 q 181 817 126 738 q 320 940 235 896 q 511 983 406 983 q 660 956 596 983 q 668 956 668 954 q 686 974 671 971 q 794 1076 775 983 q 814 1093 797 1093 l 897 1093 q 908 1087 904 1093 q 910 1069 911 1081 q 857 958 896 1003 q 763 893 818 914 m 635 636 q 636 665 636 646 q 597 775 636 735 q 490 815 558 815 q 365 766 417 815 q 304 636 314 717 l 267 331 q 265 301 265 321 q 304 193 265 233 q 410 153 343 153 q 535 201 485 153 q 597 331 586 250 l 635 636 z "},"Ớ":{"ha":838,"x_min":74,"x_max":911,"o":"m 763 893 q 758 890 758 892 q 760 885 757 888 q 828 690 828 808 q 824 635 828 664 l 788 338 q 721 153 775 233 q 581 29 667 74 q 389 -15 494 -15 q 159 66 244 -15 q 74 283 74 147 q 78 338 74 308 l 114 635 q 181 817 126 738 q 320 940 235 896 q 511 983 406 983 q 660 956 596 983 q 668 956 668 954 q 686 974 671 971 q 794 1076 775 983 q 814 1093 797 1093 l 897 1093 q 908 1087 904 1093 q 910 1069 911 1081 q 857 958 896 1003 q 763 893 818 914 m 635 636 q 636 665 636 646 q 597 775 636 735 q 490 815 558 815 q 365 766 417 815 q 304 636 314 717 l 267 331 q 265 301 265 321 q 304 193 265 233 q 410 153 343 153 q 535 201 485 153 q 597 331 586 250 l 635 636 m 446 1058 q 433 1067 433 1058 q 438 1078 433 1072 l 526 1218 q 547 1231 532 1231 l 683 1231 q 696 1221 696 1231 q 692 1210 696 1217 l 579 1069 q 558 1058 571 1058 l 446 1058 z "},"Ợ":{"ha":838,"x_min":74,"x_max":911,"o":"m 763 893 q 758 890 758 892 q 760 885 757 888 q 828 690 828 808 q 824 635 828 664 l 788 338 q 721 153 775 233 q 581 29 667 74 q 389 -15 494 -15 q 159 66 244 -15 q 74 283 74 147 q 78 338 74 308 l 114 635 q 181 817 126 738 q 320 940 235 896 q 511 983 406 983 q 660 956 596 983 q 668 956 668 954 q 686 974 671 971 q 794 1076 775 983 q 814 1093 797 1093 l 897 1093 q 908 1087 904 1093 q 910 1069 911 1081 q 857 958 896 1003 q 763 893 818 914 m 635 636 q 636 665 636 646 q 597 775 636 735 q 490 815 558 815 q 365 766 417 815 q 304 636 314 717 l 267 331 q 265 301 265 321 q 304 193 265 233 q 410 153 343 153 q 535 201 485 153 q 597 331 586 250 l 635 636 m 354 -300 q 290 -276 315 -300 q 265 -212 265 -251 q 298 -125 265 -158 q 381 -92 331 -92 q 445 -116 421 -92 q 469 -179 469 -140 q 436 -265 469 -231 q 354 -300 403 -300 z "},"Ờ":{"ha":838,"x_min":74,"x_max":911,"o":"m 763 893 q 758 890 758 892 q 760 885 757 888 q 828 690 828 808 q 824 635 828 664 l 788 338 q 721 153 775 233 q 581 29 667 74 q 389 -15 494 -15 q 159 66 244 -15 q 74 283 74 147 q 78 338 74 308 l 114 635 q 181 817 126 738 q 320 940 235 896 q 511 983 406 983 q 660 956 596 983 q 668 956 668 954 q 686 974 671 971 q 794 1076 775 983 q 814 1093 797 1093 l 897 1093 q 908 1087 904 1093 q 910 1069 911 1081 q 857 958 896 1003 q 763 893 818 914 m 635 636 q 636 665 636 646 q 597 775 636 735 q 490 815 558 815 q 365 766 417 815 q 304 636 314 717 l 267 331 q 265 301 265 321 q 304 193 265 233 q 410 153 343 153 q 535 201 485 153 q 597 331 586 250 l 635 636 m 592 1078 q 593 1071 593 1075 q 589 1062 593 1065 q 579 1058 585 1058 l 465 1058 q 449 1069 453 1058 l 369 1210 q 367 1218 367 1215 q 372 1227 367 1224 q 383 1231 376 1231 l 519 1231 q 538 1218 533 1231 l 592 1078 z "},"Ở":{"ha":838,"x_min":74,"x_max":911,"o":"m 763 893 q 758 890 758 892 q 760 885 757 888 q 828 690 828 808 q 824 635 828 664 l 788 338 q 721 153 775 233 q 581 29 667 74 q 389 -15 494 -15 q 159 66 244 -15 q 74 283 74 147 q 78 338 74 308 l 114 635 q 181 817 126 738 q 320 940 235 896 q 511 983 406 983 q 660 956 596 983 q 668 956 668 954 q 686 974 671 971 q 794 1076 775 983 q 814 1093 797 1093 l 897 1093 q 908 1087 904 1093 q 910 1069 911 1081 q 857 958 896 1003 q 763 893 818 914 m 635 636 q 636 665 636 646 q 597 775 636 735 q 490 815 558 815 q 365 766 417 815 q 304 636 314 717 l 267 331 q 265 301 265 321 q 304 193 265 233 q 410 153 343 153 q 535 201 485 153 q 597 331 586 250 l 635 636 m 500 1038 q 490 1058 482 1042 q 543 1126 510 1096 q 567 1155 560 1144 q 575 1183 574 1165 q 567 1207 576 1197 q 542 1217 557 1217 q 510 1208 524 1217 q 476 1175 497 1200 q 464 1167 471 1168 q 451 1171 457 1165 l 410 1206 q 404 1217 404 1210 q 410 1229 404 1224 q 476 1292 443 1274 q 558 1311 510 1311 q 646 1283 614 1311 q 678 1203 678 1254 q 662 1137 678 1163 q 614 1082 646 1111 q 572 1038 583 1054 q 550 1026 563 1024 l 500 1038 z "},"Ỡ":{"ha":838,"x_min":74,"x_max":911,"o":"m 763 893 q 758 890 758 892 q 760 885 757 888 q 828 690 828 808 q 824 635 828 664 l 788 338 q 721 153 775 233 q 581 29 667 74 q 389 -15 494 -15 q 159 66 244 -15 q 74 283 74 147 q 78 338 74 308 l 114 635 q 181 817 126 738 q 320 940 235 896 q 511 983 406 983 q 660 956 596 983 q 668 956 668 954 q 686 974 671 971 q 794 1076 775 983 q 814 1093 797 1093 l 897 1093 q 908 1087 904 1093 q 910 1069 911 1081 q 857 958 896 1003 q 763 893 818 914 m 635 636 q 636 665 636 646 q 597 775 636 735 q 490 815 558 815 q 365 766 417 815 q 304 636 314 717 l 267 331 q 265 301 265 321 q 304 193 265 233 q 410 153 343 153 q 535 201 485 153 q 597 331 586 250 l 635 636 m 582 1083 q 535 1090 554 1083 q 494 1108 517 1096 q 456 1127 468 1122 q 429 1132 443 1132 q 353 1101 386 1132 q 340 1094 346 1094 q 331 1100 335 1094 l 283 1161 q 278 1174 278 1169 q 282 1185 278 1179 q 350 1247 310 1224 q 436 1271 390 1271 q 480 1264 461 1271 q 514 1249 499 1257 q 533 1239 529 1242 q 569 1219 557 1225 q 597 1214 582 1214 q 667 1247 638 1214 q 679 1254 672 1254 q 689 1249 685 1254 l 732 1186 q 733 1167 739 1175 q 671 1106 711 1129 q 582 1083 631 1083 z "},"Ő":{"ha":838,"x_min":74,"x_max":828,"o":"m 389 -15 q 159 66 244 -15 q 74 283 74 147 q 78 338 74 308 l 114 635 q 181 817 126 738 q 320 940 235 896 q 511 983 406 983 q 742 903 657 983 q 828 689 828 822 q 824 635 828 663 l 788 338 q 721 153 775 233 q 581 29 667 74 q 389 -15 494 -15 m 410 153 q 535 201 485 153 q 597 331 586 250 l 635 636 q 636 665 636 646 q 597 775 636 735 q 490 815 558 815 q 365 766 417 815 q 304 636 314 717 l 267 331 q 265 301 265 321 q 304 193 265 233 q 410 153 343 153 m 343 1058 q 331 1064 335 1058 q 332 1078 326 1069 l 413 1218 q 433 1231 419 1231 l 572 1231 q 585 1225 582 1231 q 582 1211 588 1219 l 493 1071 q 471 1058 485 1058 l 343 1058 m 583 1058 q 571 1064 574 1058 q 574 1078 568 1069 l 663 1218 q 672 1227 665 1224 q 683 1231 678 1231 l 814 1231 q 824 1225 822 1231 q 822 1211 826 1219 l 733 1071 q 711 1058 725 1058 l 583 1058 z "},"Ō":{"ha":838,"x_min":74,"x_max":828,"o":"m 389 -15 q 159 66 244 -15 q 74 283 74 147 q 78 338 74 308 l 114 635 q 181 817 126 738 q 320 940 235 896 q 511 983 406 983 q 742 903 657 983 q 828 689 828 822 q 824 635 828 663 l 788 338 q 721 153 775 233 q 581 29 667 74 q 389 -15 494 -15 m 410 153 q 535 201 485 153 q 597 331 586 250 l 635 636 q 636 665 636 646 q 597 775 636 735 q 490 815 558 815 q 365 766 417 815 q 304 636 314 717 l 267 331 q 265 301 265 321 q 304 193 265 233 q 410 153 343 153 m 339 1061 q 328 1066 332 1061 q 325 1078 324 1071 l 338 1176 q 344 1188 339 1183 q 356 1193 349 1193 l 719 1193 q 731 1188 726 1193 q 733 1176 735 1183 l 721 1078 q 715 1066 719 1071 q 703 1061 710 1061 l 339 1061 z "},"Ø":{"ha":828,"x_min":-1,"x_max":886,"o":"m 881 939 q 886 929 886 935 q 881 915 886 922 l 800 811 q 799 801 799 808 q 818 686 818 747 q 815 635 818 671 l 778 338 q 711 153 765 233 q 571 29 657 74 q 379 -15 485 -15 q 197 31 272 -15 q 188 28 194 32 l 129 -50 q 117 -58 124 -57 q 106 -54 111 -60 l 4 33 q -1 44 -1 39 q 4 57 -1 49 l 83 158 q 85 168 85 161 q 65 286 65 222 q 68 338 65 301 l 106 635 q 172 817 118 738 q 310 940 225 896 q 501 983 396 983 q 683 939 610 983 q 693 942 689 938 l 754 1022 q 766 1031 760 1029 q 778 1026 772 1032 l 881 939 m 625 636 q 626 667 626 647 q 588 775 626 735 q 482 815 549 815 q 356 766 408 815 q 294 636 304 717 l 257 331 q 256 301 256 321 q 294 193 256 233 q 400 153 333 153 q 526 201 475 153 q 588 331 578 250 l 625 636 z "},"Õ":{"ha":838,"x_min":74,"x_max":828,"o":"m 389 -15 q 159 66 244 -15 q 74 283 74 147 q 78 338 74 308 l 114 635 q 181 817 126 738 q 320 940 235 896 q 511 983 406 983 q 742 903 657 983 q 828 689 828 822 q 824 635 828 663 l 788 338 q 721 153 775 233 q 581 29 667 74 q 389 -15 494 -15 m 410 153 q 535 201 485 153 q 597 331 586 250 l 635 636 q 636 665 636 646 q 597 775 636 735 q 490 815 558 815 q 365 766 417 815 q 304 636 314 717 l 267 331 q 265 301 265 321 q 304 193 265 233 q 410 153 343 153 m 607 1054 q 560 1060 579 1054 q 519 1079 542 1067 q 481 1098 493 1093 q 454 1103 468 1103 q 378 1072 411 1103 q 365 1065 371 1065 q 356 1071 360 1065 l 308 1132 q 303 1144 303 1140 q 307 1156 303 1150 q 375 1218 335 1194 q 461 1242 415 1242 q 505 1235 486 1242 q 539 1220 524 1228 q 558 1210 554 1213 q 594 1190 582 1196 q 622 1185 607 1185 q 692 1218 663 1185 q 704 1225 697 1225 q 714 1219 710 1225 l 757 1157 q 758 1138 764 1146 q 696 1077 736 1100 q 607 1054 656 1054 z "},"Œ":{"ha":1253,"x_min":74,"x_max":1294,"o":"m 1276 821 q 1271 809 1276 814 q 1258 804 1265 804 l 838 804 q 829 797 832 804 l 803 582 q 808 575 803 575 l 1078 575 q 1093 558 1093 575 l 1076 424 q 1070 412 1075 417 q 1058 407 1065 407 l 789 407 q 781 400 781 407 l 753 175 q 758 168 753 168 l 1181 168 q 1192 163 1188 168 q 1194 151 1196 158 l 1178 17 q 1172 5 1176 10 q 1160 0 1167 0 l 558 0 q 543 17 543 0 l 547 46 q 545 51 547 50 q 540 50 543 53 q 440 1 493 18 q 332 -15 386 -15 q 199 22 258 -15 q 107 124 140 58 q 74 275 74 190 q 76 329 74 311 l 115 642 q 177 818 128 740 q 300 940 226 896 q 454 983 374 983 q 558 967 508 983 q 646 918 608 950 q 651 918 649 917 q 656 924 654 919 l 658 956 q 665 967 660 963 q 678 972 671 972 l 1279 972 q 1290 967 1286 972 q 1293 956 1294 963 l 1276 821 m 401 153 q 522 201 472 153 q 582 324 572 249 l 621 644 q 622 672 622 654 q 585 776 622 736 q 483 815 547 815 q 365 767 414 815 q 306 644 315 719 l 267 324 q 265 296 265 314 q 302 192 265 232 q 401 153 339 153 z "},"P":{"ha":804,"x_min":50,"x_max":828,"o":"m 564 974 q 756 905 685 974 q 828 719 828 836 q 825 672 828 706 q 767 518 814 585 q 647 415 721 451 q 483 378 574 378 l 292 378 q 283 371 286 378 l 240 17 q 234 5 239 10 q 222 0 229 0 l 65 0 q 50 17 50 0 l 167 957 q 172 969 167 964 q 185 974 178 974 l 564 974 m 482 535 q 593 578 549 535 q 638 689 638 622 q 604 773 638 742 q 515 804 571 804 l 344 804 q 336 797 339 804 l 306 542 q 311 535 303 535 l 482 535 z "},"Þ":{"ha":783,"x_min":50,"x_max":785,"o":"m 519 779 q 713 710 640 779 q 785 526 785 640 q 782 483 785 514 q 722 331 771 397 q 599 229 674 265 q 439 193 525 193 l 269 193 q 261 186 264 193 l 240 17 q 234 5 239 10 q 222 0 229 0 l 65 0 q 50 17 50 0 l 165 956 q 172 967 167 963 q 185 972 178 972 l 342 972 q 353 967 349 972 q 356 956 357 963 l 335 786 q 340 779 335 779 l 519 779 m 438 351 q 541 385 499 351 q 592 479 583 419 q 593 499 593 486 q 560 581 593 551 q 469 611 526 611 l 321 611 q 313 604 313 611 l 282 358 q 289 351 282 351 l 438 351 z "},"Q":{"ha":800,"x_min":65,"x_max":799,"o":"m 493 983 q 716 903 633 983 q 799 690 799 824 q 794 635 799 664 l 757 324 q 666 115 742 200 q 475 1 590 29 q 468 -6 468 -1 l 454 -119 q 448 -131 453 -126 q 436 -136 443 -136 l 278 -136 q 267 -131 271 -136 q 264 -119 263 -126 l 278 -7 q 274 0 279 -1 q 121 97 176 24 q 65 274 65 169 q 68 324 65 307 l 106 635 q 172 818 118 739 q 308 940 225 897 q 493 983 392 983 m 606 644 q 607 674 607 654 q 571 776 607 738 q 472 815 535 815 q 356 768 404 815 q 297 644 307 721 l 258 328 q 257 300 257 318 q 293 196 257 235 q 392 157 329 157 q 509 204 461 157 q 567 328 557 251 l 606 644 z "},"R":{"ha":826,"x_min":56,"x_max":831,"o":"m 572 0 q 556 13 560 0 l 435 397 q 426 403 432 403 l 301 403 q 294 396 294 403 l 247 17 q 241 5 246 10 q 229 0 236 0 l 71 0 q 60 5 64 0 q 57 17 56 10 l 172 956 q 178 967 174 963 q 190 972 183 972 l 576 972 q 763 906 694 972 q 831 726 831 839 q 828 679 831 713 q 763 517 817 585 q 624 422 708 450 q 618 413 615 419 l 753 19 q 754 13 754 17 q 739 0 754 0 l 572 0 m 350 804 q 345 802 347 804 q 343 797 343 800 l 314 560 q 319 553 314 553 l 496 553 q 600 592 558 553 q 642 694 642 632 q 610 774 642 744 q 528 804 579 804 l 350 804 z "},"Ŕ":{"ha":826,"x_min":56,"x_max":831,"o":"m 572 0 q 556 13 560 0 l 435 397 q 426 403 432 403 l 301 403 q 294 396 294 403 l 247 17 q 241 5 246 10 q 229 0 236 0 l 71 0 q 60 5 64 0 q 57 17 56 10 l 172 956 q 178 967 174 963 q 190 972 183 972 l 576 972 q 763 906 694 972 q 831 726 831 839 q 828 679 831 713 q 763 517 817 585 q 624 422 708 450 q 618 413 615 419 l 753 19 q 754 13 754 17 q 739 0 754 0 l 572 0 m 350 804 q 345 802 347 804 q 343 797 343 800 l 314 560 q 319 553 314 553 l 496 553 q 600 592 558 553 q 642 694 642 632 q 610 774 642 744 q 528 804 579 804 l 350 804 m 414 1058 q 401 1067 401 1058 q 406 1078 401 1072 l 494 1218 q 515 1231 500 1231 l 651 1231 q 664 1221 664 1231 q 660 1210 664 1217 l 547 1069 q 526 1058 539 1058 l 414 1058 z "},"Ř":{"ha":826,"x_min":56,"x_max":831,"o":"m 572 0 q 556 13 560 0 l 435 397 q 426 403 432 403 l 301 403 q 294 396 294 403 l 247 17 q 241 5 246 10 q 229 0 236 0 l 71 0 q 60 5 64 0 q 57 17 56 10 l 172 956 q 178 967 174 963 q 190 972 183 972 l 576 972 q 763 906 694 972 q 831 726 831 839 q 828 679 831 713 q 763 517 817 585 q 624 422 708 450 q 618 413 615 419 l 753 19 q 754 13 754 17 q 739 0 754 0 l 572 0 m 350 804 q 345 802 347 804 q 343 797 343 800 l 314 560 q 319 553 314 553 l 496 553 q 600 592 558 553 q 642 694 642 632 q 610 774 642 744 q 528 804 579 804 l 350 804 m 307 1210 q 304 1218 304 1215 q 308 1227 304 1224 q 319 1231 313 1231 l 442 1231 q 458 1219 454 1231 l 503 1135 q 510 1135 506 1125 l 575 1219 q 594 1231 582 1231 l 717 1231 q 729 1221 729 1231 q 725 1210 729 1217 l 604 1063 q 583 1053 596 1053 l 404 1053 q 388 1064 392 1053 l 307 1210 z "},"S":{"ha":801,"x_min":53,"x_max":804,"o":"m 378 -11 q 140 57 226 -11 q 53 242 53 125 q 56 279 53 254 l 60 310 q 66 322 61 317 q 78 326 71 326 l 232 326 q 243 322 239 326 q 246 310 247 317 l 243 289 q 281 195 236 233 q 411 157 326 157 q 528 192 489 157 q 568 276 568 226 q 548 328 568 307 q 494 365 528 349 q 386 410 460 381 q 250 470 306 440 q 157 550 194 500 q 119 674 119 600 q 122 708 119 683 q 238 909 138 835 q 485 983 338 983 q 652 951 579 983 q 765 859 725 918 q 804 721 804 800 q 801 685 804 710 l 799 664 q 792 652 797 657 q 781 647 788 647 l 625 647 q 614 652 618 647 q 611 664 610 657 l 613 675 q 578 774 619 733 q 456 815 538 815 q 347 784 388 815 q 307 699 307 753 q 326 647 307 668 q 384 608 346 626 q 500 560 422 590 q 634 501 586 525 q 721 428 682 476 q 760 306 760 379 q 757 271 760 296 q 638 65 740 140 q 378 -11 536 -11 z "},"Ś":{"ha":801,"x_min":53,"x_max":804,"o":"m 378 -11 q 140 57 226 -11 q 53 242 53 125 q 56 279 53 254 l 60 310 q 66 322 61 317 q 78 326 71 326 l 232 326 q 243 322 239 326 q 246 310 247 317 l 243 289 q 281 195 236 233 q 411 157 326 157 q 528 192 489 157 q 568 276 568 226 q 548 328 568 307 q 494 365 528 349 q 386 410 460 381 q 250 470 306 440 q 157 550 194 500 q 119 674 119 600 q 122 708 119 683 q 238 909 138 835 q 485 983 338 983 q 652 951 579 983 q 765 859 725 918 q 804 721 804 800 q 801 685 804 710 l 799 664 q 792 652 797 657 q 781 647 788 647 l 625 647 q 614 652 618 647 q 611 664 610 657 l 613 675 q 578 774 619 733 q 456 815 538 815 q 347 784 388 815 q 307 699 307 753 q 326 647 307 668 q 384 608 346 626 q 500 560 422 590 q 634 501 586 525 q 721 428 682 476 q 760 306 760 379 q 757 271 760 296 q 638 65 740 140 q 378 -11 536 -11 m 425 1058 q 413 1067 413 1058 q 417 1078 413 1072 l 506 1218 q 526 1231 511 1231 l 663 1231 q 675 1221 675 1231 q 671 1210 675 1217 l 558 1069 q 538 1058 550 1058 l 425 1058 z "},"Š":{"ha":801,"x_min":53,"x_max":804,"o":"m 378 -11 q 140 57 226 -11 q 53 242 53 125 q 56 279 53 254 l 60 310 q 66 322 61 317 q 78 326 71 326 l 232 326 q 243 322 239 326 q 246 310 247 317 l 243 289 q 281 195 236 233 q 411 157 326 157 q 528 192 489 157 q 568 276 568 226 q 548 328 568 307 q 494 365 528 349 q 386 410 460 381 q 250 470 306 440 q 157 550 194 500 q 119 674 119 600 q 122 708 119 683 q 238 909 138 835 q 485 983 338 983 q 652 951 579 983 q 765 859 725 918 q 804 721 804 800 q 801 685 804 710 l 799 664 q 792 652 797 657 q 781 647 788 647 l 625 647 q 614 652 618 647 q 611 664 610 657 l 613 675 q 578 774 619 733 q 456 815 538 815 q 347 784 388 815 q 307 699 307 753 q 326 647 307 668 q 384 608 346 626 q 500 560 422 590 q 634 501 586 525 q 721 428 682 476 q 760 306 760 379 q 757 271 760 296 q 638 65 740 140 q 378 -11 536 -11 m 319 1210 q 317 1218 317 1215 q 321 1227 317 1224 q 332 1231 325 1231 l 454 1231 q 471 1219 467 1231 l 515 1135 q 522 1135 518 1125 l 588 1219 q 607 1231 594 1231 l 729 1231 q 742 1221 742 1231 q 738 1210 742 1217 l 617 1063 q 596 1053 608 1053 l 417 1053 q 400 1064 404 1053 l 319 1210 z "},"Ş":{"ha":801,"x_min":53,"x_max":804,"o":"m 757 271 q 662 83 743 156 q 453 -6 581 11 q 449 -14 444 -8 q 494 -121 494 -67 q 485 -169 494 -140 q 429 -237 467 -217 q 346 -258 392 -258 q 265 -243 304 -258 q 256 -224 251 -239 l 274 -154 q 294 -143 278 -136 q 318 -147 307 -147 q 356 -133 340 -147 q 372 -96 372 -119 q 321 -11 372 -58 q 313 -8 315 -8 q 122 72 190 7 q 53 240 53 138 q 56 279 53 251 l 60 310 q 66 322 61 317 q 78 326 71 326 l 232 326 q 243 322 239 326 q 246 310 247 317 l 243 289 q 281 195 236 233 q 411 157 326 157 q 528 192 489 157 q 568 276 568 226 q 548 328 568 307 q 494 365 528 349 q 386 410 460 381 q 250 470 306 440 q 157 550 194 500 q 119 674 119 600 q 122 708 119 683 q 238 909 138 835 q 485 983 338 983 q 652 951 579 983 q 765 859 725 918 q 804 721 804 800 q 801 685 804 710 l 799 664 q 792 652 797 657 q 781 647 788 647 l 625 647 q 614 652 618 647 q 611 664 610 657 l 613 675 q 578 774 619 733 q 456 815 538 815 q 347 784 388 815 q 307 699 307 753 q 326 647 307 668 q 384 608 346 626 q 500 560 422 590 q 634 501 586 525 q 721 428 682 476 q 760 306 760 379 q 757 271 760 296 z "},"Ŝ":{"ha":801,"x_min":53,"x_max":804,"o":"m 378 -11 q 140 57 226 -11 q 53 242 53 125 q 56 279 53 254 l 60 310 q 66 322 61 317 q 78 326 71 326 l 232 326 q 243 322 239 326 q 246 310 247 317 l 243 289 q 281 195 236 233 q 411 157 326 157 q 528 192 489 157 q 568 276 568 226 q 548 328 568 307 q 494 365 528 349 q 386 410 460 381 q 250 470 306 440 q 157 550 194 500 q 119 674 119 600 q 122 708 119 683 q 238 909 138 835 q 485 983 338 983 q 652 951 579 983 q 765 859 725 918 q 804 721 804 800 q 801 685 804 710 l 799 664 q 792 652 797 657 q 781 647 788 647 l 625 647 q 614 652 618 647 q 611 664 610 657 l 613 675 q 578 774 619 733 q 456 815 538 815 q 347 784 388 815 q 307 699 307 753 q 326 647 307 668 q 384 608 346 626 q 500 560 422 590 q 634 501 586 525 q 721 428 682 476 q 760 306 760 379 q 757 271 760 296 q 638 65 740 140 q 378 -11 536 -11 m 301 1053 q 289 1063 289 1053 q 293 1074 289 1068 l 410 1219 q 429 1231 417 1231 l 608 1231 q 626 1219 621 1231 l 711 1074 q 714 1065 714 1068 q 709 1056 714 1060 q 697 1053 704 1053 l 576 1053 q 558 1064 563 1053 l 515 1149 q 507 1149 511 1157 l 443 1064 q 422 1053 435 1053 l 301 1053 z "},"Ə":{"ha":886,"x_min":78,"x_max":860,"o":"m 847 675 q 860 563 860 624 q 851 450 860 513 q 806 253 836 326 q 651 58 754 131 q 415 -15 547 -15 q 163 83 249 -15 q 78 346 78 181 q 94 514 78 411 q 113 531 97 531 l 665 531 q 670 533 668 531 q 672 538 672 535 q 664 626 674 592 q 603 724 650 689 q 475 760 556 760 q 264 646 343 758 q 240 642 251 629 l 150 735 q 144 746 144 743 q 150 757 144 749 q 303 883 211 839 q 510 926 394 926 q 733 860 646 926 q 847 675 819 794 m 435 154 q 553 190 504 154 q 628 290 603 226 q 649 357 639 313 q 643 364 649 364 l 275 364 q 268 357 268 364 l 268 338 q 269 296 268 307 q 321 192 278 231 q 435 154 364 154 z "},"T":{"ha":788,"x_min":110,"x_max":840,"o":"m 825 972 q 836 967 832 972 q 839 956 840 963 l 822 819 q 817 808 822 813 q 804 803 811 803 l 564 803 q 556 796 558 803 l 460 17 q 453 5 458 10 q 442 0 449 0 l 285 0 q 274 5 278 0 q 271 17 269 10 l 365 796 q 360 803 368 803 l 125 803 q 114 808 118 803 q 111 819 110 813 l 128 956 q 134 967 129 963 q 146 972 139 972 l 825 972 z "},"Ŧ":{"ha":788,"x_min":110,"x_max":840,"o":"m 822 819 q 817 808 822 813 q 804 803 811 803 l 564 803 q 556 796 558 803 l 529 575 q 535 568 526 568 l 663 568 q 674 563 669 568 q 676 551 678 558 l 667 467 q 660 455 665 460 q 649 450 656 450 l 519 450 q 515 448 517 450 q 513 443 513 446 l 460 17 q 453 5 458 10 q 442 0 449 0 l 285 0 q 274 5 278 0 q 271 17 269 10 l 322 443 q 317 450 325 450 l 203 450 q 192 455 196 450 q 189 467 188 460 l 200 551 q 206 563 201 558 q 218 568 211 568 l 331 568 q 339 575 336 568 l 365 796 q 360 803 368 803 l 125 803 q 114 808 118 803 q 111 819 110 813 l 128 956 q 134 967 129 963 q 146 972 139 972 l 825 972 q 836 967 832 972 q 839 956 840 963 l 822 819 z "},"Ť":{"ha":788,"x_min":110,"x_max":840,"o":"m 825 972 q 836 967 832 972 q 839 956 840 963 l 822 819 q 817 808 822 813 q 804 803 811 803 l 564 803 q 556 796 558 803 l 460 17 q 453 5 458 10 q 442 0 449 0 l 285 0 q 274 5 278 0 q 271 17 269 10 l 365 796 q 360 803 368 803 l 125 803 q 114 808 118 803 q 111 819 110 813 l 128 956 q 134 967 129 963 q 146 972 139 972 l 825 972 z "},"U":{"ha":849,"x_min":85,"x_max":865,"o":"m 396 -11 q 169 67 253 -11 q 85 275 85 144 q 88 322 85 289 l 165 956 q 172 967 167 963 q 185 972 178 972 l 342 972 q 353 967 349 972 q 356 956 357 963 l 278 321 q 276 294 276 311 q 314 194 276 232 q 417 157 351 157 q 537 202 488 157 q 596 321 586 247 l 674 956 q 680 967 675 963 q 692 972 685 972 l 850 972 q 861 967 857 972 q 864 956 865 963 l 786 322 q 721 148 774 224 q 584 31 668 72 q 396 -11 500 -11 z "},"Ú":{"ha":849,"x_min":85,"x_max":865,"o":"m 396 -11 q 169 67 253 -11 q 85 275 85 144 q 88 322 85 289 l 165 956 q 172 967 167 963 q 185 972 178 972 l 342 972 q 353 967 349 972 q 356 956 357 963 l 278 321 q 276 294 276 311 q 314 194 276 232 q 417 157 351 157 q 537 202 488 157 q 596 321 586 247 l 674 956 q 680 967 675 963 q 692 972 685 972 l 850 972 q 861 967 857 972 q 864 956 865 963 l 786 322 q 721 148 774 224 q 584 31 668 72 q 396 -11 500 -11 m 453 1058 q 440 1067 440 1058 q 444 1078 440 1072 l 533 1218 q 554 1231 539 1231 l 690 1231 q 703 1221 703 1231 q 699 1210 703 1217 l 586 1069 q 565 1058 578 1058 l 453 1058 z "},"Ŭ":{"ha":849,"x_min":85,"x_max":865,"o":"m 396 -11 q 169 67 253 -11 q 85 275 85 144 q 88 322 85 289 l 165 956 q 172 967 167 963 q 185 972 178 972 l 342 972 q 353 967 349 972 q 356 956 357 963 l 278 321 q 276 294 276 311 q 314 194 276 232 q 417 157 351 157 q 537 202 488 157 q 596 321 586 247 l 674 956 q 680 967 675 963 q 692 972 685 972 l 850 972 q 861 967 857 972 q 864 956 865 963 l 786 322 q 721 148 774 224 q 584 31 668 72 q 396 -11 500 -11 m 525 1043 q 387 1087 440 1043 q 333 1199 333 1131 q 350 1218 333 1218 l 431 1217 q 446 1201 443 1217 q 473 1154 447 1172 q 538 1136 499 1136 q 607 1154 576 1136 q 647 1203 638 1172 q 665 1218 651 1218 l 743 1218 q 756 1215 751 1218 q 757 1204 760 1211 q 678 1089 743 1135 q 525 1043 613 1043 z "},"Û":{"ha":849,"x_min":85,"x_max":865,"o":"m 396 -11 q 169 67 253 -11 q 85 275 85 144 q 88 322 85 289 l 165 956 q 172 967 167 963 q 185 972 178 972 l 342 972 q 353 967 349 972 q 356 956 357 963 l 278 321 q 276 294 276 311 q 314 194 276 232 q 417 157 351 157 q 537 202 488 157 q 596 321 586 247 l 674 956 q 680 967 675 963 q 692 972 685 972 l 850 972 q 861 967 857 972 q 864 956 865 963 l 786 322 q 721 148 774 224 q 584 31 668 72 q 396 -11 500 -11 m 329 1053 q 317 1063 317 1053 q 321 1074 317 1068 l 438 1219 q 457 1231 444 1231 l 636 1231 q 654 1219 649 1231 l 739 1074 q 742 1065 742 1068 q 737 1056 742 1060 q 725 1053 732 1053 l 604 1053 q 586 1064 590 1053 l 543 1149 q 535 1149 539 1157 l 471 1064 q 450 1053 463 1053 l 329 1053 z "},"Ü":{"ha":849,"x_min":85,"x_max":865,"o":"m 396 -11 q 169 67 253 -11 q 85 275 85 144 q 88 322 85 289 l 165 956 q 172 967 167 963 q 185 972 178 972 l 342 972 q 353 967 349 972 q 356 956 357 963 l 278 321 q 276 294 276 311 q 314 194 276 232 q 417 157 351 157 q 537 202 488 157 q 596 321 586 247 l 674 956 q 680 967 675 963 q 692 972 685 972 l 850 972 q 861 967 857 972 q 864 956 865 963 l 786 322 q 721 148 774 224 q 584 31 668 72 q 396 -11 500 -11 z "},"Ụ":{"ha":849,"x_min":85,"x_max":865,"o":"m 396 -11 q 169 67 253 -11 q 85 275 85 144 q 88 322 85 289 l 165 956 q 172 967 167 963 q 185 972 178 972 l 342 972 q 353 967 349 972 q 356 956 357 963 l 278 321 q 276 294 276 311 q 314 194 276 232 q 417 157 351 157 q 537 202 488 157 q 596 321 586 247 l 674 956 q 680 967 675 963 q 692 972 685 972 l 850 972 q 861 967 857 972 q 864 956 865 963 l 786 322 q 721 148 774 224 q 584 31 668 72 q 396 -11 500 -11 m 361 -300 q 297 -276 322 -300 q 272 -212 272 -251 q 305 -125 272 -158 q 388 -92 338 -92 q 452 -116 428 -92 q 476 -179 476 -140 q 443 -265 476 -231 q 361 -300 410 -300 z "},"Ù":{"ha":849,"x_min":85,"x_max":865,"o":"m 396 -11 q 169 67 253 -11 q 85 275 85 144 q 88 322 85 289 l 165 956 q 172 967 167 963 q 185 972 178 972 l 342 972 q 353 967 349 972 q 356 956 357 963 l 278 321 q 276 294 276 311 q 314 194 276 232 q 417 157 351 157 q 537 202 488 157 q 596 321 586 247 l 674 956 q 680 967 675 963 q 692 972 685 972 l 850 972 q 861 967 857 972 q 864 956 865 963 l 786 322 q 721 148 774 224 q 584 31 668 72 q 396 -11 500 -11 m 599 1078 q 600 1071 600 1075 q 596 1062 600 1065 q 586 1058 592 1058 l 472 1058 q 456 1069 460 1058 l 376 1210 q 374 1218 374 1215 q 378 1227 374 1224 q 390 1231 383 1231 l 526 1231 q 544 1218 540 1231 l 599 1078 z "},"Ủ":{"ha":849,"x_min":85,"x_max":865,"o":"m 396 -11 q 169 67 253 -11 q 85 275 85 144 q 88 322 85 289 l 165 956 q 172 967 167 963 q 185 972 178 972 l 342 972 q 353 967 349 972 q 356 956 357 963 l 278 321 q 276 294 276 311 q 314 194 276 232 q 417 157 351 157 q 537 202 488 157 q 596 321 586 247 l 674 956 q 680 967 675 963 q 692 972 685 972 l 850 972 q 861 967 857 972 q 864 956 865 963 l 786 322 q 721 148 774 224 q 584 31 668 72 q 396 -11 500 -11 m 507 1038 q 497 1058 489 1042 q 550 1126 517 1096 q 574 1155 567 1144 q 582 1183 581 1165 q 574 1207 583 1197 q 549 1217 564 1217 q 517 1208 531 1217 q 483 1175 504 1200 q 471 1167 478 1168 q 458 1171 464 1165 l 417 1206 q 411 1217 411 1210 q 417 1229 411 1224 q 483 1292 450 1274 q 565 1311 517 1311 q 653 1283 621 1311 q 685 1203 685 1254 q 669 1137 685 1163 q 621 1082 653 1111 q 579 1038 590 1054 q 557 1026 569 1024 l 507 1038 z "},"Ư":{"ha":849,"x_min":85,"x_max":1043,"o":"m 1026 1093 q 1040 1076 1043 1093 q 976 948 1025 996 q 860 883 926 900 q 854 876 854 882 l 786 322 q 721 148 774 224 q 584 31 668 72 q 396 -11 500 -11 q 169 67 253 -11 q 85 275 85 144 q 88 322 85 289 l 165 956 q 172 967 167 963 q 185 972 178 972 l 342 972 q 353 967 349 972 q 356 956 357 963 l 278 321 q 276 294 276 311 q 314 194 276 232 q 417 157 351 157 q 537 202 488 157 q 596 321 586 247 l 674 956 q 680 967 675 963 q 692 972 685 972 l 800 972 q 876 994 839 972 q 925 1076 913 1017 q 943 1093 928 1093 l 1026 1093 z "},"Ứ":{"ha":849,"x_min":85,"x_max":1043,"o":"m 1026 1093 q 1040 1076 1043 1093 q 976 948 1025 996 q 860 883 926 900 q 854 876 854 882 l 786 322 q 721 148 774 224 q 584 31 668 72 q 396 -11 500 -11 q 169 67 253 -11 q 85 275 85 144 q 88 322 85 289 l 165 956 q 172 967 167 963 q 185 972 178 972 l 342 972 q 353 967 349 972 q 356 956 357 963 l 278 321 q 276 294 276 311 q 314 194 276 232 q 417 157 351 157 q 537 202 488 157 q 596 321 586 247 l 674 956 q 680 967 675 963 q 692 972 685 972 l 800 972 q 876 994 839 972 q 925 1076 913 1017 q 943 1093 928 1093 l 1026 1093 m 453 1058 q 440 1067 440 1058 q 444 1078 440 1072 l 533 1218 q 554 1231 539 1231 l 690 1231 q 703 1221 703 1231 q 699 1210 703 1217 l 586 1069 q 565 1058 578 1058 l 453 1058 z "},"Ự":{"ha":849,"x_min":85,"x_max":1043,"o":"m 1026 1093 q 1040 1076 1043 1093 q 976 948 1025 996 q 860 883 926 900 q 854 876 854 882 l 786 322 q 721 148 774 224 q 584 31 668 72 q 396 -11 500 -11 q 169 67 253 -11 q 85 275 85 144 q 88 322 85 289 l 165 956 q 172 967 167 963 q 185 972 178 972 l 342 972 q 353 967 349 972 q 356 956 357 963 l 278 321 q 276 294 276 311 q 314 194 276 232 q 417 157 351 157 q 537 202 488 157 q 596 321 586 247 l 674 956 q 680 967 675 963 q 692 972 685 972 l 800 972 q 876 994 839 972 q 925 1076 913 1017 q 943 1093 928 1093 l 1026 1093 m 361 -300 q 297 -276 322 -300 q 272 -212 272 -251 q 305 -125 272 -158 q 388 -92 338 -92 q 452 -116 428 -92 q 476 -179 476 -140 q 443 -265 476 -231 q 361 -300 410 -300 z "},"Ừ":{"ha":849,"x_min":85,"x_max":1043,"o":"m 1026 1093 q 1040 1076 1043 1093 q 976 948 1025 996 q 860 883 926 900 q 854 876 854 882 l 786 322 q 721 148 774 224 q 584 31 668 72 q 396 -11 500 -11 q 169 67 253 -11 q 85 275 85 144 q 88 322 85 289 l 165 956 q 172 967 167 963 q 185 972 178 972 l 342 972 q 353 967 349 972 q 356 956 357 963 l 278 321 q 276 294 276 311 q 314 194 276 232 q 417 157 351 157 q 537 202 488 157 q 596 321 586 247 l 674 956 q 680 967 675 963 q 692 972 685 972 l 800 972 q 876 994 839 972 q 925 1076 913 1017 q 943 1093 928 1093 l 1026 1093 m 599 1078 q 600 1071 600 1075 q 596 1062 600 1065 q 586 1058 592 1058 l 472 1058 q 456 1069 460 1058 l 376 1210 q 374 1218 374 1215 q 378 1227 374 1224 q 390 1231 383 1231 l 526 1231 q 544 1218 540 1231 l 599 1078 z "},"Ử":{"ha":849,"x_min":85,"x_max":1043,"o":"m 1026 1093 q 1040 1076 1043 1093 q 976 948 1025 996 q 860 883 926 900 q 854 876 854 882 l 786 322 q 721 148 774 224 q 584 31 668 72 q 396 -11 500 -11 q 169 67 253 -11 q 85 275 85 144 q 88 322 85 289 l 165 956 q 172 967 167 963 q 185 972 178 972 l 342 972 q 353 967 349 972 q 356 956 357 963 l 278 321 q 276 294 276 311 q 314 194 276 232 q 417 157 351 157 q 537 202 488 157 q 596 321 586 247 l 674 956 q 680 967 675 963 q 692 972 685 972 l 800 972 q 876 994 839 972 q 925 1076 913 1017 q 943 1093 928 1093 l 1026 1093 m 507 1038 q 497 1058 489 1042 q 550 1126 517 1096 q 574 1155 567 1144 q 582 1183 581 1165 q 574 1207 583 1197 q 549 1217 564 1217 q 517 1208 531 1217 q 483 1175 504 1200 q 471 1167 478 1168 q 458 1171 464 1165 l 417 1206 q 411 1217 411 1210 q 417 1229 411 1224 q 483 1292 450 1274 q 565 1311 517 1311 q 653 1283 621 1311 q 685 1203 685 1254 q 669 1137 685 1163 q 621 1082 653 1111 q 579 1038 590 1054 q 557 1026 569 1024 l 507 1038 z "},"Ữ":{"ha":849,"x_min":85,"x_max":1043,"o":"m 1026 1093 q 1040 1076 1043 1093 q 976 948 1025 996 q 860 883 926 900 q 854 876 854 882 l 786 322 q 721 148 774 224 q 584 31 668 72 q 396 -11 500 -11 q 169 67 253 -11 q 85 275 85 144 q 88 322 85 289 l 165 956 q 172 967 167 963 q 185 972 178 972 l 342 972 q 353 967 349 972 q 356 956 357 963 l 278 321 q 276 294 276 311 q 314 194 276 232 q 417 157 351 157 q 537 202 488 157 q 596 321 586 247 l 674 956 q 680 967 675 963 q 692 972 685 972 l 800 972 q 876 994 839 972 q 925 1076 913 1017 q 943 1093 928 1093 l 1026 1093 m 614 1054 q 567 1060 586 1054 q 526 1079 549 1067 q 488 1098 500 1093 q 461 1103 475 1103 q 385 1072 418 1103 q 372 1065 378 1065 q 363 1071 367 1065 l 315 1132 q 310 1144 310 1140 q 314 1156 310 1150 q 382 1218 342 1194 q 468 1242 422 1242 q 512 1235 493 1242 q 546 1220 531 1228 q 565 1210 561 1213 q 601 1190 589 1196 q 629 1185 614 1185 q 699 1218 669 1185 q 711 1225 704 1225 q 721 1219 717 1225 l 764 1157 q 765 1138 771 1146 q 703 1077 743 1100 q 614 1054 663 1054 z "},"Ű":{"ha":849,"x_min":85,"x_max":865,"o":"m 396 -11 q 169 67 253 -11 q 85 275 85 144 q 88 322 85 289 l 165 956 q 172 967 167 963 q 185 972 178 972 l 342 972 q 353 967 349 972 q 356 956 357 963 l 278 321 q 276 294 276 311 q 314 194 276 232 q 417 157 351 157 q 537 202 488 157 q 596 321 586 247 l 674 956 q 680 967 675 963 q 692 972 685 972 l 850 972 q 861 967 857 972 q 864 956 865 963 l 786 322 q 721 148 774 224 q 584 31 668 72 q 396 -11 500 -11 m 350 1058 q 338 1064 342 1058 q 339 1078 333 1069 l 419 1218 q 440 1231 426 1231 l 579 1231 q 592 1225 589 1231 q 589 1211 594 1219 l 500 1071 q 478 1058 492 1058 l 350 1058 m 590 1058 q 578 1064 581 1058 q 581 1078 575 1069 l 669 1218 q 678 1227 672 1224 q 690 1231 685 1231 l 821 1231 q 831 1225 829 1231 q 829 1211 833 1219 l 740 1071 q 718 1058 732 1058 l 590 1058 z "},"Ū":{"ha":849,"x_min":85,"x_max":865,"o":"m 396 -11 q 169 67 253 -11 q 85 275 85 144 q 88 322 85 289 l 165 956 q 172 967 167 963 q 185 972 178 972 l 342 972 q 353 967 349 972 q 356 956 357 963 l 278 321 q 276 294 276 311 q 314 194 276 232 q 417 157 351 157 q 537 202 488 157 q 596 321 586 247 l 674 956 q 680 967 675 963 q 692 972 685 972 l 850 972 q 861 967 857 972 q 864 956 865 963 l 786 322 q 721 148 774 224 q 584 31 668 72 q 396 -11 500 -11 m 346 1061 q 335 1066 339 1061 q 332 1078 331 1071 l 344 1176 q 351 1188 346 1183 q 363 1193 356 1193 l 726 1193 q 738 1188 733 1193 q 740 1176 742 1183 l 728 1078 q 722 1066 726 1071 q 710 1061 717 1061 l 346 1061 z "},"Ų":{"ha":849,"x_min":85,"x_max":865,"o":"m 674 956 q 680 967 675 963 q 692 972 685 972 l 850 972 q 861 967 857 972 q 864 956 865 963 l 786 322 q 678 97 769 186 q 449 -8 588 8 q 442 -11 444 -8 q 381 -101 381 -61 q 392 -127 381 -118 q 421 -136 403 -136 q 447 -132 433 -136 l 454 -131 q 465 -144 467 -131 l 467 -214 q 453 -233 467 -229 q 368 -249 413 -249 q 284 -223 318 -249 q 250 -140 250 -197 q 315 -12 250 -74 q 314 -4 321 -7 q 146 90 207 17 q 85 274 85 164 q 88 322 85 289 l 165 956 q 172 967 167 963 q 185 972 178 972 l 342 972 q 353 967 349 972 q 356 956 357 963 l 278 321 q 276 294 276 311 q 314 194 276 232 q 417 157 351 157 q 537 202 488 157 q 596 321 586 247 l 674 956 z "},"Ů":{"ha":849,"x_min":85,"x_max":865,"o":"m 396 -11 q 169 67 253 -11 q 85 275 85 144 q 88 322 85 289 l 165 956 q 172 967 167 963 q 185 972 178 972 l 342 972 q 353 967 349 972 q 356 956 357 963 l 278 321 q 276 294 276 311 q 314 194 276 232 q 417 157 351 157 q 537 202 488 157 q 596 321 586 247 l 674 956 q 680 967 675 963 q 692 972 685 972 l 850 972 q 861 967 857 972 q 864 956 865 963 l 786 322 q 721 148 774 224 q 584 31 668 72 q 396 -11 500 -11 m 525 1040 q 418 1083 460 1040 q 376 1190 376 1125 q 403 1288 376 1243 q 473 1358 429 1332 q 568 1385 517 1385 q 674 1343 632 1385 q 715 1236 715 1301 q 690 1138 715 1183 q 619 1067 664 1093 q 525 1040 575 1040 m 539 1143 q 592 1167 568 1143 q 615 1222 615 1190 q 598 1266 615 1249 q 556 1283 581 1283 q 501 1260 525 1283 q 478 1204 478 1238 q 495 1160 478 1178 q 539 1143 513 1143 z "},"Ũ":{"ha":849,"x_min":85,"x_max":865,"o":"m 396 -11 q 169 67 253 -11 q 85 275 85 144 q 88 322 85 289 l 165 956 q 172 967 167 963 q 185 972 178 972 l 342 972 q 353 967 349 972 q 356 956 357 963 l 278 321 q 276 294 276 311 q 314 194 276 232 q 417 157 351 157 q 537 202 488 157 q 596 321 586 247 l 674 956 q 680 967 675 963 q 692 972 685 972 l 850 972 q 861 967 857 972 q 864 956 865 963 l 786 322 q 721 148 774 224 q 584 31 668 72 q 396 -11 500 -11 m 614 1054 q 567 1060 586 1054 q 526 1079 549 1067 q 488 1098 500 1093 q 461 1103 475 1103 q 385 1072 418 1103 q 372 1065 378 1065 q 363 1071 367 1065 l 315 1132 q 310 1144 310 1140 q 314 1156 310 1150 q 382 1218 342 1194 q 468 1242 422 1242 q 512 1235 493 1242 q 546 1220 531 1228 q 565 1210 561 1213 q 601 1190 589 1196 q 629 1185 614 1185 q 699 1218 669 1185 q 711 1225 704 1225 q 721 1219 717 1225 l 764 1157 q 765 1138 771 1146 q 703 1077 743 1100 q 614 1054 663 1054 z "},"V":{"ha":839,"x_min":128,"x_max":894,"o":"m 306 0 q 290 14 293 0 l 128 953 l 128 956 q 132 967 128 963 q 143 972 136 972 l 314 972 q 331 958 329 972 l 426 281 q 431 276 428 276 q 435 281 433 276 l 694 958 q 715 972 700 972 l 881 972 q 892 967 889 972 q 892 953 894 961 l 494 14 q 475 0 490 0 l 306 0 z "},"W":{"ha":1182,"x_min":124,"x_max":1244,"o":"m 264 0 q 247 14 249 0 l 124 954 l 124 957 q 139 972 124 972 l 307 972 q 322 958 321 972 l 381 393 q 385 388 382 388 q 389 393 388 388 l 582 957 q 601 972 589 972 l 765 972 q 782 958 781 972 l 847 393 q 851 388 847 389 q 856 393 854 388 l 1049 957 q 1068 972 1056 972 l 1226 972 q 1239 954 1244 972 l 903 14 q 882 0 897 0 l 722 0 q 707 14 708 0 l 643 615 q 640 621 642 621 q 635 615 638 621 l 433 15 q 414 0 429 0 l 264 0 z "},"Ẃ":{"ha":1240,"x_min":124,"x_max":1244,"o":"m 264 0 q 247 14 249 0 l 124 954 l 124 957 q 139 972 124 972 l 307 972 q 322 958 321 972 l 381 393 q 385 388 382 388 q 389 393 388 388 l 582 957 q 601 972 589 972 l 765 972 q 782 958 781 972 l 847 393 q 851 388 847 389 q 856 393 854 388 l 1049 957 q 1068 972 1056 972 l 1226 972 q 1239 954 1244 972 l 903 14 q 882 0 897 0 l 722 0 q 707 14 708 0 l 643 615 q 640 621 642 621 q 635 615 638 621 l 433 15 q 414 0 429 0 l 264 0 m 649 1058 q 636 1067 636 1058 q 640 1078 636 1072 l 729 1218 q 750 1231 735 1231 l 886 1231 q 899 1221 899 1231 q 894 1210 899 1217 l 782 1069 q 761 1058 774 1058 l 649 1058 z "},"Ŵ":{"ha":1240,"x_min":124,"x_max":1244,"o":"m 264 0 q 247 14 249 0 l 124 954 l 124 957 q 139 972 124 972 l 307 972 q 322 958 321 972 l 381 393 q 385 388 382 388 q 389 393 388 388 l 582 957 q 601 972 589 972 l 765 972 q 782 958 781 972 l 847 393 q 851 388 847 389 q 856 393 854 388 l 1049 957 q 1068 972 1056 972 l 1226 972 q 1239 954 1244 972 l 903 14 q 882 0 897 0 l 722 0 q 707 14 708 0 l 643 615 q 640 621 642 621 q 635 615 638 621 l 433 15 q 414 0 429 0 l 264 0 m 525 1053 q 513 1063 513 1053 q 517 1074 513 1068 l 633 1219 q 653 1231 640 1231 l 832 1231 q 850 1219 844 1231 l 935 1074 q 938 1065 938 1068 q 933 1056 938 1060 q 921 1053 928 1053 l 800 1053 q 782 1064 786 1053 l 739 1149 q 731 1149 735 1157 l 667 1064 q 646 1053 658 1053 l 525 1053 z "},"Ẅ":{"ha":1240,"x_min":124,"x_max":1244,"o":"m 264 0 q 247 14 249 0 l 124 954 l 124 957 q 139 972 124 972 l 307 972 q 322 958 321 972 l 381 393 q 385 388 382 388 q 389 393 388 388 l 582 957 q 601 972 589 972 l 765 972 q 782 958 781 972 l 847 393 q 851 388 847 389 q 856 393 854 388 l 1049 957 q 1068 972 1056 972 l 1226 972 q 1239 954 1244 972 l 903 14 q 882 0 897 0 l 722 0 q 707 14 708 0 l 643 615 q 640 621 642 621 q 635 615 638 621 l 433 15 q 414 0 429 0 l 264 0 z "},"Ẁ":{"ha":1240,"x_min":124,"x_max":1244,"o":"m 264 0 q 247 14 249 0 l 124 954 l 124 957 q 139 972 124 972 l 307 972 q 322 958 321 972 l 381 393 q 385 388 382 388 q 389 393 388 388 l 582 957 q 601 972 589 972 l 765 972 q 782 958 781 972 l 847 393 q 851 388 847 389 q 856 393 854 388 l 1049 957 q 1068 972 1056 972 l 1226 972 q 1239 954 1244 972 l 903 14 q 882 0 897 0 l 722 0 q 707 14 708 0 l 643 615 q 640 621 642 621 q 635 615 638 621 l 433 15 q 414 0 429 0 l 264 0 m 794 1078 q 796 1071 796 1075 q 792 1062 796 1065 q 782 1058 788 1058 l 668 1058 q 651 1069 656 1058 l 572 1210 q 569 1218 569 1215 q 574 1227 569 1224 q 586 1231 579 1231 l 722 1231 q 740 1218 736 1231 l 794 1078 z "},"X":{"ha":850,"x_min":13,"x_max":901,"o":"m 28 0 q 16 6 19 0 q 18 19 13 11 l 336 482 q 338 490 340 486 l 133 953 q 132 960 132 956 q 147 972 132 972 l 319 972 q 331 969 325 972 q 338 961 336 967 l 474 643 q 478 639 476 639 q 482 643 479 639 l 696 961 q 718 972 704 972 l 888 972 q 901 964 901 972 q 897 953 901 960 l 579 490 q 578 482 576 485 l 782 19 q 783 11 783 17 q 768 0 783 0 l 599 0 q 579 11 583 0 l 443 328 q 435 328 442 336 l 219 11 q 210 3 217 6 q 199 0 204 0 l 28 0 z "},"Y":{"ha":832,"x_min":131,"x_max":886,"o":"m 310 1 q 299 6 303 1 q 296 18 294 11 l 339 369 q 340 373 339 371 q 339 378 340 375 l 132 953 q 131 960 131 956 q 146 972 131 972 l 317 972 q 333 960 329 972 l 457 590 q 464 590 460 581 l 678 960 q 699 972 685 972 l 871 972 q 883 967 881 972 q 881 953 886 963 l 531 378 q 528 369 528 375 l 485 18 q 478 6 483 11 q 467 1 474 1 l 310 1 z "},"Ý":{"ha":832,"x_min":131,"x_max":886,"o":"m 310 1 q 299 6 303 1 q 296 18 294 11 l 339 369 q 340 373 339 371 q 339 378 340 375 l 132 953 q 131 960 131 956 q 146 972 131 972 l 317 972 q 333 960 329 972 l 457 590 q 464 590 460 581 l 678 960 q 699 972 685 972 l 871 972 q 883 967 881 972 q 881 953 886 963 l 531 378 q 528 369 528 375 l 485 18 q 478 6 483 11 q 467 1 474 1 l 310 1 m 443 1057 q 431 1065 431 1057 q 435 1076 431 1071 l 524 1217 q 544 1229 529 1229 l 681 1229 q 693 1219 693 1229 q 689 1208 693 1215 l 576 1068 q 556 1057 568 1057 l 443 1057 z "},"Ŷ":{"ha":832,"x_min":131,"x_max":886,"o":"m 310 1 q 299 6 303 1 q 296 18 294 11 l 339 369 q 340 373 339 371 q 339 378 340 375 l 132 953 q 131 960 131 956 q 146 972 131 972 l 317 972 q 333 960 329 972 l 457 590 q 464 590 460 581 l 678 960 q 699 972 685 972 l 871 972 q 883 967 881 972 q 881 953 886 963 l 531 378 q 528 369 528 375 l 485 18 q 478 6 483 11 q 467 1 474 1 l 310 1 m 321 1051 q 308 1061 308 1051 q 313 1072 308 1067 l 429 1218 q 449 1229 436 1229 l 628 1229 q 646 1218 640 1229 l 731 1072 q 733 1064 733 1067 q 728 1055 733 1058 q 717 1051 724 1051 l 596 1051 q 578 1063 582 1051 l 535 1147 q 526 1147 531 1156 l 463 1063 q 442 1051 454 1051 l 321 1051 z "},"Ÿ":{"ha":832,"x_min":131,"x_max":886,"o":"m 310 1 q 299 6 303 1 q 296 18 294 11 l 339 369 q 340 373 339 371 q 339 378 340 375 l 132 953 q 131 960 131 956 q 146 972 131 972 l 317 972 q 333 960 329 972 l 457 590 q 464 590 460 581 l 678 960 q 699 972 685 972 l 871 972 q 883 967 881 972 q 881 953 886 963 l 531 378 q 528 369 528 375 l 485 18 q 478 6 483 11 q 467 1 474 1 l 310 1 z "},"Ỵ":{"ha":832,"x_min":131,"x_max":886,"o":"m 310 1 q 299 6 303 1 q 296 18 294 11 l 339 369 q 340 373 339 371 q 339 378 340 375 l 132 953 q 131 960 131 956 q 146 972 131 972 l 317 972 q 333 960 329 972 l 457 590 q 464 590 460 581 l 678 960 q 699 972 685 972 l 871 972 q 883 967 881 972 q 881 953 886 963 l 531 378 q 528 369 528 375 l 485 18 q 478 6 483 11 q 467 1 474 1 l 310 1 m 351 -300 q 288 -276 313 -300 q 263 -212 263 -251 q 295 -125 263 -158 q 378 -92 328 -92 q 442 -116 418 -92 q 467 -179 467 -140 q 433 -265 467 -231 q 351 -300 400 -300 z "},"Ỳ":{"ha":832,"x_min":131,"x_max":886,"o":"m 310 1 q 299 6 303 1 q 296 18 294 11 l 339 369 q 340 373 339 371 q 339 378 340 375 l 132 953 q 131 960 131 956 q 146 972 131 972 l 317 972 q 333 960 329 972 l 457 590 q 464 590 460 581 l 678 960 q 699 972 685 972 l 871 972 q 883 967 881 972 q 881 953 886 963 l 531 378 q 528 369 528 375 l 485 18 q 478 6 483 11 q 467 1 474 1 l 310 1 m 589 1076 q 590 1069 590 1074 q 586 1060 590 1064 q 576 1057 582 1057 l 463 1057 q 446 1068 450 1057 l 367 1208 q 364 1217 364 1214 q 369 1226 364 1222 q 381 1229 374 1229 l 517 1229 q 535 1217 531 1229 l 589 1076 z "},"Ỷ":{"ha":832,"x_min":131,"x_max":886,"o":"m 310 1 q 299 6 303 1 q 296 18 294 11 l 339 369 q 340 373 339 371 q 339 378 340 375 l 132 953 q 131 960 131 956 q 146 972 131 972 l 317 972 q 333 960 329 972 l 457 590 q 464 590 460 581 l 678 960 q 699 972 685 972 l 871 972 q 883 967 881 972 q 881 953 886 963 l 531 378 q 528 369 528 375 l 485 18 q 478 6 483 11 q 467 1 474 1 l 310 1 m 497 1036 q 488 1057 479 1040 q 540 1125 507 1094 q 564 1153 557 1143 q 572 1182 571 1164 q 564 1206 574 1196 q 539 1215 554 1215 q 508 1207 521 1215 q 474 1174 494 1199 q 461 1165 468 1167 q 449 1169 454 1164 l 407 1204 q 401 1215 401 1208 q 407 1228 401 1222 q 474 1291 440 1272 q 556 1310 507 1310 q 643 1281 611 1310 q 675 1201 675 1253 q 659 1135 675 1161 q 611 1081 643 1110 q 569 1036 581 1053 q 547 1025 560 1022 l 497 1036 z "},"Ỹ":{"ha":832,"x_min":131,"x_max":886,"o":"m 310 1 q 299 6 303 1 q 296 18 294 11 l 339 369 q 340 373 339 371 q 339 378 340 375 l 132 953 q 131 960 131 956 q 146 972 131 972 l 317 972 q 333 960 329 972 l 457 590 q 464 590 460 581 l 678 960 q 699 972 685 972 l 871 972 q 883 967 881 972 q 881 953 886 963 l 531 378 q 528 369 528 375 l 485 18 q 478 6 483 11 q 467 1 474 1 l 310 1 m 604 1053 q 558 1059 576 1053 q 517 1078 539 1065 q 478 1097 490 1092 q 451 1101 465 1101 q 375 1071 408 1101 q 363 1064 368 1064 q 353 1069 357 1064 l 306 1131 q 300 1143 300 1139 q 304 1154 300 1149 q 372 1217 332 1193 q 458 1240 413 1240 q 502 1233 483 1240 q 536 1219 521 1226 q 556 1208 551 1211 q 592 1189 579 1194 q 619 1183 604 1183 q 689 1217 660 1183 q 701 1224 694 1224 q 711 1218 707 1224 l 754 1156 q 756 1136 761 1144 q 693 1076 733 1099 q 604 1053 653 1053 z "},"Z":{"ha":750,"x_min":17,"x_max":790,"o":"m 32 0 q 21 5 25 0 q 18 17 17 10 l 36 167 q 46 188 38 176 l 556 796 q 557 801 558 799 q 551 804 556 804 l 131 804 q 119 809 124 804 q 117 821 115 814 l 133 956 q 140 967 135 963 q 151 972 144 972 l 775 972 q 790 956 790 972 l 771 806 q 763 785 771 796 l 251 176 q 251 171 250 174 q 257 168 253 168 l 676 168 q 688 163 683 168 q 690 151 692 158 l 675 17 q 668 5 674 10 q 656 0 663 0 l 32 0 z "},"Ź":{"ha":750,"x_min":17,"x_max":790,"o":"m 32 0 q 21 5 25 0 q 18 17 17 10 l 36 167 q 46 188 38 176 l 556 796 q 557 801 558 799 q 551 804 556 804 l 131 804 q 119 809 124 804 q 117 821 115 814 l 133 956 q 140 967 135 963 q 151 972 144 972 l 775 972 q 790 956 790 972 l 771 806 q 763 785 771 796 l 251 176 q 251 171 250 174 q 257 168 253 168 l 676 168 q 688 163 683 168 q 690 151 692 158 l 675 17 q 668 5 674 10 q 656 0 663 0 l 32 0 m 401 1058 q 389 1067 389 1058 q 393 1078 389 1072 l 482 1218 q 503 1231 488 1231 l 639 1231 q 651 1221 651 1231 q 647 1210 651 1217 l 535 1069 q 514 1058 526 1058 l 401 1058 z "},"Ž":{"ha":750,"x_min":17,"x_max":790,"o":"m 32 0 q 21 5 25 0 q 18 17 17 10 l 36 167 q 46 188 38 176 l 556 796 q 557 801 558 799 q 551 804 556 804 l 131 804 q 119 809 124 804 q 117 821 115 814 l 133 956 q 140 967 135 963 q 151 972 144 972 l 775 972 q 790 956 790 972 l 771 806 q 763 785 771 796 l 251 176 q 251 171 250 174 q 257 168 253 168 l 676 168 q 688 163 683 168 q 690 151 692 158 l 675 17 q 668 5 674 10 q 656 0 663 0 l 32 0 m 296 1210 q 293 1218 293 1215 q 297 1227 293 1224 q 308 1231 301 1231 l 431 1231 q 447 1219 443 1231 l 492 1135 q 499 1135 494 1125 l 564 1219 q 583 1231 571 1231 l 706 1231 q 718 1221 718 1231 q 714 1210 718 1217 l 593 1063 q 572 1053 585 1053 l 393 1053 q 376 1064 381 1053 l 296 1210 z "},"Ż":{"ha":750,"x_min":17,"x_max":790,"o":"m 32 0 q 21 5 25 0 q 18 17 17 10 l 36 167 q 46 188 38 176 l 556 796 q 557 801 558 799 q 551 804 556 804 l 131 804 q 119 809 124 804 q 117 821 115 814 l 133 956 q 140 967 135 963 q 151 972 144 972 l 775 972 q 790 956 790 972 l 771 806 q 763 785 771 796 l 251 176 q 251 171 250 174 q 257 168 253 168 l 676 168 q 688 163 683 168 q 690 151 692 158 l 675 17 q 668 5 674 10 q 656 0 663 0 l 32 0 m 475 1053 q 407 1080 433 1053 q 381 1149 381 1107 q 416 1237 381 1201 q 503 1272 451 1272 q 572 1247 546 1272 q 597 1178 597 1221 q 561 1089 597 1125 q 475 1053 525 1053 z "},"Ģ":{"ha":824,"x_min":74,"x_max":819,"o":"m 385 -11 q 158 68 242 -11 q 74 279 74 147 q 76 331 74 313 l 115 642 q 181 821 128 743 q 318 941 233 899 q 507 983 403 983 q 672 948 601 983 q 781 850 743 913 q 819 708 819 788 q 817 669 819 694 l 815 660 q 809 648 814 653 q 797 643 804 643 l 639 643 q 628 648 632 643 q 625 660 624 653 l 626 664 q 628 683 628 671 q 590 778 628 742 q 486 815 553 815 q 365 769 414 815 q 306 647 315 722 l 267 325 q 265 300 265 317 q 306 197 265 236 q 413 157 347 157 q 529 195 483 157 q 583 301 575 233 l 592 364 q 586 371 592 371 l 435 371 q 424 376 428 371 q 421 388 419 381 l 436 515 q 442 527 438 522 q 454 532 447 532 l 783 532 q 794 527 790 532 q 797 515 799 522 l 775 332 q 649 81 756 172 q 385 -11 543 -11 z "},"Ķ":{"ha":843,"x_min":56,"x_max":896,"o":"m 71 0 q 60 5 64 0 q 57 17 56 10 l 172 956 q 178 967 174 963 q 190 972 183 972 l 349 972 q 360 967 356 972 q 363 956 364 963 l 315 567 q 317 562 314 563 q 322 564 319 561 l 683 963 q 704 972 692 972 l 882 972 q 896 963 896 972 q 890 951 896 957 l 542 556 q 539 546 536 550 l 792 19 q 793 11 793 17 q 779 0 793 0 l 601 0 q 583 11 588 0 l 393 411 q 389 414 392 414 q 383 411 386 414 l 285 301 l 281 293 l 247 17 q 241 5 246 10 q 229 0 236 0 l 71 0 z "},"Ņ":{"ha":896,"x_min":56,"x_max":906,"o":"m 714 956 q 720 967 715 963 q 732 972 725 972 l 890 972 q 901 967 897 972 q 904 956 906 963 l 789 17 q 783 5 788 10 q 771 0 778 0 l 618 0 q 601 11 606 0 l 325 606 q 321 609 324 610 q 317 603 318 608 l 247 17 q 241 5 246 10 q 229 0 236 0 l 71 0 q 60 5 64 0 q 57 17 56 10 l 172 956 q 178 967 174 963 q 190 972 183 972 l 343 972 q 361 961 356 972 l 636 369 q 640 366 638 365 q 644 372 643 367 l 714 956 z "},"Ŗ":{"ha":826,"x_min":56,"x_max":831,"o":"m 572 0 q 556 13 560 0 l 435 397 q 426 403 432 403 l 301 403 q 294 396 294 403 l 247 17 q 241 5 246 10 q 229 0 236 0 l 71 0 q 60 5 64 0 q 57 17 56 10 l 172 956 q 178 967 174 963 q 190 972 183 972 l 576 972 q 763 906 694 972 q 831 726 831 839 q 828 679 831 713 q 763 517 817 585 q 624 422 708 450 q 618 413 615 419 l 753 19 q 754 13 754 17 q 739 0 754 0 l 572 0 m 350 804 q 345 802 347 804 q 343 797 343 800 l 314 560 q 319 553 314 553 l 496 553 q 600 592 558 553 q 642 694 642 632 q 610 774 642 744 q 528 804 579 804 l 350 804 z "},"Ţ":{"ha":788,"x_min":110,"x_max":840,"o":"m 825 972 q 836 967 832 972 q 839 956 840 963 l 822 819 q 817 808 822 813 q 804 803 811 803 l 564 803 q 556 796 558 803 l 460 17 q 453 5 458 10 q 442 0 449 0 l 285 0 q 274 5 278 0 q 271 17 269 10 l 365 796 q 360 803 368 803 l 125 803 q 114 808 118 803 q 111 819 110 813 l 128 956 q 134 967 129 963 q 146 972 139 972 l 825 972 m 297 -253 q 288 -233 283 -249 l 306 -164 q 326 -151 310 -147 q 353 -156 340 -156 q 390 -143 375 -156 q 404 -106 404 -131 q 351 -21 404 -69 q 344 -10 344 -14 q 360 0 344 0 l 447 0 q 465 -7 458 0 q 526 -129 526 -64 q 517 -179 526 -156 q 461 -247 499 -226 q 378 -268 424 -268 q 297 -253 336 -268 z "},"Ș":{"ha":801,"x_min":53,"x_max":804,"o":"m 378 -11 q 140 57 226 -11 q 53 242 53 125 q 56 279 53 254 l 60 310 q 66 322 61 317 q 78 326 71 326 l 232 326 q 243 322 239 326 q 246 310 247 317 l 243 289 q 281 195 236 233 q 411 157 326 157 q 528 192 489 157 q 568 276 568 226 q 548 328 568 307 q 494 365 528 349 q 386 410 460 381 q 250 470 306 440 q 157 550 194 500 q 119 674 119 600 q 122 708 119 683 q 238 909 138 835 q 485 983 338 983 q 652 951 579 983 q 765 859 725 918 q 804 721 804 800 q 801 685 804 710 l 799 664 q 792 652 797 657 q 781 647 788 647 l 625 647 q 614 652 618 647 q 611 664 610 657 l 613 675 q 578 774 619 733 q 456 815 538 815 q 347 784 388 815 q 307 699 307 753 q 326 647 307 668 q 384 608 346 626 q 500 560 422 590 q 634 501 586 525 q 721 428 682 476 q 760 306 760 379 q 757 271 760 296 q 638 65 740 140 q 378 -11 536 -11 z "},"Ț":{"ha":788,"x_min":110,"x_max":840,"o":"m 825 972 q 836 967 832 972 q 839 956 840 963 l 822 819 q 817 808 822 813 q 804 803 811 803 l 564 803 q 556 796 558 803 l 460 17 q 453 5 458 10 q 442 0 449 0 l 285 0 q 274 5 278 0 q 271 17 269 10 l 365 796 q 360 803 368 803 l 125 803 q 114 808 118 803 q 111 819 110 813 l 128 956 q 134 967 129 963 q 146 972 139 972 l 825 972 z "},"a":{"ha":760,"x_min":63,"x_max":750,"o":"m 558 697 q 565 709 560 704 q 576 714 569 714 l 735 714 q 746 709 742 714 q 749 697 750 704 l 665 17 q 659 5 664 10 q 647 0 654 0 l 489 0 q 478 5 482 0 q 475 17 474 10 l 482 76 q 481 83 483 82 q 475 79 478 83 q 294 -11 408 -11 q 143 45 206 -11 q 67 197 81 101 q 63 257 63 226 q 69 358 63 299 q 114 536 83 467 q 226 672 151 619 q 393 725 300 725 q 544 644 504 725 q 549 640 547 640 q 553 646 551 640 l 558 697 m 486 239 q 504 285 497 260 q 517 356 511 310 q 522 421 522 393 q 514 478 522 444 q 482 535 507 514 q 418 557 457 557 q 347 535 378 557 q 299 476 315 513 q 268 357 276 435 q 263 289 263 318 q 269 239 263 263 q 303 179 276 201 q 369 157 329 157 q 440 179 410 157 q 486 239 469 201 z "},"á":{"ha":711,"x_min":63,"x_max":750,"o":"m 558 697 q 565 709 560 704 q 576 714 569 714 l 735 714 q 746 709 742 714 q 749 697 750 704 l 665 17 q 659 5 664 10 q 647 0 654 0 l 489 0 q 478 5 482 0 q 475 17 474 10 l 482 76 q 481 83 483 82 q 475 79 478 83 q 294 -11 408 -11 q 143 45 206 -11 q 67 197 81 101 q 63 257 63 226 q 69 358 63 299 q 114 536 83 467 q 226 672 151 619 q 393 725 300 725 q 544 644 504 725 q 549 640 547 640 q 553 646 551 640 l 558 697 m 486 239 q 504 285 497 260 q 517 356 511 310 q 522 421 522 393 q 514 478 522 444 q 482 535 507 514 q 418 557 457 557 q 347 535 378 557 q 299 476 315 513 q 268 357 276 435 q 263 289 263 318 q 269 239 263 263 q 303 179 276 201 q 369 157 329 157 q 440 179 410 157 q 486 239 469 201 m 353 800 q 340 808 340 800 q 344 819 340 814 l 433 960 q 454 972 439 972 l 590 972 q 603 963 603 972 q 599 951 603 958 l 486 811 q 465 800 478 800 l 353 800 z "},"ă":{"ha":711,"x_min":63,"x_max":750,"o":"m 558 697 q 565 709 560 704 q 576 714 569 714 l 735 714 q 746 709 742 714 q 749 697 750 704 l 665 17 q 659 5 664 10 q 647 0 654 0 l 489 0 q 478 5 482 0 q 475 17 474 10 l 482 76 q 481 83 483 82 q 475 79 478 83 q 294 -11 408 -11 q 143 45 206 -11 q 67 197 81 101 q 63 257 63 226 q 69 358 63 299 q 114 536 83 467 q 226 672 151 619 q 393 725 300 725 q 544 644 504 725 q 549 640 547 640 q 553 646 551 640 l 558 697 m 486 239 q 504 285 497 260 q 517 356 511 310 q 522 421 522 393 q 514 478 522 444 q 482 535 507 514 q 418 557 457 557 q 347 535 378 557 q 299 476 315 513 q 268 357 276 435 q 263 289 263 318 q 269 239 263 263 q 303 179 276 201 q 369 157 329 157 q 440 179 410 157 q 486 239 469 201 m 424 774 q 283 819 336 774 q 232 939 229 865 q 249 956 232 956 l 339 956 q 354 940 351 956 q 379 893 357 911 q 436 875 401 875 q 498 893 471 875 q 535 940 525 911 q 553 956 539 956 l 643 956 q 653 951 650 956 q 656 942 657 947 q 576 821 640 868 q 424 774 511 774 z "},"ắ":{"ha":711,"x_min":63,"x_max":750,"o":"m 558 697 q 565 709 560 704 q 576 714 569 714 l 735 714 q 746 709 742 714 q 749 697 750 704 l 665 17 q 659 5 664 10 q 647 0 654 0 l 489 0 q 478 5 482 0 q 475 17 474 10 l 482 76 q 481 83 483 82 q 475 79 478 83 q 294 -11 408 -11 q 143 45 206 -11 q 67 197 81 101 q 63 257 63 226 q 69 358 63 299 q 114 536 83 467 q 226 672 151 619 q 393 725 300 725 q 544 644 504 725 q 549 640 547 640 q 553 646 551 640 l 558 697 m 486 239 q 504 285 497 260 q 517 356 511 310 q 522 421 522 393 q 514 478 522 444 q 482 535 507 514 q 418 557 457 557 q 347 535 378 557 q 299 476 315 513 q 268 357 276 435 q 263 289 263 318 q 269 239 263 263 q 303 179 276 201 q 369 157 329 157 q 440 179 410 157 q 486 239 469 201 z "},"ặ":{"ha":711,"x_min":63,"x_max":750,"o":"m 558 697 q 565 709 560 704 q 576 714 569 714 l 735 714 q 746 709 742 714 q 749 697 750 704 l 665 17 q 659 5 664 10 q 647 0 654 0 l 489 0 q 478 5 482 0 q 475 17 474 10 l 482 76 q 481 83 483 82 q 475 79 478 83 q 294 -11 408 -11 q 143 45 206 -11 q 67 197 81 101 q 63 257 63 226 q 69 358 63 299 q 114 536 83 467 q 226 672 151 619 q 393 725 300 725 q 544 644 504 725 q 549 640 547 640 q 553 646 551 640 l 558 697 m 486 239 q 504 285 497 260 q 517 356 511 310 q 522 421 522 393 q 514 478 522 444 q 482 535 507 514 q 418 557 457 557 q 347 535 378 557 q 299 476 315 513 q 268 357 276 435 q 263 289 263 318 q 269 239 263 263 q 303 179 276 201 q 369 157 329 157 q 440 179 410 157 q 486 239 469 201 m 292 -300 q 228 -276 253 -300 q 203 -212 203 -251 q 235 -125 203 -158 q 318 -92 268 -92 q 383 -116 358 -92 q 407 -179 407 -140 q 374 -265 407 -231 q 292 -300 340 -300 m 425 786 q 287 830 340 786 q 233 942 233 874 q 250 961 233 961 l 331 960 q 346 944 343 960 q 373 897 347 915 q 438 879 399 879 q 507 897 476 879 q 547 946 538 915 q 565 961 551 961 l 643 961 q 656 958 651 961 q 657 947 660 954 q 578 832 643 878 q 425 786 513 786 z "},"ằ":{"ha":711,"x_min":63,"x_max":750,"o":"m 558 697 q 565 709 560 704 q 576 714 569 714 l 735 714 q 746 709 742 714 q 749 697 750 704 l 665 17 q 659 5 664 10 q 647 0 654 0 l 489 0 q 478 5 482 0 q 475 17 474 10 l 482 76 q 481 83 483 82 q 475 79 478 83 q 294 -11 408 -11 q 143 45 206 -11 q 67 197 81 101 q 63 257 63 226 q 69 358 63 299 q 114 536 83 467 q 226 672 151 619 q 393 725 300 725 q 544 644 504 725 q 549 640 547 640 q 553 646 551 640 l 558 697 m 486 239 q 504 285 497 260 q 517 356 511 310 q 522 421 522 393 q 514 478 522 444 q 482 535 507 514 q 418 557 457 557 q 347 535 378 557 q 299 476 315 513 q 268 357 276 435 q 263 289 263 318 q 269 239 263 263 q 303 179 276 201 q 369 157 329 157 q 440 179 410 157 q 486 239 469 201 z "},"ẳ":{"ha":711,"x_min":63,"x_max":750,"o":"m 558 697 q 565 709 560 704 q 576 714 569 714 l 735 714 q 746 709 742 714 q 749 697 750 704 l 665 17 q 659 5 664 10 q 647 0 654 0 l 489 0 q 478 5 482 0 q 475 17 474 10 l 482 76 q 481 83 483 82 q 475 79 478 83 q 294 -11 408 -11 q 143 45 206 -11 q 67 197 81 101 q 63 257 63 226 q 69 358 63 299 q 114 536 83 467 q 226 672 151 619 q 393 725 300 725 q 544 644 504 725 q 549 640 547 640 q 553 646 551 640 l 558 697 m 486 239 q 504 285 497 260 q 517 356 511 310 q 522 421 522 393 q 514 478 522 444 q 482 535 507 514 q 418 557 457 557 q 347 535 378 557 q 299 476 315 513 q 268 357 276 435 q 263 289 263 318 q 269 239 263 263 q 303 179 276 201 q 369 157 329 157 q 440 179 410 157 q 486 239 469 201 z "},"ẵ":{"ha":711,"x_min":63,"x_max":750,"o":"m 558 697 q 565 709 560 704 q 576 714 569 714 l 735 714 q 746 709 742 714 q 749 697 750 704 l 665 17 q 659 5 664 10 q 647 0 654 0 l 489 0 q 478 5 482 0 q 475 17 474 10 l 482 76 q 481 83 483 82 q 475 79 478 83 q 294 -11 408 -11 q 143 45 206 -11 q 67 197 81 101 q 63 257 63 226 q 69 358 63 299 q 114 536 83 467 q 226 672 151 619 q 393 725 300 725 q 544 644 504 725 q 549 640 547 640 q 553 646 551 640 l 558 697 m 486 239 q 504 285 497 260 q 517 356 511 310 q 522 421 522 393 q 514 478 522 444 q 482 535 507 514 q 418 557 457 557 q 347 535 378 557 q 299 476 315 513 q 268 357 276 435 q 263 289 263 318 q 269 239 263 263 q 303 179 276 201 q 369 157 329 157 q 440 179 410 157 q 486 239 469 201 m 529 992 q 490 997 506 992 q 453 1014 474 1003 q 421 1029 433 1025 q 396 1033 408 1033 q 332 1010 360 1033 q 308 1008 317 996 l 269 1058 q 264 1069 264 1064 q 269 1082 264 1076 q 328 1135 293 1115 q 401 1156 363 1156 q 440 1150 424 1156 q 469 1138 456 1144 q 488 1128 482 1131 q 517 1112 506 1117 q 543 1107 529 1107 q 603 1133 576 1107 q 617 1140 613 1140 q 626 1135 622 1140 l 661 1083 q 663 1064 668 1072 q 608 1012 643 1032 q 529 992 572 992 m 425 786 q 287 830 340 786 q 233 942 233 874 q 250 961 233 961 l 331 960 q 346 944 343 960 q 373 897 347 915 q 438 879 399 879 q 507 897 476 879 q 547 946 538 915 q 565 961 551 961 l 643 961 q 655 958 651 961 q 657 947 658 954 q 578 832 643 878 q 425 786 513 786 z "},"ǎ":{"ha":711,"x_min":63,"x_max":750,"o":"m 558 697 q 565 709 560 704 q 576 714 569 714 l 735 714 q 746 709 742 714 q 749 697 750 704 l 665 17 q 659 5 664 10 q 647 0 654 0 l 489 0 q 478 5 482 0 q 475 17 474 10 l 482 76 q 481 83 483 82 q 475 79 478 83 q 294 -11 408 -11 q 143 45 206 -11 q 67 197 81 101 q 63 257 63 226 q 69 358 63 299 q 114 536 83 467 q 226 672 151 619 q 393 725 300 725 q 544 644 504 725 q 549 640 547 640 q 553 646 551 640 l 558 697 m 486 239 q 504 285 497 260 q 517 356 511 310 q 522 421 522 393 q 514 478 522 444 q 482 535 507 514 q 418 557 457 557 q 347 535 378 557 q 299 476 315 513 q 268 357 276 435 q 263 289 263 318 q 269 239 263 263 q 303 179 276 201 q 369 157 329 157 q 440 179 410 157 q 486 239 469 201 z "},"â":{"ha":711,"x_min":63,"x_max":750,"o":"m 558 697 q 565 709 560 704 q 576 714 569 714 l 735 714 q 746 709 742 714 q 749 697 750 704 l 665 17 q 659 5 664 10 q 647 0 654 0 l 489 0 q 478 5 482 0 q 475 17 474 10 l 482 76 q 481 83 483 82 q 475 79 478 83 q 294 -11 408 -11 q 143 45 206 -11 q 67 197 81 101 q 63 257 63 226 q 69 358 63 299 q 114 536 83 467 q 226 672 151 619 q 393 725 300 725 q 544 644 504 725 q 549 640 547 640 q 553 646 551 640 l 558 697 m 486 239 q 504 285 497 260 q 517 356 511 310 q 522 421 522 393 q 514 478 522 444 q 482 535 507 514 q 418 557 457 557 q 347 535 378 557 q 299 476 315 513 q 268 357 276 435 q 263 289 263 318 q 269 239 263 263 q 303 179 276 201 q 369 157 329 157 q 440 179 410 157 q 486 239 469 201 m 229 794 q 217 804 217 794 q 221 815 217 810 l 338 961 q 357 972 344 972 l 536 972 q 554 961 549 972 l 639 815 q 642 807 642 810 q 637 798 642 801 q 625 794 632 794 l 504 794 q 486 806 490 794 l 443 890 q 435 890 439 899 l 371 806 q 350 794 363 794 l 229 794 z "},"ấ":{"ha":711,"x_min":63,"x_max":906,"o":"m 558 697 q 565 709 560 704 q 576 714 569 714 l 735 714 q 746 709 742 714 q 749 697 750 704 l 665 17 q 659 5 664 10 q 647 0 654 0 l 489 0 q 478 5 482 0 q 475 17 474 10 l 482 76 q 481 83 483 82 q 475 79 478 83 q 294 -11 408 -11 q 143 45 206 -11 q 67 197 81 101 q 63 257 63 226 q 69 358 63 299 q 114 536 83 467 q 226 672 151 619 q 393 725 300 725 q 544 644 504 725 q 549 640 547 640 q 553 646 551 640 l 558 697 m 486 239 q 504 285 497 260 q 517 356 511 310 q 522 421 522 393 q 514 478 522 444 q 482 535 507 514 q 418 557 457 557 q 347 535 378 557 q 299 476 315 513 q 268 357 276 435 q 263 289 263 318 q 269 239 263 263 q 303 179 276 201 q 369 157 329 157 q 440 179 410 157 q 486 239 469 201 z "},"ậ":{"ha":711,"x_min":63,"x_max":750,"o":"m 558 697 q 565 709 560 704 q 576 714 569 714 l 735 714 q 746 709 742 714 q 749 697 750 704 l 665 17 q 659 5 664 10 q 647 0 654 0 l 489 0 q 478 5 482 0 q 475 17 474 10 l 482 76 q 481 83 483 82 q 475 79 478 83 q 294 -11 408 -11 q 143 45 206 -11 q 67 197 81 101 q 63 257 63 226 q 69 358 63 299 q 114 536 83 467 q 226 672 151 619 q 393 725 300 725 q 544 644 504 725 q 549 640 547 640 q 553 646 551 640 l 558 697 m 486 239 q 504 285 497 260 q 517 356 511 310 q 522 421 522 393 q 514 478 522 444 q 482 535 507 514 q 418 557 457 557 q 347 535 378 557 q 299 476 315 513 q 268 357 276 435 q 263 289 263 318 q 269 239 263 263 q 303 179 276 201 q 369 157 329 157 q 440 179 410 157 q 486 239 469 201 m 292 -300 q 228 -276 253 -300 q 203 -212 203 -251 q 235 -125 203 -158 q 318 -92 268 -92 q 383 -116 358 -92 q 407 -179 407 -140 q 374 -265 407 -231 q 292 -300 340 -300 m 229 794 q 217 804 217 794 q 221 815 217 810 l 338 961 q 357 972 344 972 l 536 972 q 554 961 549 972 l 639 815 q 642 807 642 810 q 637 798 642 801 q 625 794 632 794 l 504 794 q 486 806 490 794 l 443 890 q 435 890 439 899 l 371 806 q 350 794 363 794 l 229 794 z "},"ầ":{"ha":711,"x_min":63,"x_max":768,"o":"m 558 697 q 565 709 560 704 q 576 714 569 714 l 735 714 q 746 709 742 714 q 749 697 750 704 l 665 17 q 659 5 664 10 q 647 0 654 0 l 489 0 q 478 5 482 0 q 475 17 474 10 l 482 76 q 481 83 483 82 q 475 79 478 83 q 294 -11 408 -11 q 143 45 206 -11 q 67 197 81 101 q 63 257 63 226 q 69 358 63 299 q 114 536 83 467 q 226 672 151 619 q 393 725 300 725 q 544 644 504 725 q 549 640 547 640 q 553 646 551 640 l 558 697 m 486 239 q 504 285 497 260 q 517 356 511 310 q 522 421 522 393 q 514 478 522 444 q 482 535 507 514 q 418 557 457 557 q 347 535 378 557 q 299 476 315 513 q 268 357 276 435 q 263 289 263 318 q 269 239 263 263 q 303 179 276 201 q 369 157 329 157 q 440 179 410 157 q 486 239 469 201 z "},"ẩ":{"ha":711,"x_min":63,"x_max":811,"o":"m 558 697 q 565 709 560 704 q 576 714 569 714 l 735 714 q 746 709 742 714 q 749 697 750 704 l 665 17 q 659 5 664 10 q 647 0 654 0 l 489 0 q 478 5 482 0 q 475 17 474 10 l 482 76 q 481 83 483 82 q 475 79 478 83 q 294 -11 408 -11 q 143 45 206 -11 q 67 197 81 101 q 63 257 63 226 q 69 358 63 299 q 114 536 83 467 q 226 672 151 619 q 393 725 300 725 q 544 644 504 725 q 549 640 547 640 q 553 646 551 640 l 558 697 m 486 239 q 504 285 497 260 q 517 356 511 310 q 522 421 522 393 q 514 478 522 444 q 482 535 507 514 q 418 557 457 557 q 347 535 378 557 q 299 476 315 513 q 268 357 276 435 q 263 289 263 318 q 269 239 263 263 q 303 179 276 201 q 369 157 329 157 q 440 179 410 157 q 486 239 469 201 z "},"ẫ":{"ha":711,"x_min":63,"x_max":750,"o":"m 558 697 q 565 709 560 704 q 576 714 569 714 l 735 714 q 746 709 742 714 q 749 697 750 704 l 665 17 q 659 5 664 10 q 647 0 654 0 l 489 0 q 478 5 482 0 q 475 17 474 10 l 482 76 q 481 83 483 82 q 475 79 478 83 q 294 -11 408 -11 q 143 45 206 -11 q 67 197 81 101 q 63 257 63 226 q 69 358 63 299 q 114 536 83 467 q 226 672 151 619 q 393 725 300 725 q 544 644 504 725 q 549 640 547 640 q 553 646 551 640 l 558 697 m 486 239 q 504 285 497 260 q 517 356 511 310 q 522 421 522 393 q 514 478 522 444 q 482 535 507 514 q 418 557 457 557 q 347 535 378 557 q 299 476 315 513 q 268 357 276 435 q 263 289 263 318 q 269 239 263 263 q 303 179 276 201 q 369 157 329 157 q 440 179 410 157 q 486 239 469 201 z "},"ä":{"ha":711,"x_min":63,"x_max":750,"o":"m 558 697 q 565 709 560 704 q 576 714 569 714 l 735 714 q 746 709 742 714 q 749 697 750 704 l 665 17 q 659 5 664 10 q 647 0 654 0 l 489 0 q 478 5 482 0 q 475 17 474 10 l 482 76 q 481 83 483 82 q 475 79 478 83 q 294 -11 408 -11 q 143 45 206 -11 q 67 197 81 101 q 63 257 63 226 q 69 358 63 299 q 114 536 83 467 q 226 672 151 619 q 393 725 300 725 q 544 644 504 725 q 549 640 547 640 q 553 646 551 640 l 558 697 m 486 239 q 504 285 497 260 q 517 356 511 310 q 522 421 522 393 q 514 478 522 444 q 482 535 507 514 q 418 557 457 557 q 347 535 378 557 q 299 476 315 513 q 268 357 276 435 q 263 289 263 318 q 269 239 263 263 q 303 179 276 201 q 369 157 329 157 q 440 179 410 157 q 486 239 469 201 z "},"ạ":{"ha":711,"x_min":63,"x_max":750,"o":"m 558 697 q 565 709 560 704 q 576 714 569 714 l 735 714 q 746 709 742 714 q 749 697 750 704 l 665 17 q 659 5 664 10 q 647 0 654 0 l 489 0 q 478 5 482 0 q 475 17 474 10 l 482 76 q 481 83 483 82 q 475 79 478 83 q 294 -11 408 -11 q 143 45 206 -11 q 67 197 81 101 q 63 257 63 226 q 69 358 63 299 q 114 536 83 467 q 226 672 151 619 q 393 725 300 725 q 544 644 504 725 q 549 640 547 640 q 553 646 551 640 l 558 697 m 486 239 q 504 285 497 260 q 517 356 511 310 q 522 421 522 393 q 514 478 522 444 q 482 535 507 514 q 418 557 457 557 q 347 535 378 557 q 299 476 315 513 q 268 357 276 435 q 263 289 263 318 q 269 239 263 263 q 303 179 276 201 q 369 157 329 157 q 440 179 410 157 q 486 239 469 201 m 292 -300 q 228 -276 253 -300 q 203 -212 203 -251 q 235 -125 203 -158 q 318 -92 268 -92 q 383 -116 358 -92 q 407 -179 407 -140 q 374 -265 407 -231 q 292 -300 340 -300 z "},"à":{"ha":711,"x_min":63,"x_max":750,"o":"m 558 697 q 565 709 560 704 q 576 714 569 714 l 735 714 q 746 709 742 714 q 749 697 750 704 l 665 17 q 659 5 664 10 q 647 0 654 0 l 489 0 q 478 5 482 0 q 475 17 474 10 l 482 76 q 481 83 483 82 q 475 79 478 83 q 294 -11 408 -11 q 143 45 206 -11 q 67 197 81 101 q 63 257 63 226 q 69 358 63 299 q 114 536 83 467 q 226 672 151 619 q 393 725 300 725 q 544 644 504 725 q 549 640 547 640 q 553 646 551 640 l 558 697 m 486 239 q 504 285 497 260 q 517 356 511 310 q 522 421 522 393 q 514 478 522 444 q 482 535 507 514 q 418 557 457 557 q 347 535 378 557 q 299 476 315 513 q 268 357 276 435 q 263 289 263 318 q 269 239 263 263 q 303 179 276 201 q 369 157 329 157 q 440 179 410 157 q 486 239 469 201 m 499 819 q 500 813 500 817 q 496 803 500 807 q 486 800 492 800 l 372 800 q 356 811 360 800 l 276 951 q 274 960 274 957 q 278 969 274 965 q 290 972 283 972 l 426 972 q 444 960 440 972 l 499 819 z "},"ả":{"ha":711,"x_min":63,"x_max":750,"o":"m 558 697 q 565 709 560 704 q 576 714 569 714 l 735 714 q 746 709 742 714 q 749 697 750 704 l 665 17 q 659 5 664 10 q 647 0 654 0 l 489 0 q 478 5 482 0 q 475 17 474 10 l 482 76 q 481 83 483 82 q 475 79 478 83 q 294 -11 408 -11 q 143 45 206 -11 q 67 197 81 101 q 63 257 63 226 q 69 358 63 299 q 114 536 83 467 q 226 672 151 619 q 393 725 300 725 q 544 644 504 725 q 549 640 547 640 q 553 646 551 640 l 558 697 m 486 239 q 504 285 497 260 q 517 356 511 310 q 522 421 522 393 q 514 478 522 444 q 482 535 507 514 q 418 557 457 557 q 347 535 378 557 q 299 476 315 513 q 268 357 276 435 q 263 289 263 318 q 269 239 263 263 q 303 179 276 201 q 369 157 329 157 q 440 179 410 157 q 486 239 469 201 m 407 779 q 397 800 389 783 q 450 868 417 838 q 474 897 467 886 q 482 925 481 907 q 474 949 483 939 q 449 958 464 958 q 417 950 431 958 q 383 917 404 942 q 371 908 378 910 q 358 913 364 907 l 317 947 q 311 958 311 951 q 317 971 311 965 q 383 1034 350 1015 q 465 1053 417 1053 q 553 1024 521 1053 q 585 944 585 996 q 569 878 585 904 q 521 824 553 853 q 479 779 490 796 q 457 768 469 765 l 407 779 z "},"ā":{"ha":711,"x_min":63,"x_max":750,"o":"m 558 697 q 565 709 560 704 q 576 714 569 714 l 735 714 q 746 709 742 714 q 749 697 750 704 l 665 17 q 659 5 664 10 q 647 0 654 0 l 489 0 q 478 5 482 0 q 475 17 474 10 l 482 76 q 481 83 483 82 q 475 79 478 83 q 294 -11 408 -11 q 143 45 206 -11 q 67 197 81 101 q 63 257 63 226 q 69 358 63 299 q 114 536 83 467 q 226 672 151 619 q 393 725 300 725 q 544 644 504 725 q 549 640 547 640 q 553 646 551 640 l 558 697 m 486 239 q 504 285 497 260 q 517 356 511 310 q 522 421 522 393 q 514 478 522 444 q 482 535 507 514 q 418 557 457 557 q 347 535 378 557 q 299 476 315 513 q 268 357 276 435 q 263 289 263 318 q 269 239 263 263 q 303 179 276 201 q 369 157 329 157 q 440 179 410 157 q 486 239 469 201 m 246 803 q 235 808 239 803 q 232 819 231 813 l 244 918 q 251 930 246 925 q 263 935 256 935 l 626 935 q 638 930 633 935 q 640 918 642 925 l 628 819 q 622 808 626 813 q 610 803 617 803 l 246 803 z "},"ą":{"ha":785,"x_min":82,"x_max":769,"o":"m 649 -150 q 660 -164 660 -150 l 661 -233 q 647 -253 661 -249 q 563 -268 607 -268 q 478 -242 513 -268 q 444 -160 444 -217 q 536 -8 444 -83 q 540 -3 542 -6 q 535 0 539 0 l 510 0 q 494 17 494 0 l 503 76 q 494 79 503 88 q 315 -11 429 -11 q 164 45 226 -11 q 86 197 101 101 q 82 257 82 226 q 90 358 82 304 q 135 536 104 467 q 247 672 172 619 q 414 725 321 725 q 564 644 524 725 q 569 640 567 640 q 572 646 572 640 l 579 697 q 585 709 581 704 q 597 714 590 714 l 754 714 q 765 709 761 714 q 768 697 769 704 l 685 17 q 682 0 682 0 l 675 -3 q 597 -67 624 -35 q 575 -125 569 -99 q 587 -148 576 -140 q 615 -156 597 -156 q 642 -151 628 -156 l 649 -150 m 506 239 q 524 285 518 260 q 536 356 531 310 q 542 426 542 396 q 535 478 542 453 q 503 535 528 514 q 439 557 478 557 q 366 535 397 557 q 318 476 335 513 q 288 357 299 439 q 283 290 283 315 q 289 239 283 257 q 323 179 296 201 q 390 157 350 157 q 460 180 431 157 q 506 239 490 203 z "},"å":{"ha":711,"x_min":63,"x_max":750,"o":"m 558 697 q 565 709 560 704 q 576 714 569 714 l 735 714 q 746 709 742 714 q 749 697 750 704 l 665 17 q 659 5 664 10 q 647 0 654 0 l 489 0 q 478 5 482 0 q 475 17 474 10 l 482 76 q 481 83 483 82 q 475 79 478 83 q 294 -11 408 -11 q 143 45 206 -11 q 67 197 81 101 q 63 257 63 226 q 69 358 63 299 q 114 536 83 467 q 226 672 151 619 q 393 725 300 725 q 544 644 504 725 q 549 640 547 640 q 553 646 551 640 l 558 697 m 486 239 q 504 285 497 260 q 517 356 511 310 q 522 421 522 393 q 514 478 522 444 q 482 535 507 514 q 418 557 457 557 q 347 535 378 557 q 299 476 315 513 q 268 357 276 435 q 263 289 263 318 q 269 239 263 263 q 303 179 276 201 q 369 157 329 157 q 440 179 410 157 q 486 239 469 201 m 425 782 q 318 824 360 782 q 276 932 276 867 q 303 1029 276 985 q 373 1100 329 1074 q 468 1126 417 1126 q 574 1085 532 1126 q 615 978 615 1043 q 590 880 615 925 q 519 808 564 835 q 425 782 475 782 m 439 885 q 492 908 468 885 q 515 964 515 932 q 498 1008 515 990 q 456 1025 481 1025 q 401 1002 425 1025 q 378 946 378 979 q 395 902 378 919 q 439 885 413 885 z "},"ã":{"ha":711,"x_min":63,"x_max":750,"o":"m 558 697 q 565 709 560 704 q 576 714 569 714 l 735 714 q 746 709 742 714 q 749 697 750 704 l 665 17 q 659 5 664 10 q 647 0 654 0 l 489 0 q 478 5 482 0 q 475 17 474 10 l 482 76 q 481 83 483 82 q 475 79 478 83 q 294 -11 408 -11 q 143 45 206 -11 q 67 197 81 101 q 63 257 63 226 q 69 358 63 299 q 114 536 83 467 q 226 672 151 619 q 393 725 300 725 q 544 644 504 725 q 549 640 547 640 q 553 646 551 640 l 558 697 m 486 239 q 504 285 497 260 q 517 356 511 310 q 522 421 522 393 q 514 478 522 444 q 482 535 507 514 q 418 557 457 557 q 347 535 378 557 q 299 476 315 513 q 268 357 276 435 q 263 289 263 318 q 269 239 263 263 q 303 179 276 201 q 369 157 329 157 q 440 179 410 157 q 486 239 469 201 m 513 796 q 466 802 485 796 q 425 821 447 808 q 386 840 399 835 q 360 844 374 844 q 283 814 317 844 q 271 807 276 807 q 261 813 265 807 l 214 874 q 208 886 208 882 q 213 897 208 892 q 281 960 240 936 q 367 983 321 983 q 410 976 392 983 q 444 962 429 969 q 464 951 460 954 q 500 932 488 938 q 528 926 513 926 q 597 960 568 926 q 610 967 603 967 q 619 961 615 967 l 663 899 q 664 879 669 888 q 601 819 642 842 q 513 796 561 796 z "},"æ":{"ha":1129,"x_min":29,"x_max":1106,"o":"m 265 -11 q 94 34 158 -11 q 29 168 29 79 q 31 197 29 188 q 124 359 43 299 q 339 419 204 419 l 476 419 q 483 426 483 419 l 488 454 l 489 469 q 463 533 489 510 q 388 557 438 557 q 317 541 347 557 q 275 499 286 525 q 268 488 274 492 q 256 485 263 483 l 100 506 q 88 525 83 508 q 146 628 100 582 q 258 699 192 674 q 396 725 324 725 q 528 694 471 725 q 610 617 586 663 q 618 617 613 611 q 710 692 650 660 q 839 725 771 725 q 1008 669 933 725 q 1100 519 1082 613 q 1106 456 1106 486 q 1094 313 1106 397 q 1076 294 1093 294 l 669 294 q 663 288 663 294 l 661 274 l 663 256 q 701 183 664 207 q 800 160 739 160 q 949 221 894 160 q 971 224 960 235 l 1043 146 q 1047 133 1047 140 q 1043 122 1047 129 q 920 25 993 61 q 761 -11 847 -11 q 625 20 683 -11 q 544 100 567 51 q 538 103 542 110 q 428 21 501 53 q 265 -11 354 -11 m 676 426 q 682 419 674 419 l 908 419 q 915 426 915 419 l 917 446 q 888 526 917 494 q 813 557 860 557 q 738 533 771 557 q 689 469 706 508 l 676 426 m 314 131 q 412 162 368 131 q 461 246 456 193 l 467 288 q 461 294 467 294 l 363 294 q 260 271 297 294 q 222 203 222 247 q 246 151 222 171 q 314 131 269 131 z "},"b":{"ha":763,"x_min":47,"x_max":731,"o":"m 721 532 q 731 436 731 489 q 726 360 731 400 q 682 192 713 264 q 565 43 640 97 q 397 -11 490 -11 q 251 65 299 -11 q 247 67 250 68 q 243 63 244 67 l 238 17 q 231 5 236 10 q 219 0 226 0 l 63 0 q 47 17 47 0 l 163 956 q 169 967 164 963 q 182 972 175 972 l 339 972 q 350 967 346 972 q 353 956 354 963 l 317 658 q 318 653 315 654 q 324 656 321 651 q 482 725 386 725 q 641 673 581 725 q 721 532 701 621 m 483 217 q 529 356 518 268 q 532 408 532 375 q 514 503 532 468 q 425 557 489 557 q 329 503 367 557 q 281 357 293 451 q 276 300 276 328 q 290 217 276 249 q 378 157 317 157 q 483 217 443 157 z "},"c":{"ha":724,"x_min":64,"x_max":715,"o":"m 346 -11 q 167 44 239 -11 q 72 197 94 100 q 64 282 64 238 q 69 361 64 306 q 113 522 81 450 q 243 671 157 617 q 436 725 329 725 q 619 669 544 725 q 710 529 693 614 q 715 479 715 508 q 710 467 715 472 q 699 461 706 463 l 542 438 l 539 438 q 525 451 525 438 l 524 474 q 489 533 518 510 q 415 557 460 557 q 340 535 372 557 q 290 474 307 513 q 261 360 269 429 q 257 296 257 325 q 261 246 257 265 q 294 181 268 204 q 365 157 321 157 q 442 180 408 157 q 493 243 476 203 q 496 251 496 249 q 497 256 497 253 q 518 269 501 272 l 669 244 q 682 226 685 242 q 668 188 676 204 q 540 42 628 94 q 346 -11 453 -11 z "},"ć":{"ha":724,"x_min":64,"x_max":715,"o":"m 346 -11 q 167 44 239 -11 q 72 197 94 100 q 64 282 64 238 q 69 361 64 306 q 113 522 81 450 q 243 671 157 617 q 436 725 329 725 q 619 669 544 725 q 710 529 693 614 q 715 479 715 508 q 710 467 715 472 q 699 461 706 463 l 542 438 l 539 438 q 525 451 525 438 l 524 474 q 489 533 518 510 q 415 557 460 557 q 340 535 372 557 q 290 474 307 513 q 261 360 269 429 q 257 296 257 325 q 261 246 257 265 q 294 181 268 204 q 365 157 321 157 q 442 180 408 157 q 493 243 476 203 q 496 251 496 249 q 497 256 497 253 q 518 269 501 272 l 669 244 q 682 226 685 242 q 668 188 676 204 q 540 42 628 94 q 346 -11 453 -11 m 367 800 q 354 808 354 800 q 358 819 354 814 l 447 960 q 468 972 453 972 l 604 972 q 617 963 617 972 q 613 951 617 958 l 500 811 q 479 800 492 800 l 367 800 z "},"č":{"ha":724,"x_min":64,"x_max":715,"o":"m 346 -11 q 167 44 239 -11 q 72 197 94 100 q 64 282 64 238 q 69 361 64 306 q 113 522 81 450 q 243 671 157 617 q 436 725 329 725 q 619 669 544 725 q 710 529 693 614 q 715 479 715 508 q 710 467 715 472 q 699 461 706 463 l 542 438 l 539 438 q 525 451 525 438 l 524 474 q 489 533 518 510 q 415 557 460 557 q 340 535 372 557 q 290 474 307 513 q 261 360 269 429 q 257 296 257 325 q 261 246 257 265 q 294 181 268 204 q 365 157 321 157 q 442 180 408 157 q 493 243 476 203 q 496 251 496 249 q 497 256 497 253 q 518 269 501 272 l 669 244 q 682 226 685 242 q 668 188 676 204 q 540 42 628 94 q 346 -11 453 -11 m 261 951 q 258 960 258 957 q 263 969 258 965 q 274 972 267 972 l 396 972 q 413 961 408 972 l 457 876 q 464 876 460 867 l 529 961 q 549 972 536 972 l 671 972 q 683 963 683 972 q 679 951 683 958 l 558 804 q 538 794 550 794 l 358 794 q 342 806 346 794 l 261 951 z "},"ç":{"ha":724,"x_min":64,"x_max":715,"o":"m 493 243 q 496 251 496 249 q 497 256 497 253 q 518 269 501 272 l 669 244 q 682 226 685 242 q 668 188 676 204 q 568 60 635 111 q 415 -6 501 10 q 413 -14 407 -6 q 458 -121 458 -67 q 449 -169 458 -140 q 392 -237 429 -217 q 310 -258 354 -258 q 229 -243 268 -258 q 219 -222 215 -239 l 238 -154 q 258 -142 242 -137 q 285 -146 271 -146 q 314 -138 301 -146 q 332 -115 326 -131 q 336 -96 336 -106 q 279 -7 336 -56 l 271 -3 q 142 66 193 14 q 72 197 90 118 q 64 282 64 238 q 69 361 64 306 q 113 522 81 450 q 243 671 157 617 q 436 725 329 725 q 619 669 544 725 q 710 529 693 614 q 715 479 715 508 q 710 467 715 472 q 699 461 706 463 l 542 438 l 539 438 q 525 451 525 438 l 524 474 q 489 533 518 510 q 415 557 460 557 q 340 535 372 557 q 290 474 307 513 q 261 360 269 429 q 257 296 257 325 q 261 246 257 265 q 294 181 268 204 q 365 157 321 157 q 442 180 408 157 q 493 243 476 203 z "},"ĉ":{"ha":724,"x_min":64,"x_max":715,"o":"m 346 -11 q 167 44 239 -11 q 72 197 94 100 q 64 282 64 238 q 69 361 64 306 q 113 522 81 450 q 243 671 157 617 q 436 725 329 725 q 619 669 544 725 q 710 529 693 614 q 715 479 715 508 q 710 467 715 472 q 699 461 706 463 l 542 438 l 539 438 q 525 451 525 438 l 524 474 q 489 533 518 510 q 415 557 460 557 q 340 535 372 557 q 290 474 307 513 q 261 360 269 429 q 257 296 257 325 q 261 246 257 265 q 294 181 268 204 q 365 157 321 157 q 442 180 408 157 q 493 243 476 203 q 496 251 496 249 q 497 256 497 253 q 518 269 501 272 l 669 244 q 682 226 685 242 q 668 188 676 204 q 540 42 628 94 q 346 -11 453 -11 m 243 794 q 231 804 231 794 q 235 815 231 810 l 351 961 q 371 972 358 972 l 550 972 q 568 961 563 972 l 653 815 q 656 807 656 810 q 651 798 656 801 q 639 794 646 794 l 518 794 q 500 806 504 794 l 457 890 q 449 890 453 899 l 385 806 q 364 794 376 794 l 243 794 z "},"ċ":{"ha":724,"x_min":64,"x_max":715,"o":"m 346 -11 q 167 44 239 -11 q 72 197 94 100 q 64 282 64 238 q 69 361 64 306 q 113 522 81 450 q 243 671 157 617 q 436 725 329 725 q 619 669 544 725 q 710 529 693 614 q 715 479 715 508 q 710 467 715 472 q 699 461 706 463 l 542 438 l 539 438 q 525 451 525 438 l 524 474 q 489 533 518 510 q 415 557 460 557 q 340 535 372 557 q 290 474 307 513 q 261 360 269 429 q 257 296 257 325 q 261 246 257 265 q 294 181 268 204 q 365 157 321 157 q 442 180 408 157 q 493 243 476 203 q 496 251 496 249 q 497 256 497 253 q 518 269 501 272 l 669 244 q 682 226 685 242 q 668 188 676 204 q 540 42 628 94 q 346 -11 453 -11 m 440 794 q 372 822 399 794 q 346 890 346 849 q 381 978 346 943 q 468 1014 417 1014 q 537 988 511 1014 q 563 919 563 963 q 526 831 563 867 q 440 794 490 794 z "},"d":{"ha":763,"x_min":65,"x_max":782,"o":"m 590 956 q 597 967 592 963 q 608 972 601 972 l 767 972 q 778 967 774 972 q 781 956 782 963 l 665 17 q 659 5 664 10 q 647 0 654 0 l 489 0 q 478 5 482 0 q 475 17 474 10 l 481 63 q 472 65 481 72 q 308 -11 407 -11 q 153 43 214 -11 q 74 192 92 97 q 65 279 65 233 q 71 360 65 304 q 117 532 85 460 q 232 673 158 621 q 403 725 306 725 q 546 656 499 725 q 550 653 547 651 q 554 658 553 654 l 590 956 m 471 217 q 515 357 504 267 q 519 415 519 389 q 504 503 519 465 q 419 557 478 557 q 318 503 356 557 q 265 356 278 450 q 263 310 263 325 q 278 217 263 256 q 369 157 304 157 q 471 217 429 157 z "},"ð":{"ha":740,"x_min":61,"x_max":706,"o":"m 696 508 q 699 447 699 469 q 690 325 699 390 q 653 176 681 235 q 524 40 610 92 q 336 -11 439 -11 q 163 40 233 -11 q 69 176 92 90 q 61 254 61 214 q 65 325 61 288 q 106 472 76 417 q 171 560 129 522 q 264 613 213 597 q 397 635 319 635 q 489 619 458 635 q 494 618 492 617 q 494 624 496 619 q 451 735 479 682 q 443 739 449 742 l 304 701 l 300 700 q 286 714 289 700 l 276 785 l 276 788 q 290 806 276 801 l 385 831 q 389 840 392 833 q 301 951 357 886 q 297 961 297 958 q 313 972 297 972 l 478 972 q 496 963 490 972 l 551 879 q 560 876 553 874 l 679 908 l 683 910 q 697 896 694 910 l 706 825 l 706 821 q 692 804 706 808 l 621 786 q 616 782 618 785 q 617 776 614 779 q 673 645 653 710 q 696 508 693 581 m 472 219 q 499 319 490 253 q 503 372 503 351 q 497 417 503 400 q 464 476 490 454 q 399 497 438 497 q 328 476 360 497 q 282 417 297 454 q 256 319 264 381 q 253 274 253 301 q 258 219 253 250 q 291 159 265 182 q 356 136 317 136 q 424 158 393 136 q 472 219 456 181 z "},"ď":{"ha":763,"x_min":65,"x_max":1051,"o":"m 590 956 q 597 967 592 963 q 608 972 601 972 l 767 972 q 778 967 774 972 q 781 956 782 963 l 665 17 q 659 5 664 10 q 647 0 654 0 l 489 0 q 478 5 482 0 q 475 17 474 10 l 481 63 q 472 65 481 72 q 308 -11 407 -11 q 153 43 214 -11 q 74 192 92 97 q 65 279 65 233 q 71 360 65 304 q 117 532 85 460 q 232 673 158 621 q 403 725 306 725 q 546 656 499 725 q 550 653 547 651 q 554 658 553 654 l 590 956 m 471 217 q 515 357 504 267 q 519 415 519 389 q 504 503 519 465 q 419 557 478 557 q 318 503 356 557 q 265 356 278 450 q 263 310 263 325 q 278 217 263 256 q 369 157 304 157 q 471 217 429 157 z "},"đ":{"ha":763,"x_min":65,"x_max":839,"o":"m 824 893 q 835 888 831 893 q 838 876 839 883 l 828 792 q 822 780 826 785 q 810 775 817 775 l 765 775 q 757 768 760 775 l 665 17 q 659 5 664 10 q 647 0 654 0 l 489 0 q 478 5 482 0 q 475 17 474 10 l 481 63 q 472 65 481 72 q 308 -11 407 -11 q 153 43 214 -11 q 74 192 92 97 q 65 279 65 233 q 71 360 65 304 q 117 532 85 460 q 232 673 158 621 q 403 725 306 725 q 546 656 499 725 q 550 653 547 651 q 554 658 553 654 l 567 768 q 561 775 569 775 l 365 775 q 353 780 358 775 q 350 792 349 785 l 361 876 q 367 888 363 883 q 379 893 372 893 l 576 893 q 581 895 579 893 q 583 900 583 897 l 590 956 q 597 967 592 963 q 608 972 601 972 l 767 972 q 778 967 774 972 q 781 956 782 963 l 774 900 q 779 893 771 893 l 824 893 m 471 217 q 515 357 504 267 q 519 415 519 389 q 504 503 519 465 q 419 557 478 557 q 318 503 356 557 q 265 356 278 450 q 263 310 263 325 q 278 217 263 256 q 369 157 304 157 q 471 217 429 157 z "},"e":{"ha":736,"x_min":69,"x_max":710,"o":"m 708 431 q 700 313 710 388 q 681 296 696 296 l 264 296 q 257 289 257 296 q 265 233 258 258 q 399 156 293 156 q 544 228 483 157 q 565 231 556 243 l 651 132 q 656 121 656 126 q 650 108 656 114 q 524 20 599 51 q 367 -11 450 -11 q 178 43 251 -11 q 81 194 104 97 q 69 293 69 233 q 74 364 69 326 q 111 511 79 442 q 240 668 154 610 q 431 726 325 726 q 636 646 565 726 q 708 431 707 565 m 411 557 q 289 475 325 557 q 274 431 278 447 q 279 424 274 424 l 513 424 q 519 431 519 424 q 517 469 519 447 q 483 534 510 511 q 411 557 456 557 z "},"é":{"ha":733,"x_min":69,"x_max":710,"o":"m 708 431 q 700 313 710 388 q 681 296 696 296 l 264 296 q 257 289 257 296 q 265 233 258 258 q 399 156 293 156 q 544 228 483 157 q 565 231 556 243 l 651 132 q 656 121 656 126 q 650 108 656 114 q 524 20 599 51 q 367 -11 450 -11 q 178 43 251 -11 q 81 194 104 97 q 69 293 69 233 q 74 364 69 326 q 111 511 79 442 q 240 668 154 610 q 431 726 325 726 q 636 646 565 726 q 708 431 707 565 m 411 557 q 289 475 325 557 q 274 431 278 447 q 279 424 274 424 l 513 424 q 519 431 519 424 q 517 469 519 447 q 483 534 510 511 q 411 557 456 557 m 363 800 q 350 808 350 800 q 354 819 350 814 l 443 960 q 464 972 449 972 l 600 972 q 613 963 613 972 q 608 951 613 958 l 496 811 q 475 800 488 800 l 363 800 z "},"ě":{"ha":733,"x_min":69,"x_max":710,"o":"m 708 431 q 700 313 710 388 q 681 296 696 296 l 264 296 q 257 289 257 296 q 265 233 258 258 q 399 156 293 156 q 544 228 483 157 q 565 231 556 243 l 651 132 q 656 121 656 126 q 650 108 656 114 q 524 20 599 51 q 367 -11 450 -11 q 178 43 251 -11 q 81 194 104 97 q 69 293 69 233 q 74 364 69 326 q 111 511 79 442 q 240 668 154 610 q 431 726 325 726 q 636 646 565 726 q 708 431 707 565 m 411 557 q 289 475 325 557 q 274 431 278 447 q 279 424 274 424 l 513 424 q 519 431 519 424 q 517 469 519 447 q 483 534 510 511 q 411 557 456 557 z "},"ȩ":{"ha":733,"x_min":69,"x_max":710,"o":"m 708 431 q 700 313 710 388 q 681 296 696 296 l 264 296 q 257 289 257 296 q 265 233 258 258 q 399 156 293 156 q 544 228 483 157 q 565 231 556 243 l 651 132 q 656 121 656 126 q 650 108 656 114 q 553 33 608 63 q 435 -6 497 4 q 431 -14 426 -7 q 476 -121 476 -68 q 467 -171 476 -147 q 411 -239 449 -218 q 329 -260 374 -260 q 247 -244 286 -260 q 238 -236 240 -242 q 238 -224 236 -231 l 256 -156 q 263 -144 257 -147 q 276 -144 269 -142 q 303 -149 289 -149 q 351 -117 339 -149 q 354 -99 354 -111 q 300 -8 354 -58 l 292 -4 q 153 62 207 10 q 81 194 100 114 q 69 293 69 233 q 74 364 69 326 q 111 511 79 442 q 240 668 154 610 q 431 726 325 726 q 636 646 565 726 q 708 431 707 565 m 411 557 q 289 475 325 557 q 274 431 278 447 q 279 424 274 424 l 513 424 q 519 431 519 424 q 517 469 519 447 q 483 534 510 511 q 411 557 456 557 z "},"ê":{"ha":733,"x_min":69,"x_max":710,"o":"m 708 431 q 700 313 710 388 q 681 296 696 296 l 264 296 q 257 289 257 296 q 265 233 258 258 q 399 156 293 156 q 544 228 483 157 q 565 231 556 243 l 651 132 q 656 121 656 126 q 650 108 656 114 q 524 20 599 51 q 367 -11 450 -11 q 178 43 251 -11 q 81 194 104 97 q 69 293 69 233 q 74 364 69 326 q 111 511 79 442 q 240 668 154 610 q 431 726 325 726 q 636 646 565 726 q 708 431 707 565 m 411 557 q 289 475 325 557 q 274 431 278 447 q 279 424 274 424 l 513 424 q 519 431 519 424 q 517 469 519 447 q 483 534 510 511 q 411 557 456 557 m 239 794 q 226 804 226 794 q 231 815 226 810 l 347 961 q 367 972 354 972 l 546 972 q 564 961 558 972 l 649 815 q 651 807 651 810 q 647 798 651 801 q 635 794 642 794 l 514 794 q 496 806 500 794 l 453 890 q 444 890 449 899 l 381 806 q 360 794 372 794 l 239 794 z "},"ế":{"ha":733,"x_min":69,"x_max":915,"o":"m 708 431 q 700 313 710 388 q 681 296 696 296 l 264 296 q 257 289 257 296 q 265 233 258 258 q 399 156 293 156 q 544 228 483 157 q 565 231 556 243 l 651 132 q 656 121 656 126 q 650 108 656 114 q 524 20 599 51 q 367 -11 450 -11 q 178 43 251 -11 q 81 194 104 97 q 69 293 69 233 q 74 364 69 326 q 111 511 79 442 q 240 668 154 610 q 431 726 325 726 q 636 646 565 726 q 708 431 707 565 m 411 557 q 289 475 325 557 q 274 431 278 447 q 279 424 274 424 l 513 424 q 519 431 519 424 q 517 469 519 447 q 483 534 510 511 q 411 557 456 557 z "},"ệ":{"ha":733,"x_min":69,"x_max":710,"o":"m 708 431 q 700 313 710 388 q 681 296 696 296 l 264 296 q 257 289 257 296 q 265 233 258 258 q 399 156 293 156 q 544 228 483 157 q 565 231 556 243 l 651 132 q 656 121 656 126 q 650 108 656 114 q 524 20 599 51 q 367 -11 450 -11 q 178 43 251 -11 q 81 194 104 97 q 69 293 69 233 q 74 364 69 326 q 111 511 79 442 q 240 668 154 610 q 431 726 325 726 q 636 646 565 726 q 708 431 707 565 m 411 557 q 289 475 325 557 q 274 431 278 447 q 279 424 274 424 l 513 424 q 519 431 519 424 q 517 469 519 447 q 483 534 510 511 q 411 557 456 557 m 318 -312 q 254 -288 279 -312 q 229 -225 229 -264 q 262 -137 229 -171 q 344 -104 294 -104 q 409 -128 385 -104 q 433 -192 433 -153 q 400 -278 433 -243 q 318 -312 367 -312 m 239 794 q 226 804 226 794 q 231 815 226 810 l 347 961 q 367 972 354 972 l 546 972 q 564 961 558 972 l 649 815 q 651 807 651 810 q 647 798 651 801 q 635 794 642 794 l 514 794 q 496 806 500 794 l 453 890 q 444 890 449 899 l 381 806 q 360 794 372 794 l 239 794 z "},"ề":{"ha":733,"x_min":69,"x_max":778,"o":"m 708 431 q 700 313 710 388 q 681 296 696 296 l 264 296 q 257 289 257 296 q 265 233 258 258 q 399 156 293 156 q 544 228 483 157 q 565 231 556 243 l 651 132 q 656 121 656 126 q 650 108 656 114 q 524 20 599 51 q 367 -11 450 -11 q 178 43 251 -11 q 81 194 104 97 q 69 293 69 233 q 74 364 69 326 q 111 511 79 442 q 240 668 154 610 q 431 726 325 726 q 636 646 565 726 q 708 431 707 565 m 411 557 q 289 475 325 557 q 274 431 278 447 q 279 424 274 424 l 513 424 q 519 431 519 424 q 517 469 519 447 q 483 534 510 511 q 411 557 456 557 z "},"ể":{"ha":733,"x_min":69,"x_max":821,"o":"m 708 431 q 700 313 710 388 q 681 296 696 296 l 264 296 q 257 289 257 296 q 265 233 258 258 q 399 156 293 156 q 544 228 483 157 q 565 231 556 243 l 651 132 q 656 121 656 126 q 650 108 656 114 q 524 20 599 51 q 367 -11 450 -11 q 178 43 251 -11 q 81 194 104 97 q 69 293 69 233 q 74 364 69 326 q 111 511 79 442 q 240 668 154 610 q 431 726 325 726 q 636 646 565 726 q 708 431 707 565 m 411 557 q 289 475 325 557 q 274 431 278 447 q 279 424 274 424 l 513 424 q 519 431 519 424 q 517 469 519 447 q 483 534 510 511 q 411 557 456 557 z "},"ễ":{"ha":733,"x_min":69,"x_max":710,"o":"m 708 431 q 700 313 710 388 q 681 296 696 296 l 264 296 q 257 289 257 296 q 265 233 258 258 q 399 156 293 156 q 544 228 483 157 q 565 231 556 243 l 651 132 q 656 121 656 126 q 650 108 656 114 q 524 20 599 51 q 367 -11 450 -11 q 178 43 251 -11 q 81 194 104 97 q 69 293 69 233 q 74 364 69 326 q 111 511 79 442 q 240 668 154 610 q 431 726 325 726 q 636 646 565 726 q 708 431 707 565 m 411 557 q 289 475 325 557 q 274 431 278 447 q 279 424 274 424 l 513 424 q 519 431 519 424 q 517 469 519 447 q 483 534 510 511 q 411 557 456 557 z "},"ë":{"ha":733,"x_min":69,"x_max":710,"o":"m 708 431 q 700 313 710 388 q 681 296 696 296 l 264 296 q 257 289 257 296 q 265 233 258 258 q 399 156 293 156 q 544 228 483 157 q 565 231 556 243 l 651 132 q 656 121 656 126 q 650 108 656 114 q 524 20 599 51 q 367 -11 450 -11 q 178 43 251 -11 q 81 194 104 97 q 69 293 69 233 q 74 364 69 326 q 111 511 79 442 q 240 668 154 610 q 431 726 325 726 q 636 646 565 726 q 708 431 707 565 m 411 557 q 289 475 325 557 q 274 431 278 447 q 279 424 274 424 l 513 424 q 519 431 519 424 q 517 469 519 447 q 483 534 510 511 q 411 557 456 557 z "},"ė":{"ha":733,"x_min":69,"x_max":710,"o":"m 708 431 q 700 313 710 388 q 681 296 696 296 l 264 296 q 257 289 257 296 q 265 233 258 258 q 399 156 293 156 q 544 228 483 157 q 565 231 556 243 l 651 132 q 656 121 656 126 q 650 108 656 114 q 524 20 599 51 q 367 -11 450 -11 q 178 43 251 -11 q 81 194 104 97 q 69 293 69 233 q 74 364 69 326 q 111 511 79 442 q 240 668 154 610 q 431 726 325 726 q 636 646 565 726 q 708 431 707 565 m 411 557 q 289 475 325 557 q 274 431 278 447 q 279 424 274 424 l 513 424 q 519 431 519 424 q 517 469 519 447 q 483 534 510 511 q 411 557 456 557 m 435 794 q 367 822 393 794 q 340 890 340 849 q 376 978 340 943 q 463 1014 411 1014 q 531 988 506 1014 q 557 919 557 963 q 521 831 557 867 q 435 794 485 794 z "},"ẹ":{"ha":733,"x_min":69,"x_max":710,"o":"m 708 431 q 700 313 710 388 q 681 296 696 296 l 264 296 q 257 289 257 296 q 265 233 258 258 q 399 156 293 156 q 544 228 483 157 q 565 231 556 243 l 651 132 q 656 121 656 126 q 650 108 656 114 q 524 20 599 51 q 367 -11 450 -11 q 178 43 251 -11 q 81 194 104 97 q 69 293 69 233 q 74 364 69 326 q 111 511 79 442 q 240 668 154 610 q 431 726 325 726 q 636 646 565 726 q 708 431 707 565 m 411 557 q 289 475 325 557 q 274 431 278 447 q 279 424 274 424 l 513 424 q 519 431 519 424 q 517 469 519 447 q 483 534 510 511 q 411 557 456 557 m 318 -312 q 254 -288 279 -312 q 229 -225 229 -264 q 262 -137 229 -171 q 344 -104 294 -104 q 409 -128 385 -104 q 433 -192 433 -153 q 400 -278 433 -243 q 318 -312 367 -312 z "},"è":{"ha":733,"x_min":69,"x_max":710,"o":"m 708 431 q 700 313 710 388 q 681 296 696 296 l 264 296 q 257 289 257 296 q 265 233 258 258 q 399 156 293 156 q 544 228 483 157 q 565 231 556 243 l 651 132 q 656 121 656 126 q 650 108 656 114 q 524 20 599 51 q 367 -11 450 -11 q 178 43 251 -11 q 81 194 104 97 q 69 293 69 233 q 74 364 69 326 q 111 511 79 442 q 240 668 154 610 q 431 726 325 726 q 636 646 565 726 q 708 431 707 565 m 411 557 q 289 475 325 557 q 274 431 278 447 q 279 424 274 424 l 513 424 q 519 431 519 424 q 517 469 519 447 q 483 534 510 511 q 411 557 456 557 m 508 819 q 510 813 510 817 q 506 803 510 807 q 496 800 501 800 l 382 800 q 365 811 369 800 l 286 951 q 283 960 283 957 q 288 969 283 965 q 300 972 293 972 l 436 972 q 454 960 450 972 l 508 819 z "},"ẻ":{"ha":733,"x_min":69,"x_max":710,"o":"m 708 431 q 700 313 710 388 q 681 296 696 296 l 264 296 q 257 289 257 296 q 265 233 258 258 q 399 156 293 156 q 544 228 483 157 q 565 231 556 243 l 651 132 q 656 121 656 126 q 650 108 656 114 q 524 20 599 51 q 367 -11 450 -11 q 178 43 251 -11 q 81 194 104 97 q 69 293 69 233 q 74 364 69 326 q 111 511 79 442 q 240 668 154 610 q 431 726 325 726 q 636 646 565 726 q 708 431 707 565 m 411 557 q 289 475 325 557 q 274 431 278 447 q 279 424 274 424 l 513 424 q 519 431 519 424 q 517 469 519 447 q 483 534 510 511 q 411 557 456 557 m 417 779 q 407 800 399 783 q 460 868 426 838 q 483 897 476 886 q 492 925 490 907 q 483 949 493 939 q 458 958 474 958 q 427 950 440 958 q 393 917 414 942 q 381 908 388 910 q 368 913 374 907 l 326 947 q 321 958 321 951 q 326 971 321 965 q 393 1034 360 1015 q 475 1053 426 1053 q 563 1024 531 1053 q 594 944 594 996 q 578 878 594 904 q 531 824 563 853 q 489 779 500 796 q 467 768 479 765 l 417 779 z "},"ē":{"ha":733,"x_min":69,"x_max":710,"o":"m 708 431 q 700 313 710 388 q 681 296 696 296 l 264 296 q 257 289 257 296 q 265 233 258 258 q 399 156 293 156 q 544 228 483 157 q 565 231 556 243 l 651 132 q 656 121 656 126 q 650 108 656 114 q 524 20 599 51 q 367 -11 450 -11 q 178 43 251 -11 q 81 194 104 97 q 69 293 69 233 q 74 364 69 326 q 111 511 79 442 q 240 668 154 610 q 431 726 325 726 q 636 646 565 726 q 708 431 707 565 m 411 557 q 289 475 325 557 q 274 431 278 447 q 279 424 274 424 l 513 424 q 519 431 519 424 q 517 469 519 447 q 483 534 510 511 q 411 557 456 557 m 258 824 q 247 828 251 824 q 244 840 243 833 l 257 940 q 263 952 258 947 q 275 957 268 957 l 639 957 q 650 952 646 957 q 653 940 654 947 l 640 840 q 634 828 639 833 q 622 824 629 824 l 258 824 z "},"ę":{"ha":733,"x_min":69,"x_max":710,"o":"m 708 431 q 700 313 710 388 q 681 296 696 296 l 264 296 q 257 289 257 296 q 265 233 258 258 q 399 156 293 156 q 544 228 483 157 q 565 231 556 243 l 651 132 q 656 121 656 126 q 650 108 656 114 q 549 31 607 61 q 424 -8 490 1 q 415 -11 421 -8 q 358 -63 379 -36 q 338 -112 338 -90 q 349 -142 338 -132 q 381 -151 361 -151 q 404 -147 392 -151 q 413 -146 407 -146 q 422 -158 422 -146 l 424 -226 q 410 -246 424 -242 q 325 -261 369 -261 q 241 -237 275 -261 q 207 -156 207 -212 q 286 -12 207 -86 q 290 -7 290 -10 q 286 -4 290 -4 q 152 64 204 13 q 81 194 100 115 q 69 293 69 233 q 74 364 69 326 q 111 511 79 442 q 240 668 154 610 q 431 726 325 726 q 636 646 565 726 q 708 431 707 565 m 411 557 q 289 475 325 557 q 274 431 278 447 q 279 424 274 424 l 513 424 q 519 431 519 424 q 517 469 519 447 q 483 534 510 511 q 411 557 456 557 z "},"ẽ":{"ha":733,"x_min":69,"x_max":710,"o":"m 708 431 q 700 313 710 388 q 681 296 696 296 l 264 296 q 257 289 257 296 q 265 233 258 258 q 399 156 293 156 q 544 228 483 157 q 565 231 556 243 l 651 132 q 656 121 656 126 q 650 108 656 114 q 524 20 599 51 q 367 -11 450 -11 q 178 43 251 -11 q 81 194 104 97 q 69 293 69 233 q 74 364 69 326 q 111 511 79 442 q 240 668 154 610 q 431 726 325 726 q 636 646 565 726 q 708 431 707 565 m 411 557 q 289 475 325 557 q 274 431 278 447 q 279 424 274 424 l 513 424 q 519 431 519 424 q 517 469 519 447 q 483 534 510 511 q 411 557 456 557 m 522 796 q 476 802 494 796 q 435 821 457 808 q 396 840 408 835 q 369 844 383 844 q 293 814 326 844 q 281 807 286 807 q 271 813 275 807 l 224 874 q 218 886 218 882 q 222 897 218 892 q 290 960 250 936 q 376 983 331 983 q 420 976 401 983 q 454 962 439 969 q 474 951 469 954 q 510 932 497 938 q 538 926 522 926 q 607 960 578 926 q 619 967 613 967 q 629 961 625 967 l 672 899 q 674 879 679 888 q 611 819 651 842 q 522 796 571 796 z "},"ə":{"ha":733,"x_min":58,"x_max":699,"o":"m 694 351 q 657 203 686 274 q 528 47 613 104 q 338 -11 443 -11 q 129 73 200 -11 q 58 299 58 157 q 67 401 58 329 q 86 418 71 418 l 503 418 q 510 424 510 418 q 501 481 510 447 q 374 558 474 558 q 224 486 285 558 q 203 483 213 471 l 118 583 q 113 594 113 592 q 118 607 113 599 q 244 694 169 663 q 400 725 318 725 q 589 671 515 725 q 686 519 663 617 q 699 417 699 474 q 694 351 699 385 m 357 157 q 478 239 440 157 q 493 283 489 267 q 488 290 493 290 l 254 290 q 247 283 247 290 l 250 246 q 284 180 256 203 q 357 157 313 157 z "},"ʒ":{"ha":669,"x_min":-4,"x_max":624,"o":"m 374 369 q 372 364 371 367 q 376 361 372 361 q 546 269 493 340 q 599 100 599 197 q 596 51 599 68 q 525 -126 583 -50 q 376 -242 467 -201 q 181 -282 286 -282 q 7 -254 90 -282 q -2 -248 0 -253 q -3 -235 -4 -243 l 19 -96 q 26 -84 21 -87 q 40 -82 32 -81 q 188 -106 115 -106 q 348 -56 288 -106 q 408 88 408 -7 q 370 197 408 153 q 265 240 332 240 q 153 214 215 240 q 143 211 144 211 q 132 219 136 211 l 88 304 q 85 314 85 310 q 94 328 85 322 l 357 528 q 360 533 360 531 q 356 536 360 536 l 107 536 q 96 541 100 536 q 93 553 92 546 l 111 697 q 117 709 113 704 q 129 714 122 714 l 608 714 q 619 709 615 714 q 622 697 624 704 l 606 560 q 593 539 604 547 l 374 369 z "},"ǯ":{"ha":669,"x_min":-4,"x_max":625,"o":"m 374 369 q 372 364 371 367 q 376 361 372 361 q 546 269 493 340 q 599 100 599 197 q 596 51 599 68 q 525 -126 583 -50 q 376 -242 467 -201 q 181 -282 286 -282 q 7 -254 90 -282 q -2 -248 0 -253 q -3 -235 -4 -243 l 19 -96 q 26 -84 21 -87 q 40 -82 32 -81 q 188 -106 115 -106 q 348 -56 288 -106 q 408 88 408 -7 q 370 197 408 153 q 265 240 332 240 q 153 214 215 240 q 143 211 144 211 q 132 219 136 211 l 88 304 q 85 314 85 310 q 94 328 85 322 l 357 528 q 360 533 360 531 q 356 536 360 536 l 107 536 q 96 541 100 536 q 93 553 92 546 l 111 697 q 117 709 113 704 q 129 714 122 714 l 608 714 q 619 709 615 714 q 622 697 624 704 l 606 560 q 593 539 604 547 l 374 369 z "},"f":{"ha":521,"x_min":76,"x_max":563,"o":"m 525 715 q 537 710 532 715 q 540 699 542 706 l 524 567 q 517 555 522 560 q 506 550 513 550 l 375 550 q 367 543 369 550 l 303 17 q 297 5 301 10 q 285 0 292 0 l 126 0 q 115 5 119 0 q 113 17 111 10 l 178 543 q 171 550 178 550 l 92 550 q 81 555 85 550 q 78 567 76 560 l 94 699 q 100 710 94 706 q 113 715 106 715 l 192 715 q 199 722 199 715 l 203 753 q 245 887 214 839 q 336 955 276 935 q 497 972 396 975 l 547 972 q 563 956 563 972 l 549 843 q 542 831 547 836 q 531 826 538 826 l 486 826 q 417 806 438 825 q 392 738 397 788 l 389 722 q 394 715 389 715 l 525 715 z "},"g":{"ha":749,"x_min":61,"x_max":743,"o":"m 551 697 q 558 709 553 704 q 569 714 563 714 l 728 714 q 739 709 735 714 q 742 697 743 704 l 664 64 q 529 -196 640 -118 q 260 -274 418 -274 q 154 -267 213 -274 q 143 -249 140 -264 l 167 -106 q 186 -90 168 -87 q 275 -99 235 -99 q 413 -60 363 -99 q 474 65 464 -21 q 472 70 475 69 q 467 68 469 71 q 310 11 407 11 q 154 55 222 11 q 67 196 86 99 q 61 267 61 225 q 67 361 61 303 q 113 538 82 472 q 225 674 151 622 q 388 725 299 725 q 539 661 493 725 q 544 659 542 658 q 547 664 547 660 l 551 697 m 486 249 q 511 363 501 289 q 517 431 517 403 q 513 474 517 456 q 480 534 506 511 q 413 557 454 557 q 341 534 372 557 q 292 474 310 511 q 258 361 268 433 q 254 300 254 326 q 261 250 254 271 q 296 190 268 213 q 365 167 324 167 q 440 190 408 167 q 486 249 471 213 z "},"ğ":{"ha":749,"x_min":61,"x_max":743,"o":"m 551 697 q 558 709 553 704 q 569 714 563 714 l 728 714 q 739 709 735 714 q 742 697 743 704 l 664 64 q 529 -196 640 -118 q 260 -274 418 -274 q 154 -267 213 -274 q 143 -249 140 -264 l 167 -106 q 186 -90 168 -87 q 275 -99 235 -99 q 413 -60 363 -99 q 474 65 464 -21 q 472 70 475 69 q 467 68 469 71 q 310 11 407 11 q 154 55 222 11 q 67 196 86 99 q 61 267 61 225 q 67 361 61 303 q 113 538 82 472 q 225 674 151 622 q 388 725 299 725 q 539 661 493 725 q 544 659 542 658 q 547 664 547 660 l 551 697 m 486 249 q 511 363 501 289 q 517 431 517 403 q 513 474 517 456 q 480 534 506 511 q 413 557 454 557 q 341 534 372 557 q 292 474 310 511 q 258 361 268 433 q 254 300 254 326 q 261 250 254 271 q 296 190 268 213 q 365 167 324 167 q 440 190 408 167 q 486 249 471 213 m 458 774 q 317 819 371 774 q 267 939 264 865 q 283 956 267 956 l 374 956 q 389 940 386 956 q 414 893 392 911 q 471 875 436 875 q 533 893 506 875 q 569 940 560 911 q 588 956 574 956 l 678 956 q 688 951 685 956 q 690 942 692 947 q 610 821 675 868 q 458 774 546 774 z "},"ǧ":{"ha":749,"x_min":61,"x_max":743,"o":"m 551 697 q 558 709 553 704 q 569 714 563 714 l 728 714 q 739 709 735 714 q 742 697 743 704 l 664 64 q 529 -196 640 -118 q 260 -274 418 -274 q 154 -267 213 -274 q 143 -249 140 -264 l 167 -106 q 186 -90 168 -87 q 275 -99 235 -99 q 413 -60 363 -99 q 474 65 464 -21 q 472 70 475 69 q 467 68 469 71 q 310 11 407 11 q 154 55 222 11 q 67 196 86 99 q 61 267 61 225 q 67 361 61 303 q 113 538 82 472 q 225 674 151 622 q 388 725 299 725 q 539 661 493 725 q 544 659 542 658 q 547 664 547 660 l 551 697 m 486 249 q 511 363 501 289 q 517 431 517 403 q 513 474 517 456 q 480 534 506 511 q 413 557 454 557 q 341 534 372 557 q 292 474 310 511 q 258 361 268 433 q 254 300 254 326 q 261 250 254 271 q 296 190 268 213 q 365 167 324 167 q 440 190 408 167 q 486 249 471 213 z "},"ĝ":{"ha":749,"x_min":61,"x_max":743,"o":"m 551 697 q 558 709 553 704 q 569 714 563 714 l 728 714 q 739 709 735 714 q 742 697 743 704 l 664 64 q 529 -196 640 -118 q 260 -274 418 -274 q 154 -267 213 -274 q 143 -249 140 -264 l 167 -106 q 186 -90 168 -87 q 275 -99 235 -99 q 413 -60 363 -99 q 474 65 464 -21 q 472 70 475 69 q 467 68 469 71 q 310 11 407 11 q 154 55 222 11 q 67 196 86 99 q 61 267 61 225 q 67 361 61 303 q 113 538 82 472 q 225 674 151 622 q 388 725 299 725 q 539 661 493 725 q 544 659 542 658 q 547 664 547 660 l 551 697 m 486 249 q 511 363 501 289 q 517 431 517 403 q 513 474 517 456 q 480 534 506 511 q 413 557 454 557 q 341 534 372 557 q 292 474 310 511 q 258 361 268 433 q 254 300 254 326 q 261 250 254 271 q 296 190 268 213 q 365 167 324 167 q 440 190 408 167 q 486 249 471 213 m 264 794 q 251 804 251 794 q 256 815 251 810 l 372 961 q 392 972 379 972 l 571 972 q 589 961 583 972 l 674 815 q 676 807 676 810 q 672 798 676 801 q 660 794 667 794 l 539 794 q 521 806 525 794 l 478 890 q 469 890 474 899 l 406 806 q 385 794 397 794 l 264 794 z "},"ġ":{"ha":749,"x_min":61,"x_max":743,"o":"m 551 697 q 558 709 553 704 q 569 714 563 714 l 728 714 q 739 709 735 714 q 742 697 743 704 l 664 64 q 529 -196 640 -118 q 260 -274 418 -274 q 154 -267 213 -274 q 143 -249 140 -264 l 167 -106 q 186 -90 168 -87 q 275 -99 235 -99 q 413 -60 363 -99 q 474 65 464 -21 q 472 70 475 69 q 467 68 469 71 q 310 11 407 11 q 154 55 222 11 q 67 196 86 99 q 61 267 61 225 q 67 361 61 303 q 113 538 82 472 q 225 674 151 622 q 388 725 299 725 q 539 661 493 725 q 544 659 542 658 q 547 664 547 660 l 551 697 m 486 249 q 511 363 501 289 q 517 431 517 403 q 513 474 517 456 q 480 534 506 511 q 413 557 454 557 q 341 534 372 557 q 292 474 310 511 q 258 361 268 433 q 254 300 254 326 q 261 250 254 271 q 296 190 268 213 q 365 167 324 167 q 440 190 408 167 q 486 249 471 213 m 460 794 q 392 822 418 794 q 365 890 365 849 q 401 978 365 943 q 488 1014 436 1014 q 556 988 531 1014 q 582 919 582 963 q 546 831 582 867 q 460 794 510 794 z "},"ǥ":{"ha":781,"x_min":61,"x_max":807,"o":"m 792 421 q 803 416 799 421 q 806 404 807 411 l 794 319 q 789 308 794 313 q 776 303 783 303 l 700 303 q 693 296 693 303 l 664 64 q 529 -196 640 -118 q 260 -274 418 -274 q 154 -267 213 -274 q 143 -249 140 -264 l 167 -106 q 186 -90 168 -87 q 275 -99 235 -99 q 413 -60 363 -99 q 474 65 464 -21 q 472 70 475 69 q 467 68 469 71 q 310 11 407 11 q 154 55 222 11 q 67 196 86 99 q 61 267 61 225 q 67 361 61 303 q 113 538 82 472 q 225 674 151 622 q 388 725 299 725 q 539 661 493 725 q 544 659 542 658 q 547 664 547 660 l 551 697 q 558 709 553 704 q 569 714 563 714 l 728 714 q 739 709 735 714 q 742 697 743 704 l 708 428 q 714 421 708 421 l 792 421 m 365 167 q 440 190 408 167 q 486 249 471 213 q 500 296 494 269 q 500 301 501 299 q 496 303 499 303 l 367 303 q 356 308 360 303 q 353 319 351 313 l 364 404 q 370 416 365 411 q 382 421 375 421 l 510 421 q 517 428 517 421 q 513 474 517 453 q 480 534 506 511 q 413 557 454 557 q 341 534 372 557 q 292 474 310 511 q 258 361 268 433 q 254 300 254 326 q 261 250 254 271 q 296 190 268 213 q 365 167 324 167 z "},"h":{"ha":736,"x_min":44,"x_max":704,"o":"m 493 725 q 647 669 590 725 q 704 515 704 614 q 701 472 704 503 l 646 17 q 640 5 644 10 q 628 0 635 0 l 471 0 q 456 17 456 0 l 507 432 q 508 454 508 439 q 482 528 508 500 q 413 557 456 557 q 328 523 363 557 q 286 432 293 489 l 235 17 q 228 5 233 10 q 217 0 224 0 l 60 0 q 49 5 53 0 q 46 17 44 10 l 161 956 q 167 967 161 963 q 179 972 172 972 l 336 972 q 347 967 343 972 q 350 956 351 963 l 313 649 q 315 643 313 644 q 319 644 317 642 q 493 725 382 725 z "},"ħ":{"ha":736,"x_min":44,"x_max":704,"o":"m 493 725 q 647 669 590 725 q 704 515 704 614 q 701 472 704 503 l 646 17 q 640 5 644 10 q 628 0 635 0 l 471 0 q 456 17 456 0 l 507 432 q 508 454 508 439 q 482 528 508 500 q 413 557 456 557 q 328 523 363 557 q 286 432 293 489 l 235 17 q 228 5 233 10 q 217 0 224 0 l 60 0 q 49 5 53 0 q 46 17 44 10 l 136 756 q 131 763 136 763 l 68 763 q 57 767 61 763 q 54 779 53 772 l 64 864 q 70 876 65 871 q 82 881 75 881 l 144 881 q 151 888 151 881 l 161 956 q 167 967 161 963 q 179 972 172 972 l 336 972 q 347 967 343 972 q 350 956 351 963 l 342 888 q 349 881 342 881 l 528 881 q 539 876 535 881 q 542 864 543 871 l 531 779 q 524 767 529 772 q 513 763 519 763 l 333 763 q 326 756 326 763 l 313 649 q 315 643 313 644 q 319 644 317 642 q 493 725 382 725 z "},"ȟ":{"ha":736,"x_min":44,"x_max":704,"o":"m 493 725 q 647 669 590 725 q 704 515 704 614 q 701 472 704 503 l 646 17 q 640 5 644 10 q 628 0 635 0 l 471 0 q 456 17 456 0 l 507 432 q 508 454 508 439 q 482 528 508 500 q 413 557 456 557 q 328 523 363 557 q 286 432 293 489 l 235 17 q 228 5 233 10 q 217 0 224 0 l 60 0 q 49 5 53 0 q 46 17 44 10 l 161 956 q 167 967 161 963 q 179 972 172 972 l 336 972 q 347 967 343 972 q 350 956 351 963 l 313 649 q 315 643 313 644 q 319 644 317 642 q 493 725 382 725 z "},"ĥ":{"ha":736,"x_min":44,"x_max":704,"o":"m 493 725 q 647 669 590 725 q 704 515 704 614 q 701 472 704 503 l 646 17 q 640 5 644 10 q 628 0 635 0 l 471 0 q 456 17 456 0 l 507 432 q 508 454 508 439 q 482 528 508 500 q 413 557 456 557 q 328 523 363 557 q 286 432 293 489 l 235 17 q 228 5 233 10 q 217 0 224 0 l 60 0 q 49 5 53 0 q 46 17 44 10 l 161 956 q 167 967 161 963 q 179 972 172 972 l 336 972 q 347 967 343 972 q 350 956 351 963 l 313 649 q 315 643 313 644 q 319 644 317 642 q 493 725 382 725 m 278 1043 q 265 1053 265 1043 q 269 1064 265 1058 l 386 1210 q 406 1221 393 1221 l 585 1221 q 603 1210 597 1221 l 688 1064 q 690 1056 690 1058 q 685 1047 690 1050 q 674 1043 681 1043 l 553 1043 q 535 1054 539 1043 l 492 1139 q 483 1139 488 1147 l 419 1054 q 399 1043 411 1043 l 278 1043 z "},"i":{"ha":343,"x_min":50,"x_max":364,"o":"m 243 794 q 175 821 201 794 q 149 889 149 847 q 184 978 149 943 q 269 1014 219 1014 q 338 989 313 1014 q 364 921 364 964 q 328 831 364 868 q 243 794 293 794 m 65 0 q 50 17 50 0 l 135 699 q 141 710 136 706 q 153 715 146 715 l 310 715 q 321 710 317 715 q 324 699 325 706 l 240 17 q 234 5 239 10 q 222 0 229 0 l 65 0 z "},"ı":{"ha":319,"x_min":39,"x_max":314,"o":"m 54 0 q 43 5 47 0 q 40 17 39 10 l 124 697 q 130 709 125 704 q 142 714 135 714 l 299 714 q 314 697 314 714 l 229 17 q 224 5 229 10 q 211 0 218 0 l 54 0 z "},"í":{"ha":319,"x_min":39,"x_max":406,"o":"m 54 0 q 43 5 47 0 q 40 17 39 10 l 124 697 q 130 709 125 704 q 142 714 135 714 l 299 714 q 314 697 314 714 l 229 17 q 224 5 229 10 q 211 0 218 0 l 54 0 m 156 800 q 143 808 143 800 q 147 819 143 814 l 236 960 q 257 972 242 972 l 393 972 q 406 963 406 972 q 401 951 406 958 l 289 811 q 268 800 281 800 l 156 800 z "},"ĭ":{"ha":319,"x_min":36,"x_max":463,"o":"m 54 0 q 43 5 47 0 q 40 17 39 10 l 124 697 q 130 709 125 704 q 142 714 135 714 l 299 714 q 314 697 314 714 l 229 17 q 224 5 229 10 q 211 0 218 0 l 54 0 m 228 786 q 90 830 143 786 q 36 942 36 874 q 53 961 36 961 l 133 960 q 149 944 146 960 q 176 897 150 915 q 240 879 201 879 q 310 897 279 879 q 350 946 340 915 q 368 961 354 961 l 446 961 q 458 958 454 961 q 460 947 463 954 q 381 832 446 878 q 228 786 315 786 z "},"î":{"ha":319,"x_min":21,"x_max":446,"o":"m 54 0 q 43 5 47 0 q 40 17 39 10 l 124 697 q 130 709 125 704 q 142 714 135 714 l 299 714 q 314 697 314 714 l 229 17 q 224 5 229 10 q 211 0 218 0 l 54 0 m 33 794 q 21 804 21 794 q 25 815 21 810 l 142 961 q 161 972 149 972 l 340 972 q 358 961 353 972 l 443 815 q 446 807 446 810 q 441 798 446 801 q 429 794 436 794 l 308 794 q 290 806 294 794 l 247 890 q 239 890 243 899 l 175 806 q 154 794 167 794 l 33 794 z "},"ï":{"ha":319,"x_min":3,"x_max":488,"o":"m 54 0 q 43 5 47 0 q 40 17 39 10 l 124 697 q 130 709 125 704 q 142 714 135 714 l 299 714 q 314 697 314 714 l 229 17 q 224 5 229 10 q 211 0 218 0 l 54 0 z "},"ị":{"ha":343,"x_min":18,"x_max":364,"o":"m 243 794 q 175 821 201 794 q 149 889 149 847 q 184 978 149 943 q 269 1014 219 1014 q 338 989 313 1014 q 364 921 364 964 q 328 831 364 868 q 243 794 293 794 m 65 0 q 50 17 50 0 l 135 699 q 141 710 136 706 q 153 715 146 715 l 310 715 q 321 710 317 715 q 324 699 325 706 l 240 17 q 234 5 239 10 q 222 0 229 0 l 65 0 m 107 -300 q 43 -276 68 -300 q 18 -212 18 -251 q 51 -125 18 -158 q 133 -92 83 -92 q 198 -116 174 -92 q 222 -179 222 -140 q 189 -265 222 -231 q 107 -300 156 -300 z "},"ì":{"ha":319,"x_min":39,"x_max":314,"o":"m 54 0 q 43 5 47 0 q 40 17 39 10 l 124 697 q 130 709 125 704 q 142 714 135 714 l 299 714 q 314 697 314 714 l 229 17 q 224 5 229 10 q 211 0 218 0 l 54 0 m 303 819 q 304 813 304 817 q 300 803 304 807 q 290 800 296 800 l 176 800 q 160 811 164 800 l 81 951 q 78 960 78 957 q 83 969 78 965 q 94 972 88 972 l 231 972 q 249 960 244 972 l 303 819 z "},"ỉ":{"ha":319,"x_min":39,"x_max":389,"o":"m 54 0 q 43 5 47 0 q 40 17 39 10 l 124 697 q 130 709 125 704 q 142 714 135 714 l 299 714 q 314 697 314 714 l 229 17 q 224 5 229 10 q 211 0 218 0 l 54 0 m 211 779 q 201 800 193 783 q 254 868 221 838 q 278 897 271 886 q 286 925 285 907 q 278 949 288 939 q 253 958 268 958 q 222 950 235 958 q 188 917 208 942 q 175 908 182 910 q 163 913 168 907 l 121 947 q 115 958 115 951 q 121 971 115 965 q 188 1034 154 1015 q 269 1053 221 1053 q 357 1024 325 1053 q 389 944 389 996 q 373 878 389 904 q 325 824 357 853 q 283 779 294 796 q 261 768 274 765 l 211 779 z "},"ĳ":{"ha":668,"x_min":50,"x_max":688,"o":"m 243 794 q 175 821 201 794 q 149 889 149 847 q 184 978 149 943 q 269 1014 219 1014 q 338 989 313 1014 q 364 921 364 964 q 328 831 364 868 q 243 794 293 794 m 65 0 q 50 17 50 0 l 135 699 q 141 710 136 706 q 153 715 146 715 l 310 715 q 321 710 317 715 q 324 699 325 706 l 240 17 q 234 5 239 10 q 222 0 229 0 l 65 0 m 567 794 q 499 821 525 794 q 474 889 474 847 q 509 978 474 943 q 593 1014 544 1014 q 662 989 636 1014 q 688 921 688 964 q 653 831 688 868 q 567 794 618 794 m 199 -283 q 185 -267 182 -283 l 200 -135 q 207 -122 201 -126 q 219 -119 213 -118 q 334 -96 299 -122 q 378 -3 369 -69 l 461 697 q 467 709 461 704 q 479 714 472 714 l 636 714 q 647 709 643 714 q 650 697 651 704 l 565 0 q 514 -175 551 -114 q 403 -261 476 -236 q 199 -283 329 -286 z "},"ī":{"ha":319,"x_min":35,"x_max":446,"o":"m 54 0 q 43 5 47 0 q 40 17 39 10 l 124 697 q 130 709 125 704 q 142 714 135 714 l 299 714 q 314 697 314 714 l 229 17 q 224 5 229 10 q 211 0 218 0 l 54 0 m 50 803 q 39 808 43 803 q 36 819 35 813 l 49 918 q 55 930 50 925 q 67 935 60 935 l 431 935 q 442 930 438 935 q 444 918 446 925 l 432 819 q 426 808 431 813 q 414 803 421 803 l 50 803 z "},"į":{"ha":358,"x_min":19,"x_max":379,"o":"m 81 0 q 69 5 74 0 q 67 17 65 10 l 150 697 q 156 709 151 704 q 168 714 161 714 l 325 714 q 340 697 340 714 l 256 17 q 250 5 256 10 q 238 0 244 0 l 81 0 m 257 794 q 189 822 215 794 q 163 890 163 849 q 198 978 163 943 q 285 1014 233 1014 q 353 988 328 1014 q 379 919 379 963 q 343 831 379 867 q 257 794 307 794 m 236 -233 q 222 -253 236 -249 q 136 -268 179 -268 q 60 -247 92 -268 q 21 -179 28 -226 l 19 -162 q 114 -7 19 -79 q 135 0 124 0 l 222 0 q 233 -7 233 0 q 225 -21 233 -12 q 150 -119 150 -74 q 162 -147 150 -137 q 192 -157 174 -157 q 217 -153 204 -157 q 225 -151 219 -151 q 235 -164 235 -151 l 236 -233 z "},"ĩ":{"ha":319,"x_min":13,"x_max":474,"o":"m 54 0 q 43 5 47 0 q 40 17 39 10 l 124 697 q 130 709 125 704 q 142 714 135 714 l 299 714 q 314 697 314 714 l 229 17 q 224 5 229 10 q 211 0 218 0 l 54 0 m 317 796 q 270 802 289 796 q 229 821 251 808 q 190 840 203 835 q 164 844 178 844 q 88 814 121 844 q 75 807 81 807 q 65 813 69 807 l 18 874 q 13 886 13 882 q 17 897 13 892 q 85 960 44 936 q 171 983 125 983 q 215 976 196 983 q 249 962 233 969 q 268 951 264 954 q 304 932 292 938 q 332 926 317 926 q 401 960 372 926 q 414 967 407 967 q 424 961 419 967 l 467 899 q 468 879 474 888 q 406 819 446 842 q 317 796 365 796 z "},"j":{"ha":342,"x_min":-143,"x_max":363,"o":"m 242 794 q 174 821 200 794 q 149 889 149 847 q 184 978 149 943 q 268 1014 219 1014 q 337 989 311 1014 q 363 921 363 964 q 328 831 363 868 q 242 794 293 794 m -126 -283 q -140 -267 -143 -283 l -125 -135 q -118 -122 -124 -126 q -106 -119 -112 -118 q 9 -96 -26 -122 q 53 -3 44 -69 l 136 697 q 142 709 136 704 q 154 714 147 714 l 311 714 q 322 709 318 714 q 325 697 326 704 l 240 0 q 189 -175 226 -114 q 78 -261 151 -236 q -126 -283 4 -286 z "},"ȷ":{"ha":347,"x_min":-143,"x_max":329,"o":"m -126 -283 q -140 -267 -143 -283 l -125 -135 q -118 -122 -124 -126 q -106 -119 -112 -118 q 9 -96 -26 -122 q 53 -3 44 -69 l 136 697 q 142 709 136 704 q 154 714 147 714 l 314 714 q 325 709 321 714 q 328 697 329 704 l 243 0 q 191 -174 229 -112 q 78 -261 153 -236 q -126 -283 4 -286 z "},"ĵ":{"ha":347,"x_min":-143,"x_max":460,"o":"m -126 -283 q -140 -267 -143 -283 l -125 -135 q -118 -122 -124 -126 q -106 -119 -112 -118 q 9 -96 -26 -122 q 53 -3 44 -69 l 136 697 q 142 709 136 704 q 154 714 147 714 l 314 714 q 325 709 321 714 q 328 697 329 704 l 243 0 q 191 -174 229 -112 q 78 -261 153 -236 q -126 -283 4 -286 m 47 794 q 35 804 35 794 q 39 815 35 810 l 156 961 q 175 972 163 972 l 354 972 q 372 961 367 972 l 457 815 q 460 807 460 810 q 455 798 460 801 q 443 794 450 794 l 322 794 q 304 806 308 794 l 261 890 q 253 890 257 899 l 189 806 q 168 794 181 794 l 47 794 z "},"k":{"ha":718,"x_min":44,"x_max":724,"o":"m 60 0 q 49 5 53 0 q 46 17 44 10 l 161 956 q 167 967 161 963 q 179 972 172 972 l 336 972 q 347 967 343 972 q 350 956 351 963 l 293 488 q 294 483 292 483 q 300 485 297 482 l 511 704 q 532 714 521 714 l 711 714 q 724 706 724 714 q 718 693 724 699 l 519 469 q 517 460 517 464 l 664 19 q 665 13 665 17 q 650 0 665 0 l 483 0 q 467 13 471 0 l 372 338 q 369 341 372 340 q 364 339 365 342 l 264 228 q 261 224 263 226 q 260 219 260 222 l 235 17 q 228 5 233 10 q 217 0 224 0 l 60 0 z "},"ǩ":{"ha":718,"x_min":44,"x_max":724,"o":"m 60 0 q 49 5 53 0 q 46 17 44 10 l 161 956 q 167 967 161 963 q 179 972 172 972 l 336 972 q 347 967 343 972 q 350 956 351 963 l 293 488 q 294 483 292 483 q 300 485 297 482 l 511 704 q 532 714 521 714 l 711 714 q 724 706 724 714 q 718 693 724 699 l 519 469 q 517 460 517 464 l 664 19 q 665 13 665 17 q 650 0 665 0 l 483 0 q 467 13 471 0 l 372 338 q 369 341 372 340 q 364 339 365 342 l 264 228 q 261 224 263 226 q 260 219 260 222 l 235 17 q 228 5 233 10 q 217 0 224 0 l 60 0 z "},"l":{"ha":329,"x_min":44,"x_max":351,"o":"m 60 0 q 49 5 53 0 q 46 17 44 10 l 161 956 q 167 967 161 963 q 179 972 172 972 l 336 972 q 347 967 343 972 q 350 956 351 963 l 235 17 q 228 5 233 10 q 217 0 224 0 l 60 0 z "},"ĺ":{"ha":329,"x_min":44,"x_max":444,"o":"m 60 0 q 49 5 53 0 q 46 17 44 10 l 161 956 q 167 967 161 963 q 179 972 172 972 l 336 972 q 347 967 343 972 q 350 956 351 963 l 235 17 q 228 5 233 10 q 217 0 224 0 l 60 0 m 194 1058 q 182 1067 182 1058 q 186 1078 182 1072 l 275 1218 q 296 1231 281 1231 l 432 1231 q 444 1221 444 1231 q 440 1210 444 1217 l 328 1069 q 307 1058 319 1058 l 194 1058 z "},"ľ":{"ha":586,"x_min":44,"x_max":635,"o":"m 60 0 q 49 5 53 0 q 46 17 44 10 l 161 956 q 167 967 161 963 q 179 972 172 972 l 336 972 q 347 967 343 972 q 350 956 351 963 l 235 17 q 228 5 233 10 q 217 0 224 0 l 60 0 z "},"ļ":{"ha":329,"x_min":-61,"x_max":351,"o":"m 60 0 q 49 5 53 0 q 46 17 44 10 l 161 956 q 167 967 161 963 q 179 972 172 972 l 336 972 q 347 967 343 972 q 350 956 351 963 l 235 17 q 228 5 233 10 q 217 0 224 0 l 60 0 z "},"ŀ":{"ha":353,"x_min":56,"x_max":401,"o":"m 71 0 q 60 5 64 0 q 57 17 56 10 l 172 956 q 178 967 172 963 q 190 972 183 972 l 347 972 q 358 967 354 972 q 361 956 363 963 l 246 17 q 240 5 244 10 q 228 0 235 0 l 71 0 z "},"ł":{"ha":586,"x_min":47,"x_max":604,"o":"m 603 575 q 604 568 604 572 q 593 551 604 558 l 411 456 q 406 447 406 451 l 353 17 q 347 5 351 10 q 335 0 342 0 l 176 0 q 165 5 169 0 q 163 17 161 10 l 201 335 q 200 341 203 339 q 194 340 197 343 l 107 294 q 97 292 101 292 q 86 301 88 292 l 49 397 l 47 403 q 57 419 47 413 l 218 506 q 224 514 224 510 l 278 956 q 284 967 279 963 q 296 972 289 972 l 454 972 q 465 967 461 972 q 468 956 469 963 l 428 628 q 429 622 426 624 q 435 622 432 619 l 542 679 q 550 682 547 682 q 563 674 558 682 l 603 575 z "},"m":{"ha":1125,"x_min":44,"x_max":1096,"o":"m 900 725 q 1044 672 993 725 q 1096 525 1096 619 q 1093 476 1096 493 l 1036 17 q 1031 5 1036 10 q 1018 0 1025 0 l 861 0 q 850 5 854 0 q 847 17 846 10 l 897 433 q 899 457 899 442 q 875 530 899 503 q 810 557 851 557 q 728 524 763 557 q 688 435 694 490 l 636 17 q 630 5 635 10 q 618 0 625 0 l 463 0 q 451 5 456 0 q 449 17 447 10 l 499 433 q 500 456 500 442 q 475 530 500 503 q 408 557 450 557 q 333 531 365 557 q 289 457 301 504 l 235 17 q 228 5 233 10 q 217 0 224 0 l 60 0 q 49 5 53 0 q 46 17 44 10 l 129 697 q 135 709 131 704 q 147 714 140 714 l 304 714 q 315 709 311 714 q 318 697 319 704 l 313 643 q 314 638 311 639 q 319 640 317 636 q 501 725 386 725 q 615 696 568 725 q 683 613 663 667 q 692 613 686 604 q 783 697 729 669 q 900 725 836 725 z "},"n":{"ha":736,"x_min":44,"x_max":704,"o":"m 493 725 q 647 669 590 725 q 704 515 704 614 q 701 472 704 503 l 646 17 q 640 5 644 10 q 628 0 635 0 l 471 0 q 456 17 456 0 l 507 432 q 508 454 508 439 q 482 528 508 500 q 413 557 456 557 q 328 523 363 557 q 286 432 293 489 l 235 17 q 228 5 233 10 q 217 0 224 0 l 60 0 q 49 5 53 0 q 46 17 44 10 l 129 697 q 135 709 131 704 q 147 714 140 714 l 304 714 q 315 709 311 714 q 318 697 319 704 l 313 649 q 315 643 313 644 q 319 644 317 642 q 493 725 382 725 z "},"ń":{"ha":736,"x_min":44,"x_max":704,"o":"m 493 725 q 647 669 590 725 q 704 515 704 614 q 701 472 704 503 l 646 17 q 640 5 644 10 q 628 0 635 0 l 471 0 q 456 17 456 0 l 507 432 q 508 454 508 439 q 482 528 508 500 q 413 557 456 557 q 328 523 363 557 q 286 432 293 489 l 235 17 q 228 5 233 10 q 217 0 224 0 l 60 0 q 49 5 53 0 q 46 17 44 10 l 129 697 q 135 709 131 704 q 147 714 140 714 l 304 714 q 315 709 311 714 q 318 697 319 704 l 313 649 q 315 643 313 644 q 319 644 317 642 q 493 725 382 725 m 372 800 q 360 808 360 800 q 364 819 360 814 l 453 960 q 474 972 458 972 l 610 972 q 622 963 622 972 q 618 951 622 958 l 506 811 q 485 800 497 800 l 372 800 z "},"ň":{"ha":736,"x_min":44,"x_max":704,"o":"m 493 725 q 647 669 590 725 q 704 515 704 614 q 701 472 704 503 l 646 17 q 640 5 644 10 q 628 0 635 0 l 471 0 q 456 17 456 0 l 507 432 q 508 454 508 439 q 482 528 508 500 q 413 557 456 557 q 328 523 363 557 q 286 432 293 489 l 235 17 q 228 5 233 10 q 217 0 224 0 l 60 0 q 49 5 53 0 q 46 17 44 10 l 129 697 q 135 709 131 704 q 147 714 140 714 l 304 714 q 315 709 311 714 q 318 697 319 704 l 313 649 q 315 643 313 644 q 319 644 317 642 q 493 725 382 725 m 267 951 q 264 960 264 957 q 268 969 264 965 q 279 972 272 972 l 401 972 q 418 961 414 972 l 463 876 q 469 876 465 867 l 535 961 q 554 972 542 972 l 676 972 q 689 963 689 972 q 685 951 689 958 l 564 804 q 543 794 556 794 l 364 794 q 347 806 351 794 l 267 951 z "},"ŋ":{"ha":738,"x_min":44,"x_max":704,"o":"m 681 301 q 683 294 681 300 q 682 281 683 286 l 650 19 q 607 -145 638 -86 q 508 -233 576 -204 q 315 -264 440 -262 q 301 -247 299 -264 l 317 -124 q 335 -107 319 -107 q 419 -80 392 -103 q 457 -4 446 -57 q 456 3 458 -3 l 456 17 l 507 432 q 508 454 508 439 q 482 528 508 500 q 413 557 456 557 q 328 523 363 557 q 286 432 293 489 l 235 17 q 228 5 233 10 q 217 0 224 0 l 60 0 q 49 5 53 0 q 46 17 44 10 l 129 697 q 135 709 131 704 q 147 714 140 714 l 304 714 q 315 709 311 714 q 318 697 319 704 l 313 649 q 315 643 313 644 q 321 646 317 642 q 493 725 383 725 q 647 669 590 725 q 704 515 704 614 q 701 472 704 503 l 681 301 z "},"ñ":{"ha":736,"x_min":44,"x_max":704,"o":"m 493 725 q 647 669 590 725 q 704 515 704 614 q 701 472 704 503 l 646 17 q 640 5 644 10 q 628 0 635 0 l 471 0 q 456 17 456 0 l 507 432 q 508 454 508 439 q 482 528 508 500 q 413 557 456 557 q 328 523 363 557 q 286 432 293 489 l 235 17 q 228 5 233 10 q 217 0 224 0 l 60 0 q 49 5 53 0 q 46 17 44 10 l 129 697 q 135 709 131 704 q 147 714 140 714 l 304 714 q 315 709 311 714 q 318 697 319 704 l 313 649 q 315 643 313 644 q 319 644 317 642 q 493 725 382 725 m 533 796 q 487 802 506 796 q 446 821 468 808 q 407 840 419 835 q 381 844 394 844 q 304 814 338 844 q 292 807 297 807 q 282 813 286 807 l 235 874 q 229 886 229 882 q 233 897 229 892 q 301 960 261 936 q 388 983 342 983 q 431 976 413 983 q 465 962 450 969 q 485 951 481 954 q 521 932 508 938 q 549 926 533 926 q 618 960 589 926 q 631 967 624 967 q 640 961 636 967 l 683 899 q 685 879 690 888 q 622 819 663 842 q 533 796 582 796 z "},"o":{"ha":750,"x_min":65,"x_max":719,"o":"m 347 -11 q 161 50 235 -11 q 71 217 88 111 q 65 289 65 246 q 69 358 65 324 q 107 506 81 446 q 239 667 151 608 q 439 725 326 725 q 621 667 550 725 q 711 507 692 610 q 719 421 719 468 q 715 361 719 390 q 679 221 707 292 q 549 51 636 113 q 347 -11 461 -11 m 368 157 q 447 185 413 157 q 501 261 481 213 q 524 358 518 307 q 528 421 528 392 q 499 521 528 485 q 415 557 469 557 q 337 531 371 557 q 283 457 303 504 q 261 358 268 424 q 257 290 257 324 q 286 193 257 229 q 368 157 315 157 z "},"ó":{"ha":740,"x_min":65,"x_max":719,"o":"m 347 -11 q 161 50 235 -11 q 71 217 88 111 q 65 289 65 246 q 69 358 65 324 q 107 506 81 446 q 239 667 151 608 q 439 725 326 725 q 621 667 550 725 q 711 507 692 610 q 719 421 719 468 q 715 361 719 390 q 679 221 707 292 q 549 51 636 113 q 347 -11 461 -11 m 368 157 q 447 185 413 157 q 501 261 481 213 q 524 358 518 307 q 528 421 528 392 q 499 521 528 485 q 415 557 469 557 q 337 531 371 557 q 283 457 303 504 q 261 358 268 424 q 257 290 257 324 q 286 193 257 229 q 368 157 315 157 m 367 800 q 354 808 354 800 q 358 819 354 814 l 447 960 q 468 972 453 972 l 604 972 q 617 963 617 972 q 613 951 617 958 l 500 811 q 479 800 492 800 l 367 800 z "},"ŏ":{"ha":740,"x_min":65,"x_max":719,"o":"m 347 -11 q 161 50 235 -11 q 71 217 88 111 q 65 289 65 246 q 69 358 65 324 q 107 506 81 446 q 239 667 151 608 q 439 725 326 725 q 621 667 550 725 q 711 507 692 610 q 719 421 719 468 q 715 361 719 390 q 679 221 707 292 q 549 51 636 113 q 347 -11 461 -11 m 368 157 q 447 185 413 157 q 501 261 481 213 q 524 358 518 307 q 528 421 528 392 q 499 521 528 485 q 415 557 469 557 q 337 531 371 557 q 283 457 303 504 q 261 358 268 424 q 257 290 257 324 q 286 193 257 229 q 368 157 315 157 m 439 786 q 301 830 354 786 q 247 942 247 874 q 264 961 247 961 l 344 960 q 360 944 357 960 q 387 897 361 915 q 451 879 413 879 q 521 897 490 879 q 561 946 551 915 q 579 961 565 961 l 657 961 q 669 958 665 961 q 671 947 674 954 q 592 832 657 878 q 439 786 526 786 z "},"ô":{"ha":740,"x_min":65,"x_max":719,"o":"m 347 -11 q 161 50 235 -11 q 71 217 88 111 q 65 289 65 246 q 69 358 65 324 q 107 506 81 446 q 239 667 151 608 q 439 725 326 725 q 621 667 550 725 q 711 507 692 610 q 719 421 719 468 q 715 361 719 390 q 679 221 707 292 q 549 51 636 113 q 347 -11 461 -11 m 368 157 q 447 185 413 157 q 501 261 481 213 q 524 358 518 307 q 528 421 528 392 q 499 521 528 485 q 415 557 469 557 q 337 531 371 557 q 283 457 303 504 q 261 358 268 424 q 257 290 257 324 q 286 193 257 229 q 368 157 315 157 m 243 794 q 231 804 231 794 q 235 815 231 810 l 351 961 q 371 972 358 972 l 550 972 q 568 961 563 972 l 653 815 q 656 807 656 810 q 651 798 656 801 q 639 794 646 794 l 518 794 q 500 806 504 794 l 457 890 q 449 890 453 899 l 385 806 q 364 794 376 794 l 243 794 z "},"ố":{"ha":740,"x_min":65,"x_max":919,"o":"m 347 -11 q 161 50 235 -11 q 71 217 88 111 q 65 289 65 246 q 69 358 65 324 q 107 506 81 446 q 239 667 151 608 q 439 725 326 725 q 621 667 550 725 q 711 507 692 610 q 719 421 719 468 q 715 361 719 390 q 679 221 707 292 q 549 51 636 113 q 347 -11 461 -11 m 368 157 q 447 185 413 157 q 501 261 481 213 q 524 358 518 307 q 528 421 528 392 q 499 521 528 485 q 415 557 469 557 q 337 531 371 557 q 283 457 303 504 q 261 358 268 424 q 257 290 257 324 q 286 193 257 229 q 368 157 315 157 z "},"ộ":{"ha":740,"x_min":65,"x_max":719,"o":"m 347 -11 q 161 50 235 -11 q 71 217 88 111 q 65 289 65 246 q 69 358 65 324 q 107 506 81 446 q 239 667 151 608 q 439 725 326 725 q 621 667 550 725 q 711 507 692 610 q 719 421 719 468 q 715 361 719 390 q 679 221 707 292 q 549 51 636 113 q 347 -11 461 -11 m 368 157 q 447 185 413 157 q 501 261 481 213 q 524 358 518 307 q 528 421 528 392 q 499 521 528 485 q 415 557 469 557 q 337 531 371 557 q 283 457 303 504 q 261 358 268 424 q 257 290 257 324 q 286 193 257 229 q 368 157 315 157 m 306 -300 q 242 -276 267 -300 q 217 -212 217 -251 q 249 -125 217 -158 q 332 -92 282 -92 q 397 -116 372 -92 q 421 -179 421 -140 q 388 -265 421 -231 q 306 -300 354 -300 m 243 794 q 231 804 231 794 q 235 815 231 810 l 351 961 q 371 972 358 972 l 550 972 q 568 961 563 972 l 653 815 q 656 807 656 810 q 651 798 656 801 q 639 794 646 794 l 518 794 q 500 806 504 794 l 457 890 q 449 890 453 899 l 385 806 q 364 794 376 794 l 243 794 z "},"ồ":{"ha":740,"x_min":65,"x_max":782,"o":"m 347 -11 q 161 50 235 -11 q 71 217 88 111 q 65 289 65 246 q 69 358 65 324 q 107 506 81 446 q 239 667 151 608 q 439 725 326 725 q 621 667 550 725 q 711 507 692 610 q 719 421 719 468 q 715 361 719 390 q 679 221 707 292 q 549 51 636 113 q 347 -11 461 -11 m 368 157 q 447 185 413 157 q 501 261 481 213 q 524 358 518 307 q 528 421 528 392 q 499 521 528 485 q 415 557 469 557 q 337 531 371 557 q 283 457 303 504 q 261 358 268 424 q 257 290 257 324 q 286 193 257 229 q 368 157 315 157 z "},"ổ":{"ha":740,"x_min":65,"x_max":825,"o":"m 347 -11 q 161 50 235 -11 q 71 217 88 111 q 65 289 65 246 q 69 358 65 324 q 107 506 81 446 q 239 667 151 608 q 439 725 326 725 q 621 667 550 725 q 711 507 692 610 q 719 421 719 468 q 715 361 719 390 q 679 221 707 292 q 549 51 636 113 q 347 -11 461 -11 m 368 157 q 447 185 413 157 q 501 261 481 213 q 524 358 518 307 q 528 421 528 392 q 499 521 528 485 q 415 557 469 557 q 337 531 371 557 q 283 457 303 504 q 261 358 268 424 q 257 290 257 324 q 286 193 257 229 q 368 157 315 157 z "},"ỗ":{"ha":740,"x_min":65,"x_max":719,"o":"m 347 -11 q 161 50 235 -11 q 71 217 88 111 q 65 289 65 246 q 69 358 65 324 q 107 506 81 446 q 239 667 151 608 q 439 725 326 725 q 621 667 550 725 q 711 507 692 610 q 719 421 719 468 q 715 361 719 390 q 679 221 707 292 q 549 51 636 113 q 347 -11 461 -11 m 368 157 q 447 185 413 157 q 501 261 481 213 q 524 358 518 307 q 528 421 528 392 q 499 521 528 485 q 415 557 469 557 q 337 531 371 557 q 283 457 303 504 q 261 358 268 424 q 257 290 257 324 q 286 193 257 229 q 368 157 315 157 z "},"ö":{"ha":740,"x_min":65,"x_max":719,"o":"m 347 -11 q 161 50 235 -11 q 71 217 88 111 q 65 289 65 246 q 69 358 65 324 q 107 506 81 446 q 239 667 151 608 q 439 725 326 725 q 621 667 550 725 q 711 507 692 610 q 719 421 719 468 q 715 361 719 390 q 679 221 707 292 q 549 51 636 113 q 347 -11 461 -11 m 368 157 q 447 185 413 157 q 501 261 481 213 q 524 358 518 307 q 528 421 528 392 q 499 521 528 485 q 415 557 469 557 q 337 531 371 557 q 283 457 303 504 q 261 358 268 424 q 257 290 257 324 q 286 193 257 229 q 368 157 315 157 z "},"ọ":{"ha":740,"x_min":65,"x_max":719,"o":"m 347 -11 q 161 50 235 -11 q 71 217 88 111 q 65 289 65 246 q 69 358 65 324 q 107 506 81 446 q 239 667 151 608 q 439 725 326 725 q 621 667 550 725 q 711 507 692 610 q 719 421 719 468 q 715 361 719 390 q 679 221 707 292 q 549 51 636 113 q 347 -11 461 -11 m 368 157 q 447 185 413 157 q 501 261 481 213 q 524 358 518 307 q 528 421 528 392 q 499 521 528 485 q 415 557 469 557 q 337 531 371 557 q 283 457 303 504 q 261 358 268 424 q 257 290 257 324 q 286 193 257 229 q 368 157 315 157 m 306 -300 q 242 -276 267 -300 q 217 -212 217 -251 q 249 -125 217 -158 q 332 -92 282 -92 q 397 -116 372 -92 q 421 -179 421 -140 q 388 -265 421 -231 q 306 -300 354 -300 z "},"ò":{"ha":740,"x_min":65,"x_max":719,"o":"m 347 -11 q 161 50 235 -11 q 71 217 88 111 q 65 289 65 246 q 69 358 65 324 q 107 506 81 446 q 239 667 151 608 q 439 725 326 725 q 621 667 550 725 q 711 507 692 610 q 719 421 719 468 q 715 361 719 390 q 679 221 707 292 q 549 51 636 113 q 347 -11 461 -11 m 368 157 q 447 185 413 157 q 501 261 481 213 q 524 358 518 307 q 528 421 528 392 q 499 521 528 485 q 415 557 469 557 q 337 531 371 557 q 283 457 303 504 q 261 358 268 424 q 257 290 257 324 q 286 193 257 229 q 368 157 315 157 m 513 819 q 514 813 514 817 q 510 803 514 807 q 500 800 506 800 l 386 800 q 369 811 374 800 l 290 951 q 288 960 288 957 q 292 969 288 965 q 304 972 297 972 l 440 972 q 458 960 454 972 l 513 819 z "},"ỏ":{"ha":740,"x_min":65,"x_max":719,"o":"m 347 -11 q 161 50 235 -11 q 71 217 88 111 q 65 289 65 246 q 69 358 65 324 q 107 506 81 446 q 239 667 151 608 q 439 725 326 725 q 621 667 550 725 q 711 507 692 610 q 719 421 719 468 q 715 361 719 390 q 679 221 707 292 q 549 51 636 113 q 347 -11 461 -11 m 368 157 q 447 185 413 157 q 501 261 481 213 q 524 358 518 307 q 528 421 528 392 q 499 521 528 485 q 415 557 469 557 q 337 531 371 557 q 283 457 303 504 q 261 358 268 424 q 257 290 257 324 q 286 193 257 229 q 368 157 315 157 m 421 779 q 411 800 403 783 q 464 868 431 838 q 488 897 481 886 q 496 925 494 907 q 488 949 497 939 q 463 958 478 958 q 431 950 444 958 q 397 917 418 942 q 385 908 392 910 q 372 913 378 907 l 331 947 q 325 958 325 951 q 331 971 325 965 q 397 1034 364 1015 q 479 1053 431 1053 q 567 1024 535 1053 q 599 944 599 996 q 583 878 599 904 q 535 824 567 853 q 493 779 504 796 q 471 768 483 765 l 421 779 z "},"ơ":{"ha":740,"x_min":65,"x_max":756,"o":"m 711 507 q 719 421 719 468 q 715 361 719 390 q 679 221 707 292 q 549 51 636 113 q 347 -11 461 -11 q 161 50 235 -11 q 71 217 88 111 q 65 289 65 246 q 69 358 65 324 q 107 506 81 446 q 239 667 151 608 q 439 725 326 725 q 522 715 476 725 q 529 714 524 714 q 596 743 565 719 q 638 819 626 767 q 642 832 638 828 q 656 836 647 836 l 739 836 q 753 819 756 836 q 646 656 732 708 q 644 646 640 651 q 711 507 693 597 m 501 261 q 524 358 518 307 q 528 421 528 392 q 499 521 528 485 q 415 557 469 557 q 337 531 371 557 q 283 457 303 504 q 261 358 268 424 q 257 290 257 324 q 286 193 257 229 q 368 157 315 157 q 447 185 413 157 q 501 261 481 213 z "},"ớ":{"ha":740,"x_min":65,"x_max":756,"o":"m 711 507 q 719 421 719 468 q 715 361 719 390 q 679 221 707 292 q 549 51 636 113 q 347 -11 461 -11 q 161 50 235 -11 q 71 217 88 111 q 65 289 65 246 q 69 358 65 324 q 107 506 81 446 q 239 667 151 608 q 439 725 326 725 q 522 715 476 725 q 529 714 524 714 q 596 743 565 719 q 638 819 626 767 q 642 832 638 828 q 656 836 647 836 l 739 836 q 753 819 756 836 q 646 656 732 708 q 644 646 640 651 q 711 507 693 597 m 501 261 q 524 358 518 307 q 528 421 528 392 q 499 521 528 485 q 415 557 469 557 q 337 531 371 557 q 283 457 303 504 q 261 358 268 424 q 257 290 257 324 q 286 193 257 229 q 368 157 315 157 q 447 185 413 157 q 501 261 481 213 m 367 800 q 354 808 354 800 q 358 819 354 814 l 447 960 q 468 972 453 972 l 604 972 q 617 963 617 972 q 613 951 617 958 l 500 811 q 479 800 492 800 l 367 800 z "},"ợ":{"ha":740,"x_min":65,"x_max":756,"o":"m 711 507 q 719 421 719 468 q 715 361 719 390 q 679 221 707 292 q 549 51 636 113 q 347 -11 461 -11 q 161 50 235 -11 q 71 217 88 111 q 65 289 65 246 q 69 358 65 324 q 107 506 81 446 q 239 667 151 608 q 439 725 326 725 q 522 715 476 725 q 529 714 524 714 q 596 743 565 719 q 638 819 626 767 q 642 832 638 828 q 656 836 647 836 l 739 836 q 753 819 756 836 q 646 656 732 708 q 644 646 640 651 q 711 507 693 597 m 501 261 q 524 358 518 307 q 528 421 528 392 q 499 521 528 485 q 415 557 469 557 q 337 531 371 557 q 283 457 303 504 q 261 358 268 424 q 257 290 257 324 q 286 193 257 229 q 368 157 315 157 q 447 185 413 157 q 501 261 481 213 m 306 -300 q 242 -276 267 -300 q 217 -212 217 -251 q 249 -125 217 -158 q 332 -92 282 -92 q 397 -116 372 -92 q 421 -179 421 -140 q 388 -265 421 -231 q 306 -300 354 -300 z "}}}
